M48
;GenerationSoftware,Autodesk,EAGLE,9.5.1*%
;CreationDate,2019-11-26T21:31:04Z*%
FMAT,2
ICI,OFF
METRIC,TZ,000.000
T3C0.500
T2C0.635
T1C1.016
%
G90
M71
T1
X2540Y41005
X40323Y2223
X45402Y12700
X45402Y15240
X45402Y17780
X45402Y20320
X2540Y39005
X4763Y45402
X7302Y45402
X9843Y45402
X12382Y45402
X14922Y45402
X17463Y45402
X20003Y45402
X22542Y45402
X25082Y45402
X27622Y45402
X30162Y45402
X32702Y45402
X35243Y45402
X37783Y45402
X40323Y45402
X42863Y45402
X4763Y2223
X7302Y2223
X9843Y2223
X12382Y2223
X14922Y2223
X17463Y2223
X20003Y2223
X22542Y2223
X25082Y2223
X27622Y2223
X30162Y2223
X32702Y2223
X35243Y2223
X37783Y2223
X42863Y2223
X42863Y35243
X45402Y35243
X42863Y32702
X45402Y32702
X42863Y30162
X45402Y30162
X42863Y27622
X45402Y27622
X42863Y25082
X45402Y25082
T2
X1905Y45720
X1905Y1905
X45720Y1905
X45720Y45720
T3
X12686Y21604
X27622Y42863
X25717Y42863
X23812Y42863
X21934Y42836
X20015Y42863
X18098Y42863
X15913Y42863
X9868Y43180
X15875Y21374
X41275Y14922
X16144Y18146
X34608Y24130
X33020Y25082
X13970Y32067
X12382Y27940
X12167Y26022
X14059Y26401
X13437Y24760
X30797Y41593
X42228Y41275
X7302Y6769
X36195Y25387
X15240Y29845
X1714Y19685
X15047Y19601
X39211Y36354
X38100Y37783
X32067Y28892
X4763Y43180
X23495Y38100
X41910Y7302
X7302Y43180
X22860Y39688
X40005Y31432
X43815Y22225
X40323Y6985
X40640Y19685
X8573Y33655
X19685Y15875
X25717Y5715
X43815Y6032
X44132Y42545
X11125Y17043
X9538Y21907
X9525Y17043
X9525Y20003
X2540Y36830
X28257Y17474
X33020Y19050
X12382Y15240
X13652Y4089
X45402Y22860
X12078Y33973
X34290Y20032
X24130Y5080
X41275Y10160
X36830Y42863
X37148Y22860
X10160Y6985
X40005Y28892
X40005Y26352
X19368Y18415
X32067Y13652
X13335Y35255
X30480Y15240
X15240Y35243
X40640Y42863
X38735Y42863
X33020Y42863
X13665Y41593
X11747Y42863
X10897Y23173
M30