G04 EAGLE Gerber RS-274X export*
G75*
%MOMM*%
%FSLAX34Y34*%
%LPD*%
%INTop Copper*%
%IPPOS*%
%AMOC8*
5,1,8,0,0,1.08239X$1,22.5*%
G01*
%ADD10R,1.400000X0.400000*%
%ADD11R,1.900000X1.800000*%
%ADD12R,1.900000X2.300000*%
%ADD13R,1.500000X0.300000*%
%ADD14R,1.100000X1.000000*%
%ADD15R,0.600000X1.000000*%
%ADD16R,0.970000X0.500000*%
%ADD17R,1.000000X1.100000*%
%ADD18C,1.651000*%
%ADD19R,1.000000X1.800000*%
%ADD20R,1.524000X0.762000*%
%ADD21R,0.400000X2.000000*%
%ADD22R,1.200000X1.200000*%
%ADD23R,1.092200X2.006600*%
%ADD24R,1.250000X0.600000*%
%ADD25R,3.790000X1.200000*%
%ADD26R,1.400000X1.450000*%
%ADD27R,0.850000X0.950000*%
%ADD28R,0.700000X1.300000*%
%ADD29C,1.879600*%
%ADD30R,2.200000X1.800000*%
%ADD31R,1.650000X1.400000*%
%ADD32R,1.000000X1.400000*%
%ADD33R,1.200000X0.600000*%
%ADD34C,0.406400*%
%ADD35C,0.609600*%
%ADD36C,0.304800*%
%ADD37C,1.397000*%
%ADD38C,0.254000*%
%ADD39C,1.778000*%

G36*
X239521Y225819D02*
X239521Y225819D01*
X239595Y225820D01*
X239692Y225844D01*
X239792Y225859D01*
X239861Y225887D01*
X239933Y225905D01*
X240023Y225951D01*
X240116Y225988D01*
X240177Y226030D01*
X240243Y226065D01*
X240320Y226130D01*
X240402Y226187D01*
X240452Y226242D01*
X240508Y226290D01*
X240568Y226371D01*
X240635Y226446D01*
X240671Y226511D01*
X240716Y226571D01*
X240755Y226663D01*
X240804Y226751D01*
X240824Y226822D01*
X240854Y226891D01*
X240871Y226989D01*
X240899Y227086D01*
X240907Y227186D01*
X240915Y227234D01*
X240913Y227269D01*
X240918Y227330D01*
X240918Y233248D01*
X258877Y251207D01*
X266371Y251207D01*
X266726Y250851D01*
X266747Y250835D01*
X266764Y250815D01*
X266883Y250727D01*
X266999Y250635D01*
X267023Y250623D01*
X267044Y250608D01*
X267180Y250549D01*
X267314Y250486D01*
X267340Y250480D01*
X267364Y250470D01*
X267510Y250443D01*
X267655Y250412D01*
X267681Y250413D01*
X267707Y250408D01*
X267856Y250416D01*
X268003Y250418D01*
X268029Y250425D01*
X268055Y250426D01*
X268198Y250467D01*
X268341Y250503D01*
X268365Y250515D01*
X268390Y250522D01*
X268519Y250595D01*
X268651Y250663D01*
X268671Y250680D01*
X268694Y250693D01*
X268880Y250851D01*
X305877Y287848D01*
X305893Y287868D01*
X305913Y287885D01*
X306002Y288005D01*
X306094Y288121D01*
X306105Y288145D01*
X306121Y288166D01*
X306179Y288302D01*
X306243Y288436D01*
X306248Y288462D01*
X306259Y288486D01*
X306285Y288632D01*
X306316Y288777D01*
X306316Y288803D01*
X306320Y288829D01*
X306313Y288977D01*
X306310Y289125D01*
X306304Y289151D01*
X306302Y289177D01*
X306261Y289319D01*
X306225Y289463D01*
X306213Y289487D01*
X306206Y289512D01*
X306133Y289641D01*
X306065Y289773D01*
X306048Y289793D01*
X306036Y289816D01*
X305877Y290002D01*
X242377Y353502D01*
X242357Y353518D01*
X242340Y353538D01*
X242220Y353627D01*
X242104Y353719D01*
X242080Y353730D01*
X242059Y353746D01*
X241923Y353804D01*
X241789Y353868D01*
X241763Y353873D01*
X241739Y353884D01*
X241593Y353910D01*
X241448Y353941D01*
X241422Y353941D01*
X241396Y353945D01*
X241248Y353938D01*
X241100Y353935D01*
X241074Y353929D01*
X241048Y353927D01*
X240906Y353886D01*
X240762Y353850D01*
X240739Y353838D01*
X240713Y353831D01*
X240584Y353758D01*
X240452Y353690D01*
X240432Y353673D01*
X240409Y353661D01*
X240223Y353502D01*
X176723Y290002D01*
X176707Y289982D01*
X176687Y289965D01*
X176598Y289845D01*
X176506Y289729D01*
X176495Y289705D01*
X176479Y289684D01*
X176421Y289548D01*
X176357Y289414D01*
X176352Y289388D01*
X176341Y289364D01*
X176315Y289218D01*
X176284Y289073D01*
X176284Y289047D01*
X176280Y289021D01*
X176287Y288873D01*
X176290Y288725D01*
X176296Y288699D01*
X176298Y288673D01*
X176339Y288531D01*
X176375Y288387D01*
X176387Y288364D01*
X176394Y288338D01*
X176466Y288209D01*
X176535Y288077D01*
X176552Y288057D01*
X176564Y288034D01*
X176723Y287848D01*
X238318Y226253D01*
X238396Y226191D01*
X238469Y226121D01*
X238533Y226082D01*
X238591Y226036D01*
X238682Y225993D01*
X238768Y225942D01*
X238839Y225919D01*
X238906Y225887D01*
X239004Y225866D01*
X239100Y225836D01*
X239174Y225830D01*
X239247Y225814D01*
X239347Y225816D01*
X239447Y225808D01*
X239521Y225819D01*
G37*
G36*
X398515Y330275D02*
X398515Y330275D01*
X398663Y330277D01*
X398688Y330284D01*
X398714Y330285D01*
X398857Y330326D01*
X399001Y330362D01*
X399024Y330375D01*
X399049Y330382D01*
X399178Y330454D01*
X399310Y330522D01*
X399330Y330539D01*
X399353Y330552D01*
X399540Y330710D01*
X407477Y338648D01*
X407556Y338747D01*
X407640Y338841D01*
X407664Y338883D01*
X407694Y338921D01*
X407748Y339035D01*
X407809Y339146D01*
X407822Y339192D01*
X407843Y339236D01*
X407869Y339359D01*
X407904Y339481D01*
X407909Y339542D01*
X407916Y339577D01*
X407915Y339625D01*
X407923Y339725D01*
X407923Y367669D01*
X413381Y373127D01*
X425450Y373127D01*
X425476Y373130D01*
X425502Y373128D01*
X425649Y373150D01*
X425796Y373167D01*
X425821Y373175D01*
X425847Y373179D01*
X425985Y373234D01*
X426124Y373284D01*
X426146Y373298D01*
X426171Y373308D01*
X426292Y373393D01*
X426417Y373473D01*
X426435Y373492D01*
X426457Y373507D01*
X426556Y373617D01*
X426659Y373724D01*
X426673Y373746D01*
X426690Y373766D01*
X426762Y373896D01*
X426838Y374023D01*
X426846Y374048D01*
X426859Y374071D01*
X426899Y374214D01*
X426944Y374355D01*
X426946Y374381D01*
X426954Y374406D01*
X426973Y374650D01*
X426973Y384175D01*
X426970Y384201D01*
X426972Y384227D01*
X426950Y384374D01*
X426933Y384521D01*
X426925Y384546D01*
X426921Y384572D01*
X426866Y384710D01*
X426816Y384849D01*
X426802Y384871D01*
X426792Y384896D01*
X426707Y385017D01*
X426627Y385142D01*
X426608Y385160D01*
X426593Y385182D01*
X426483Y385281D01*
X426376Y385384D01*
X426354Y385398D01*
X426334Y385415D01*
X426204Y385487D01*
X426077Y385563D01*
X426052Y385571D01*
X426029Y385584D01*
X425886Y385624D01*
X425745Y385669D01*
X425719Y385671D01*
X425694Y385679D01*
X425450Y385698D01*
X384806Y385698D01*
X378902Y391602D01*
X378803Y391681D01*
X378709Y391765D01*
X378667Y391789D01*
X378629Y391819D01*
X378515Y391873D01*
X378404Y391934D01*
X378358Y391947D01*
X378314Y391968D01*
X378191Y391994D01*
X378069Y392029D01*
X378008Y392034D01*
X377973Y392041D01*
X377925Y392040D01*
X377825Y392048D01*
X352425Y392048D01*
X352299Y392034D01*
X352173Y392027D01*
X352127Y392014D01*
X352079Y392008D01*
X351960Y391966D01*
X351838Y391931D01*
X351796Y391907D01*
X351751Y391891D01*
X351644Y391822D01*
X351534Y391761D01*
X351488Y391721D01*
X351458Y391702D01*
X351424Y391667D01*
X351348Y391602D01*
X344998Y385252D01*
X344982Y385232D01*
X344962Y385215D01*
X344873Y385095D01*
X344781Y384979D01*
X344770Y384955D01*
X344754Y384934D01*
X344696Y384798D01*
X344632Y384664D01*
X344627Y384638D01*
X344616Y384614D01*
X344590Y384468D01*
X344559Y384323D01*
X344559Y384297D01*
X344555Y384271D01*
X344562Y384123D01*
X344565Y383975D01*
X344571Y383949D01*
X344573Y383923D01*
X344614Y383781D01*
X344650Y383637D01*
X344662Y383614D01*
X344669Y383588D01*
X344742Y383459D01*
X344810Y383327D01*
X344827Y383307D01*
X344839Y383284D01*
X344998Y383098D01*
X397385Y330710D01*
X397406Y330694D01*
X397423Y330674D01*
X397542Y330586D01*
X397658Y330494D01*
X397682Y330483D01*
X397703Y330467D01*
X397839Y330408D01*
X397974Y330345D01*
X397999Y330339D01*
X398023Y330329D01*
X398170Y330303D01*
X398314Y330272D01*
X398340Y330272D01*
X398366Y330267D01*
X398515Y330275D01*
G37*
G36*
X47751Y341391D02*
X47751Y341391D01*
X47877Y341398D01*
X47923Y341411D01*
X47971Y341417D01*
X48090Y341459D01*
X48212Y341494D01*
X48254Y341518D01*
X48299Y341534D01*
X48406Y341603D01*
X48516Y341664D01*
X48562Y341704D01*
X48592Y341723D01*
X48626Y341758D01*
X48702Y341823D01*
X54606Y347727D01*
X76200Y347727D01*
X76326Y347741D01*
X76452Y347748D01*
X76498Y347761D01*
X76546Y347767D01*
X76665Y347809D01*
X76787Y347844D01*
X76829Y347868D01*
X76874Y347884D01*
X76981Y347953D01*
X77091Y348014D01*
X77137Y348054D01*
X77167Y348073D01*
X77201Y348108D01*
X77277Y348173D01*
X80452Y351348D01*
X80531Y351447D01*
X80615Y351541D01*
X80639Y351583D01*
X80669Y351621D01*
X80723Y351735D01*
X80784Y351846D01*
X80797Y351892D01*
X80818Y351936D01*
X80844Y352059D01*
X80879Y352181D01*
X80884Y352242D01*
X80891Y352277D01*
X80890Y352325D01*
X80898Y352425D01*
X80898Y358144D01*
X86746Y363992D01*
X86747Y363993D01*
X86749Y363995D01*
X86855Y364129D01*
X86963Y364265D01*
X86964Y364267D01*
X86965Y364268D01*
X87076Y364486D01*
X87337Y365116D01*
X89123Y366902D01*
X89124Y366902D01*
X90298Y368076D01*
X90298Y368077D01*
X92084Y369863D01*
X92714Y370124D01*
X92716Y370125D01*
X92718Y370125D01*
X92869Y370210D01*
X93019Y370293D01*
X93020Y370294D01*
X93022Y370295D01*
X93208Y370454D01*
X95881Y373127D01*
X102972Y373127D01*
X103098Y373141D01*
X103224Y373148D01*
X103270Y373161D01*
X103318Y373167D01*
X103437Y373209D01*
X103559Y373244D01*
X103601Y373268D01*
X103646Y373284D01*
X103753Y373353D01*
X103863Y373414D01*
X103909Y373454D01*
X103939Y373473D01*
X103973Y373508D01*
X104049Y373573D01*
X105090Y374614D01*
X105169Y374713D01*
X105253Y374807D01*
X105277Y374849D01*
X105307Y374887D01*
X105361Y375001D01*
X105422Y375112D01*
X105435Y375158D01*
X105456Y375202D01*
X105482Y375325D01*
X105517Y375447D01*
X105522Y375508D01*
X105529Y375543D01*
X105528Y375591D01*
X105536Y375691D01*
X105536Y387350D01*
X105533Y387376D01*
X105535Y387402D01*
X105513Y387549D01*
X105496Y387696D01*
X105488Y387721D01*
X105484Y387747D01*
X105429Y387885D01*
X105379Y388024D01*
X105365Y388046D01*
X105355Y388071D01*
X105270Y388192D01*
X105190Y388317D01*
X105171Y388335D01*
X105156Y388357D01*
X105046Y388456D01*
X104939Y388559D01*
X104917Y388573D01*
X104897Y388590D01*
X104767Y388662D01*
X104640Y388738D01*
X104615Y388746D01*
X104592Y388759D01*
X104449Y388799D01*
X104308Y388844D01*
X104282Y388846D01*
X104257Y388854D01*
X104013Y388873D01*
X93903Y388873D01*
X93777Y388859D01*
X93651Y388852D01*
X93604Y388839D01*
X93556Y388833D01*
X93437Y388791D01*
X93316Y388756D01*
X93274Y388732D01*
X93228Y388716D01*
X93122Y388647D01*
X93012Y388586D01*
X92965Y388546D01*
X92935Y388527D01*
X92902Y388492D01*
X92826Y388427D01*
X90234Y385835D01*
X74866Y385835D01*
X72274Y388427D01*
X72175Y388506D01*
X72082Y388590D01*
X72039Y388614D01*
X72001Y388644D01*
X71887Y388698D01*
X71777Y388759D01*
X71730Y388772D01*
X71686Y388793D01*
X71563Y388819D01*
X71441Y388854D01*
X71380Y388859D01*
X71346Y388866D01*
X71298Y388865D01*
X71197Y388873D01*
X68178Y388873D01*
X68052Y388859D01*
X67926Y388852D01*
X67879Y388839D01*
X67831Y388833D01*
X67712Y388791D01*
X67591Y388756D01*
X67549Y388732D01*
X67503Y388716D01*
X67397Y388647D01*
X67287Y388586D01*
X67241Y388546D01*
X67210Y388527D01*
X67177Y388492D01*
X67100Y388427D01*
X67009Y388335D01*
X53437Y388335D01*
X53311Y388321D01*
X53185Y388314D01*
X53139Y388301D01*
X53091Y388295D01*
X52972Y388253D01*
X52850Y388218D01*
X52808Y388194D01*
X52763Y388178D01*
X52656Y388109D01*
X52546Y388048D01*
X52500Y388008D01*
X52470Y387989D01*
X52436Y387954D01*
X52360Y387889D01*
X40198Y375727D01*
X40119Y375628D01*
X40035Y375534D01*
X40011Y375492D01*
X39981Y375454D01*
X39927Y375340D01*
X39866Y375229D01*
X39853Y375183D01*
X39832Y375139D01*
X39806Y375016D01*
X39771Y374894D01*
X39767Y374833D01*
X39759Y374798D01*
X39760Y374750D01*
X39752Y374650D01*
X39752Y359406D01*
X33848Y353502D01*
X33769Y353403D01*
X33685Y353309D01*
X33661Y353267D01*
X33631Y353229D01*
X33577Y353115D01*
X33516Y353004D01*
X33503Y352958D01*
X33482Y352914D01*
X33456Y352791D01*
X33421Y352669D01*
X33417Y352608D01*
X33409Y352573D01*
X33410Y352525D01*
X33402Y352425D01*
X33402Y342900D01*
X33405Y342874D01*
X33403Y342848D01*
X33425Y342701D01*
X33442Y342554D01*
X33450Y342529D01*
X33454Y342503D01*
X33509Y342365D01*
X33559Y342226D01*
X33573Y342204D01*
X33583Y342179D01*
X33668Y342058D01*
X33748Y341933D01*
X33767Y341915D01*
X33782Y341893D01*
X33892Y341794D01*
X33999Y341691D01*
X34021Y341677D01*
X34041Y341660D01*
X34171Y341588D01*
X34298Y341512D01*
X34323Y341504D01*
X34346Y341491D01*
X34489Y341451D01*
X34630Y341406D01*
X34656Y341404D01*
X34681Y341396D01*
X34925Y341377D01*
X47625Y341377D01*
X47751Y341391D01*
G37*
G36*
X22351Y331866D02*
X22351Y331866D01*
X22477Y331873D01*
X22523Y331886D01*
X22571Y331892D01*
X22690Y331934D01*
X22812Y331969D01*
X22854Y331993D01*
X22899Y332009D01*
X23006Y332078D01*
X23116Y332139D01*
X23162Y332179D01*
X23192Y332198D01*
X23226Y332233D01*
X23302Y332298D01*
X26477Y335473D01*
X26556Y335572D01*
X26640Y335666D01*
X26664Y335708D01*
X26694Y335746D01*
X26748Y335860D01*
X26809Y335971D01*
X26822Y336017D01*
X26843Y336061D01*
X26869Y336184D01*
X26904Y336306D01*
X26909Y336367D01*
X26916Y336402D01*
X26915Y336450D01*
X26923Y336550D01*
X26923Y354969D01*
X36002Y364048D01*
X36081Y364147D01*
X36165Y364241D01*
X36189Y364283D01*
X36219Y364321D01*
X36273Y364435D01*
X36334Y364546D01*
X36347Y364592D01*
X36368Y364636D01*
X36394Y364759D01*
X36429Y364881D01*
X36434Y364942D01*
X36441Y364977D01*
X36440Y365025D01*
X36448Y365125D01*
X36448Y374650D01*
X36445Y374676D01*
X36447Y374702D01*
X36425Y374849D01*
X36408Y374996D01*
X36400Y375021D01*
X36396Y375047D01*
X36341Y375185D01*
X36291Y375324D01*
X36277Y375346D01*
X36267Y375371D01*
X36182Y375492D01*
X36102Y375617D01*
X36083Y375635D01*
X36068Y375657D01*
X35958Y375756D01*
X35851Y375859D01*
X35829Y375873D01*
X35809Y375890D01*
X35679Y375962D01*
X35552Y376038D01*
X35527Y376046D01*
X35504Y376059D01*
X35361Y376099D01*
X35220Y376144D01*
X35194Y376146D01*
X35169Y376154D01*
X34925Y376173D01*
X12700Y376173D01*
X12674Y376170D01*
X12648Y376172D01*
X12501Y376150D01*
X12354Y376133D01*
X12329Y376125D01*
X12303Y376121D01*
X12165Y376066D01*
X12026Y376016D01*
X12004Y376002D01*
X11979Y375992D01*
X11858Y375907D01*
X11733Y375827D01*
X11715Y375808D01*
X11693Y375793D01*
X11594Y375683D01*
X11491Y375576D01*
X11477Y375554D01*
X11460Y375534D01*
X11388Y375404D01*
X11312Y375277D01*
X11304Y375252D01*
X11291Y375229D01*
X11251Y375086D01*
X11206Y374945D01*
X11204Y374919D01*
X11196Y374894D01*
X11177Y374650D01*
X11177Y333375D01*
X11180Y333349D01*
X11178Y333323D01*
X11200Y333176D01*
X11217Y333029D01*
X11225Y333004D01*
X11229Y332978D01*
X11284Y332840D01*
X11334Y332701D01*
X11348Y332679D01*
X11358Y332654D01*
X11443Y332533D01*
X11523Y332408D01*
X11542Y332390D01*
X11557Y332368D01*
X11667Y332269D01*
X11774Y332166D01*
X11796Y332152D01*
X11816Y332135D01*
X11946Y332063D01*
X12073Y331987D01*
X12098Y331979D01*
X12121Y331966D01*
X12264Y331926D01*
X12405Y331881D01*
X12431Y331879D01*
X12456Y331871D01*
X12700Y331852D01*
X22225Y331852D01*
X22351Y331866D01*
G37*
G36*
X419126Y131830D02*
X419126Y131830D01*
X419152Y131828D01*
X419299Y131850D01*
X419446Y131867D01*
X419471Y131875D01*
X419497Y131879D01*
X419635Y131934D01*
X419774Y131984D01*
X419796Y131998D01*
X419821Y132008D01*
X419942Y132093D01*
X420067Y132173D01*
X420085Y132192D01*
X420107Y132207D01*
X420206Y132317D01*
X420309Y132424D01*
X420323Y132446D01*
X420340Y132466D01*
X420412Y132596D01*
X420488Y132723D01*
X420496Y132748D01*
X420509Y132771D01*
X420549Y132914D01*
X420594Y133055D01*
X420596Y133081D01*
X420604Y133106D01*
X420623Y133350D01*
X420623Y165100D01*
X420620Y165126D01*
X420622Y165152D01*
X420600Y165299D01*
X420583Y165446D01*
X420575Y165471D01*
X420571Y165497D01*
X420516Y165635D01*
X420466Y165774D01*
X420452Y165796D01*
X420442Y165821D01*
X420357Y165942D01*
X420277Y166067D01*
X420258Y166085D01*
X420243Y166107D01*
X420133Y166206D01*
X420026Y166309D01*
X420004Y166323D01*
X419984Y166340D01*
X419854Y166412D01*
X419727Y166488D01*
X419702Y166496D01*
X419679Y166509D01*
X419536Y166549D01*
X419395Y166594D01*
X419369Y166596D01*
X419344Y166604D01*
X419100Y166623D01*
X403856Y166623D01*
X401127Y169352D01*
X401049Y169414D01*
X400976Y169484D01*
X400912Y169523D01*
X400854Y169569D01*
X400763Y169612D01*
X400677Y169663D01*
X400606Y169686D01*
X400539Y169718D01*
X400441Y169739D01*
X400345Y169769D01*
X400271Y169775D01*
X400198Y169791D01*
X400098Y169789D01*
X399998Y169797D01*
X399924Y169786D01*
X399850Y169785D01*
X399753Y169761D01*
X399653Y169746D01*
X399584Y169718D01*
X399512Y169700D01*
X399422Y169654D01*
X399329Y169617D01*
X399268Y169575D01*
X399202Y169540D01*
X399125Y169475D01*
X399043Y169418D01*
X398993Y169363D01*
X398937Y169315D01*
X398877Y169234D01*
X398810Y169159D01*
X398774Y169094D01*
X398729Y169034D01*
X398690Y168942D01*
X398641Y168854D01*
X398621Y168783D01*
X398591Y168714D01*
X398574Y168616D01*
X398546Y168519D01*
X398538Y168419D01*
X398530Y168371D01*
X398532Y168336D01*
X398527Y168275D01*
X398527Y133350D01*
X398530Y133324D01*
X398528Y133298D01*
X398550Y133151D01*
X398567Y133004D01*
X398575Y132979D01*
X398579Y132953D01*
X398634Y132815D01*
X398684Y132676D01*
X398698Y132654D01*
X398708Y132629D01*
X398793Y132508D01*
X398873Y132383D01*
X398892Y132365D01*
X398907Y132343D01*
X399017Y132244D01*
X399124Y132141D01*
X399146Y132127D01*
X399166Y132110D01*
X399296Y132038D01*
X399423Y131962D01*
X399448Y131954D01*
X399471Y131941D01*
X399614Y131901D01*
X399755Y131856D01*
X399781Y131854D01*
X399806Y131846D01*
X400050Y131827D01*
X419100Y131827D01*
X419126Y131830D01*
G37*
G36*
X428751Y392191D02*
X428751Y392191D01*
X428877Y392198D01*
X428923Y392211D01*
X428971Y392217D01*
X429090Y392259D01*
X429212Y392294D01*
X429254Y392318D01*
X429299Y392334D01*
X429406Y392403D01*
X429516Y392464D01*
X429562Y392504D01*
X429592Y392523D01*
X429626Y392558D01*
X429702Y392623D01*
X432413Y395333D01*
X432429Y395354D01*
X432449Y395371D01*
X432537Y395491D01*
X432629Y395606D01*
X432640Y395630D01*
X432656Y395651D01*
X432715Y395787D01*
X432778Y395922D01*
X432784Y395947D01*
X432794Y395971D01*
X432820Y396118D01*
X432852Y396262D01*
X432851Y396288D01*
X432856Y396314D01*
X432848Y396463D01*
X432846Y396611D01*
X432839Y396636D01*
X432838Y396662D01*
X432797Y396805D01*
X432761Y396949D01*
X432749Y396972D01*
X432741Y396997D01*
X432669Y397127D01*
X432601Y397259D01*
X432584Y397279D01*
X432571Y397301D01*
X432413Y397488D01*
X431042Y398858D01*
X431042Y415031D01*
X431040Y415055D01*
X431041Y415078D01*
X431027Y415174D01*
X431021Y415283D01*
X431008Y415329D01*
X431002Y415377D01*
X430992Y415406D01*
X430990Y415422D01*
X430958Y415501D01*
X430925Y415618D01*
X430901Y415660D01*
X430885Y415705D01*
X430865Y415736D01*
X430861Y415746D01*
X430826Y415796D01*
X430816Y415812D01*
X430755Y415922D01*
X430715Y415968D01*
X430696Y415998D01*
X430665Y416028D01*
X430662Y416032D01*
X430656Y416038D01*
X430596Y416108D01*
X426527Y420177D01*
X426428Y420256D01*
X426334Y420340D01*
X426292Y420364D01*
X426254Y420394D01*
X426140Y420448D01*
X426029Y420509D01*
X425983Y420522D01*
X425939Y420543D01*
X425816Y420569D01*
X425694Y420604D01*
X425633Y420609D01*
X425598Y420616D01*
X425550Y420615D01*
X425450Y420623D01*
X419934Y420623D01*
X419809Y420609D01*
X419682Y420602D01*
X419636Y420589D01*
X419588Y420583D01*
X419469Y420541D01*
X419347Y420506D01*
X419305Y420482D01*
X419260Y420466D01*
X419154Y420397D01*
X419043Y420336D01*
X418997Y420296D01*
X418967Y420277D01*
X418934Y420242D01*
X418857Y420177D01*
X414848Y416168D01*
X414769Y416069D01*
X414685Y415975D01*
X414661Y415933D01*
X414631Y415895D01*
X414577Y415781D01*
X414516Y415670D01*
X414503Y415623D01*
X414482Y415580D01*
X414456Y415456D01*
X414421Y415335D01*
X414417Y415274D01*
X414409Y415239D01*
X414410Y415191D01*
X414402Y415091D01*
X414402Y407031D01*
X408944Y401573D01*
X390525Y401573D01*
X390499Y401570D01*
X390473Y401572D01*
X390326Y401550D01*
X390179Y401533D01*
X390154Y401525D01*
X390128Y401521D01*
X389990Y401466D01*
X389851Y401416D01*
X389829Y401402D01*
X389804Y401392D01*
X389683Y401307D01*
X389558Y401227D01*
X389540Y401208D01*
X389518Y401193D01*
X389419Y401083D01*
X389316Y400976D01*
X389302Y400954D01*
X389285Y400934D01*
X389213Y400804D01*
X389137Y400677D01*
X389129Y400652D01*
X389116Y400629D01*
X389076Y400486D01*
X389031Y400345D01*
X389029Y400319D01*
X389021Y400294D01*
X389002Y400050D01*
X389002Y393700D01*
X389005Y393674D01*
X389003Y393648D01*
X389025Y393501D01*
X389042Y393354D01*
X389050Y393329D01*
X389054Y393303D01*
X389109Y393165D01*
X389159Y393026D01*
X389173Y393004D01*
X389183Y392979D01*
X389268Y392858D01*
X389348Y392733D01*
X389367Y392715D01*
X389382Y392693D01*
X389492Y392594D01*
X389599Y392491D01*
X389621Y392477D01*
X389641Y392460D01*
X389771Y392388D01*
X389898Y392312D01*
X389923Y392304D01*
X389946Y392291D01*
X390089Y392251D01*
X390230Y392206D01*
X390256Y392204D01*
X390281Y392196D01*
X390525Y392177D01*
X428625Y392177D01*
X428751Y392191D01*
G37*
G36*
X61004Y309121D02*
X61004Y309121D01*
X61031Y309119D01*
X61205Y309141D01*
X61369Y309158D01*
X74031Y309158D01*
X74039Y309155D01*
X74066Y309153D01*
X74092Y309146D01*
X74422Y309119D01*
X76200Y309119D01*
X76218Y309121D01*
X76236Y309119D01*
X76418Y309140D01*
X76601Y309159D01*
X76618Y309164D01*
X76635Y309166D01*
X76810Y309223D01*
X76986Y309277D01*
X77001Y309285D01*
X77018Y309291D01*
X77178Y309381D01*
X77340Y309469D01*
X77353Y309480D01*
X77369Y309489D01*
X77508Y309609D01*
X77649Y309726D01*
X77660Y309740D01*
X77674Y309752D01*
X77786Y309897D01*
X77901Y310040D01*
X77909Y310056D01*
X77920Y310070D01*
X78002Y310235D01*
X78087Y310397D01*
X78092Y310414D01*
X78100Y310431D01*
X78147Y310609D01*
X78198Y310784D01*
X78200Y310802D01*
X78204Y310819D01*
X78231Y311150D01*
X78231Y330200D01*
X78229Y330218D01*
X78231Y330236D01*
X78210Y330418D01*
X78191Y330601D01*
X78186Y330618D01*
X78184Y330635D01*
X78127Y330810D01*
X78073Y330986D01*
X78065Y331001D01*
X78059Y331018D01*
X77969Y331178D01*
X77881Y331340D01*
X77870Y331353D01*
X77861Y331369D01*
X77741Y331508D01*
X77624Y331649D01*
X77610Y331660D01*
X77598Y331674D01*
X77453Y331786D01*
X77310Y331901D01*
X77294Y331909D01*
X77280Y331920D01*
X77115Y332002D01*
X76953Y332087D01*
X76936Y332092D01*
X76920Y332100D01*
X76741Y332147D01*
X76566Y332198D01*
X76548Y332200D01*
X76531Y332204D01*
X76200Y332231D01*
X57150Y332231D01*
X57132Y332229D01*
X57114Y332231D01*
X56932Y332210D01*
X56749Y332191D01*
X56732Y332186D01*
X56715Y332184D01*
X56540Y332127D01*
X56364Y332073D01*
X56349Y332065D01*
X56332Y332059D01*
X56172Y331969D01*
X56010Y331881D01*
X55997Y331870D01*
X55981Y331861D01*
X55842Y331741D01*
X55701Y331624D01*
X55690Y331610D01*
X55677Y331598D01*
X55564Y331453D01*
X55449Y331310D01*
X55441Y331294D01*
X55430Y331280D01*
X55348Y331115D01*
X55263Y330953D01*
X55258Y330936D01*
X55250Y330920D01*
X55203Y330741D01*
X55152Y330566D01*
X55150Y330548D01*
X55146Y330531D01*
X55119Y330200D01*
X55119Y311150D01*
X55121Y311132D01*
X55119Y311114D01*
X55140Y310932D01*
X55159Y310749D01*
X55164Y310732D01*
X55166Y310715D01*
X55223Y310540D01*
X55277Y310364D01*
X55285Y310349D01*
X55291Y310332D01*
X55381Y310172D01*
X55469Y310010D01*
X55480Y309997D01*
X55489Y309981D01*
X55609Y309842D01*
X55726Y309701D01*
X55740Y309690D01*
X55752Y309677D01*
X55897Y309564D01*
X56040Y309449D01*
X56056Y309441D01*
X56070Y309430D01*
X56235Y309348D01*
X56397Y309263D01*
X56414Y309258D01*
X56431Y309250D01*
X56609Y309203D01*
X56784Y309152D01*
X56802Y309150D01*
X56819Y309146D01*
X57150Y309119D01*
X60978Y309119D01*
X61004Y309121D01*
G37*
D10*
X53900Y282875D03*
X53900Y276375D03*
X53900Y269875D03*
X53900Y263375D03*
X53900Y256875D03*
D11*
X25400Y281375D03*
X25400Y258375D03*
D12*
X25400Y307375D03*
X25400Y232375D03*
D13*
G36*
X301759Y298472D02*
X312364Y309077D01*
X314485Y306956D01*
X303880Y296351D01*
X301759Y298472D01*
G37*
G36*
X298223Y302007D02*
X308828Y312612D01*
X310949Y310491D01*
X300344Y299886D01*
X298223Y302007D01*
G37*
G36*
X294688Y305543D02*
X305293Y316148D01*
X307414Y314027D01*
X296809Y303422D01*
X294688Y305543D01*
G37*
G36*
X291152Y309078D02*
X301757Y319683D01*
X303878Y317562D01*
X293273Y306957D01*
X291152Y309078D01*
G37*
G36*
X287616Y312614D02*
X298221Y323219D01*
X300342Y321098D01*
X289737Y310493D01*
X287616Y312614D01*
G37*
G36*
X284081Y316149D02*
X294686Y326754D01*
X296807Y324633D01*
X286202Y314028D01*
X284081Y316149D01*
G37*
G36*
X280545Y319685D02*
X291150Y330290D01*
X293271Y328169D01*
X282666Y317564D01*
X280545Y319685D01*
G37*
G36*
X277010Y323220D02*
X287615Y333825D01*
X289736Y331704D01*
X279131Y321099D01*
X277010Y323220D01*
G37*
G36*
X273474Y326756D02*
X284079Y337361D01*
X286200Y335240D01*
X275595Y324635D01*
X273474Y326756D01*
G37*
G36*
X269939Y330291D02*
X280544Y340896D01*
X282665Y338775D01*
X272060Y328170D01*
X269939Y330291D01*
G37*
G36*
X266403Y333827D02*
X277008Y344432D01*
X279129Y342311D01*
X268524Y331706D01*
X266403Y333827D01*
G37*
G36*
X262868Y337362D02*
X273473Y347967D01*
X275594Y345846D01*
X264989Y335241D01*
X262868Y337362D01*
G37*
G36*
X259332Y340898D02*
X269937Y351503D01*
X272058Y349382D01*
X261453Y338777D01*
X259332Y340898D01*
G37*
G36*
X255797Y344434D02*
X266402Y355039D01*
X268523Y352918D01*
X257918Y342313D01*
X255797Y344434D01*
G37*
G36*
X252261Y347969D02*
X262866Y358574D01*
X264987Y356453D01*
X254382Y345848D01*
X252261Y347969D01*
G37*
G36*
X248726Y351505D02*
X259331Y362110D01*
X261452Y359989D01*
X250847Y349384D01*
X248726Y351505D01*
G37*
G36*
X231753Y349384D02*
X221148Y359989D01*
X223269Y362110D01*
X233874Y351505D01*
X231753Y349384D01*
G37*
G36*
X228218Y345848D02*
X217613Y356453D01*
X219734Y358574D01*
X230339Y347969D01*
X228218Y345848D01*
G37*
G36*
X224682Y342313D02*
X214077Y352918D01*
X216198Y355039D01*
X226803Y344434D01*
X224682Y342313D01*
G37*
G36*
X221147Y338777D02*
X210542Y349382D01*
X212663Y351503D01*
X223268Y340898D01*
X221147Y338777D01*
G37*
G36*
X217611Y335241D02*
X207006Y345846D01*
X209127Y347967D01*
X219732Y337362D01*
X217611Y335241D01*
G37*
G36*
X214076Y331706D02*
X203471Y342311D01*
X205592Y344432D01*
X216197Y333827D01*
X214076Y331706D01*
G37*
G36*
X210540Y328170D02*
X199935Y338775D01*
X202056Y340896D01*
X212661Y330291D01*
X210540Y328170D01*
G37*
G36*
X207005Y324635D02*
X196400Y335240D01*
X198521Y337361D01*
X209126Y326756D01*
X207005Y324635D01*
G37*
G36*
X203469Y321099D02*
X192864Y331704D01*
X194985Y333825D01*
X205590Y323220D01*
X203469Y321099D01*
G37*
G36*
X199934Y317564D02*
X189329Y328169D01*
X191450Y330290D01*
X202055Y319685D01*
X199934Y317564D01*
G37*
G36*
X196398Y314028D02*
X185793Y324633D01*
X187914Y326754D01*
X198519Y316149D01*
X196398Y314028D01*
G37*
G36*
X192863Y310493D02*
X182258Y321098D01*
X184379Y323219D01*
X194984Y312614D01*
X192863Y310493D01*
G37*
G36*
X189327Y306957D02*
X178722Y317562D01*
X180843Y319683D01*
X191448Y309078D01*
X189327Y306957D01*
G37*
G36*
X185791Y303422D02*
X175186Y314027D01*
X177307Y316148D01*
X187912Y305543D01*
X185791Y303422D01*
G37*
G36*
X182256Y299886D02*
X171651Y310491D01*
X173772Y312612D01*
X184377Y302007D01*
X182256Y299886D01*
G37*
G36*
X178720Y296351D02*
X168115Y306956D01*
X170236Y309077D01*
X180841Y298472D01*
X178720Y296351D01*
G37*
G36*
X180841Y279378D02*
X170236Y268773D01*
X168115Y270894D01*
X178720Y281499D01*
X180841Y279378D01*
G37*
G36*
X184377Y275843D02*
X173772Y265238D01*
X171651Y267359D01*
X182256Y277964D01*
X184377Y275843D01*
G37*
G36*
X187912Y272307D02*
X177307Y261702D01*
X175186Y263823D01*
X185791Y274428D01*
X187912Y272307D01*
G37*
G36*
X191448Y268772D02*
X180843Y258167D01*
X178722Y260288D01*
X189327Y270893D01*
X191448Y268772D01*
G37*
G36*
X194984Y265236D02*
X184379Y254631D01*
X182258Y256752D01*
X192863Y267357D01*
X194984Y265236D01*
G37*
G36*
X198519Y261701D02*
X187914Y251096D01*
X185793Y253217D01*
X196398Y263822D01*
X198519Y261701D01*
G37*
G36*
X202055Y258165D02*
X191450Y247560D01*
X189329Y249681D01*
X199934Y260286D01*
X202055Y258165D01*
G37*
G36*
X205590Y254630D02*
X194985Y244025D01*
X192864Y246146D01*
X203469Y256751D01*
X205590Y254630D01*
G37*
G36*
X209126Y251094D02*
X198521Y240489D01*
X196400Y242610D01*
X207005Y253215D01*
X209126Y251094D01*
G37*
G36*
X212661Y247559D02*
X202056Y236954D01*
X199935Y239075D01*
X210540Y249680D01*
X212661Y247559D01*
G37*
G36*
X216197Y244023D02*
X205592Y233418D01*
X203471Y235539D01*
X214076Y246144D01*
X216197Y244023D01*
G37*
G36*
X219732Y240488D02*
X209127Y229883D01*
X207006Y232004D01*
X217611Y242609D01*
X219732Y240488D01*
G37*
G36*
X223268Y236952D02*
X212663Y226347D01*
X210542Y228468D01*
X221147Y239073D01*
X223268Y236952D01*
G37*
G36*
X226803Y233416D02*
X216198Y222811D01*
X214077Y224932D01*
X224682Y235537D01*
X226803Y233416D01*
G37*
G36*
X230339Y229881D02*
X219734Y219276D01*
X217613Y221397D01*
X228218Y232002D01*
X230339Y229881D01*
G37*
G36*
X233874Y226345D02*
X223269Y215740D01*
X221148Y217861D01*
X231753Y228466D01*
X233874Y226345D01*
G37*
G36*
X250847Y228466D02*
X261452Y217861D01*
X259331Y215740D01*
X248726Y226345D01*
X250847Y228466D01*
G37*
G36*
X254382Y232002D02*
X264987Y221397D01*
X262866Y219276D01*
X252261Y229881D01*
X254382Y232002D01*
G37*
G36*
X257918Y235537D02*
X268523Y224932D01*
X266402Y222811D01*
X255797Y233416D01*
X257918Y235537D01*
G37*
G36*
X261453Y239073D02*
X272058Y228468D01*
X269937Y226347D01*
X259332Y236952D01*
X261453Y239073D01*
G37*
G36*
X264989Y242609D02*
X275594Y232004D01*
X273473Y229883D01*
X262868Y240488D01*
X264989Y242609D01*
G37*
G36*
X268524Y246144D02*
X279129Y235539D01*
X277008Y233418D01*
X266403Y244023D01*
X268524Y246144D01*
G37*
G36*
X272060Y249680D02*
X282665Y239075D01*
X280544Y236954D01*
X269939Y247559D01*
X272060Y249680D01*
G37*
G36*
X275595Y253215D02*
X286200Y242610D01*
X284079Y240489D01*
X273474Y251094D01*
X275595Y253215D01*
G37*
G36*
X279131Y256751D02*
X289736Y246146D01*
X287615Y244025D01*
X277010Y254630D01*
X279131Y256751D01*
G37*
G36*
X282666Y260286D02*
X293271Y249681D01*
X291150Y247560D01*
X280545Y258165D01*
X282666Y260286D01*
G37*
G36*
X286202Y263822D02*
X296807Y253217D01*
X294686Y251096D01*
X284081Y261701D01*
X286202Y263822D01*
G37*
G36*
X289737Y267357D02*
X300342Y256752D01*
X298221Y254631D01*
X287616Y265236D01*
X289737Y267357D01*
G37*
G36*
X293273Y270893D02*
X303878Y260288D01*
X301757Y258167D01*
X291152Y268772D01*
X293273Y270893D01*
G37*
G36*
X296809Y274428D02*
X307414Y263823D01*
X305293Y261702D01*
X294688Y272307D01*
X296809Y274428D01*
G37*
G36*
X300344Y277964D02*
X310949Y267359D01*
X308828Y265238D01*
X298223Y275843D01*
X300344Y277964D01*
G37*
G36*
X303880Y281499D02*
X314485Y270894D01*
X312364Y268773D01*
X301759Y279378D01*
X303880Y281499D01*
G37*
D14*
X76200Y204225D03*
X76200Y221225D03*
X50800Y204225D03*
X50800Y221225D03*
D15*
X101600Y381800D03*
X111100Y354800D03*
X92100Y354800D03*
D16*
X38375Y330050D03*
X38375Y343050D03*
X18775Y336550D03*
D17*
X67700Y301625D03*
X84700Y301625D03*
D18*
X25400Y410050D03*
X25400Y390050D03*
D19*
G36*
X373617Y318560D02*
X380688Y311489D01*
X367961Y298762D01*
X360890Y305833D01*
X373617Y318560D01*
G37*
G36*
X355939Y336238D02*
X363010Y329167D01*
X350283Y316440D01*
X343212Y323511D01*
X355939Y336238D01*
G37*
D14*
G36*
X391939Y324543D02*
X384162Y316766D01*
X377091Y323837D01*
X384868Y331614D01*
X391939Y324543D01*
G37*
G36*
X403959Y336563D02*
X396182Y328786D01*
X389111Y335857D01*
X396888Y343634D01*
X403959Y336563D01*
G37*
G36*
X376064Y340418D02*
X368287Y332641D01*
X361216Y339712D01*
X368993Y347489D01*
X376064Y340418D01*
G37*
G36*
X388084Y352438D02*
X380307Y344661D01*
X373236Y351732D01*
X381013Y359509D01*
X388084Y352438D01*
G37*
X101600Y113275D03*
X101600Y96275D03*
X333375Y176775D03*
X333375Y159775D03*
D20*
X121285Y136525D03*
X177165Y136525D03*
X121285Y98425D03*
X177165Y98425D03*
X259715Y98425D03*
X203835Y98425D03*
X259715Y136525D03*
X203835Y136525D03*
D17*
X101600Y128025D03*
X101600Y145025D03*
D21*
G36*
X327719Y340765D02*
X324890Y343594D01*
X339031Y357735D01*
X341860Y354906D01*
X327719Y340765D01*
G37*
G36*
X319234Y349250D02*
X316405Y352079D01*
X330546Y366220D01*
X333375Y363391D01*
X319234Y349250D01*
G37*
G36*
X336204Y332280D02*
X333375Y335109D01*
X347516Y349250D01*
X350345Y346421D01*
X336204Y332280D01*
G37*
D14*
G36*
X363364Y356293D02*
X355587Y348516D01*
X348516Y355587D01*
X356293Y363364D01*
X363364Y356293D01*
G37*
G36*
X375384Y368313D02*
X367607Y360536D01*
X360536Y367607D01*
X368313Y375384D01*
X375384Y368313D01*
G37*
G36*
X347489Y372168D02*
X339712Y364391D01*
X332641Y371462D01*
X340418Y379239D01*
X347489Y372168D01*
G37*
G36*
X359509Y384188D02*
X351732Y376411D01*
X344661Y383482D01*
X352438Y391259D01*
X359509Y384188D01*
G37*
X301625Y194700D03*
X301625Y211700D03*
D22*
X285750Y135550D03*
X285750Y156550D03*
D14*
X412750Y118500D03*
X412750Y135500D03*
X412750Y179950D03*
X412750Y162950D03*
D23*
X358775Y72517D03*
X358775Y162433D03*
X384175Y162433D03*
X384175Y72517D03*
D14*
X381000Y199000D03*
X381000Y182000D03*
X358775Y199000D03*
X358775Y182000D03*
D24*
X72475Y91675D03*
X72475Y102675D03*
X72475Y113675D03*
X72475Y124675D03*
X72475Y135675D03*
X72475Y146675D03*
X72475Y157675D03*
X72475Y168675D03*
D25*
X47675Y180175D03*
D26*
X55225Y75425D03*
D15*
X42725Y73175D03*
D27*
X32975Y82425D03*
D28*
X274750Y61450D03*
X285750Y61450D03*
X296750Y61450D03*
X296750Y90950D03*
X285750Y90950D03*
X274750Y90950D03*
D17*
X312175Y69850D03*
X329175Y69850D03*
X312175Y92075D03*
X329175Y92075D03*
D14*
X304800Y108975D03*
X304800Y125975D03*
D29*
X47625Y454025D03*
X73025Y454025D03*
X98425Y454025D03*
X123825Y454025D03*
X149225Y454025D03*
X174625Y454025D03*
X200025Y454025D03*
X225425Y454025D03*
X250825Y454025D03*
X276225Y454025D03*
X301625Y454025D03*
X327025Y454025D03*
X352425Y454025D03*
X377825Y454025D03*
X403225Y454025D03*
X428625Y454025D03*
X47625Y22225D03*
X73025Y22225D03*
X98425Y22225D03*
X123825Y22225D03*
X149225Y22225D03*
X174625Y22225D03*
X200025Y22225D03*
X225425Y22225D03*
X250825Y22225D03*
X276225Y22225D03*
X301625Y22225D03*
X327025Y22225D03*
X352425Y22225D03*
X377825Y22225D03*
X403225Y22225D03*
X428625Y22225D03*
X428625Y352425D03*
X454025Y352425D03*
X428625Y327025D03*
X454025Y327025D03*
X428625Y301625D03*
X454025Y301625D03*
X428625Y276225D03*
X454025Y276225D03*
X428625Y250825D03*
X454025Y250825D03*
D14*
G36*
X211311Y205682D02*
X219088Y213459D01*
X226159Y206388D01*
X218382Y198611D01*
X211311Y205682D01*
G37*
G36*
X199291Y193662D02*
X207068Y201439D01*
X214139Y194368D01*
X206362Y186591D01*
X199291Y193662D01*
G37*
X347100Y273050D03*
X364100Y273050D03*
X201050Y384175D03*
X218050Y384175D03*
D17*
X107950Y289950D03*
X107950Y306950D03*
D14*
X122800Y323850D03*
X105800Y323850D03*
D17*
X60325Y414900D03*
X60325Y397900D03*
D29*
X454025Y127000D03*
X454025Y152400D03*
X454025Y177800D03*
X454025Y203200D03*
D30*
X66675Y371575D03*
X66675Y320575D03*
D17*
X396875Y395850D03*
X396875Y378850D03*
X419100Y395850D03*
X419100Y378850D03*
D31*
X441325Y406700D03*
X441325Y380700D03*
D32*
X441575Y380700D03*
X441575Y406700D03*
D14*
X133350Y386325D03*
X133350Y369325D03*
D22*
X82550Y395900D03*
X82550Y416900D03*
D14*
X270900Y117475D03*
X287900Y117475D03*
D33*
X98425Y276200D03*
X98425Y266700D03*
X98425Y257200D03*
X75425Y276200D03*
X75425Y266700D03*
X75425Y257200D03*
D34*
X75250Y276375D02*
X53900Y276375D01*
X75250Y276375D02*
X75425Y276200D01*
X64964Y267058D02*
X64964Y262111D01*
X64964Y267058D02*
X62147Y269875D01*
X64964Y262111D02*
X69875Y257200D01*
X62147Y269875D02*
X53900Y269875D01*
X69875Y257200D02*
X75425Y257200D01*
X66975Y282875D02*
X53900Y282875D01*
X66975Y282875D02*
X69850Y285750D01*
D35*
X43650Y330050D02*
X38375Y330050D01*
X43650Y330050D02*
X50800Y322900D01*
D34*
X83079Y285750D02*
X88156Y280673D01*
X83079Y285750D02*
X69850Y285750D01*
X88156Y280673D02*
X88156Y270619D01*
X92075Y266700D01*
D36*
X84700Y284129D02*
X84700Y301625D01*
X84700Y284129D02*
X88156Y280673D01*
X84700Y301625D02*
X84700Y302650D01*
X63500Y323850D01*
D35*
X59375Y322900D02*
X50800Y322900D01*
X59375Y322900D02*
X60325Y323850D01*
X63500Y323850D01*
D34*
X92075Y266700D02*
X98425Y266700D01*
X53900Y256875D02*
X26900Y256875D01*
X25400Y258375D01*
X25400Y281375D02*
X25400Y307375D01*
X25400Y281375D02*
X25400Y258375D01*
X25400Y232375D01*
D36*
X118110Y136525D02*
X121285Y136525D01*
X118110Y136525D02*
X109610Y145025D01*
X101600Y145025D01*
X333375Y349250D02*
X358775Y374650D01*
X352085Y381340D01*
X352085Y383835D01*
X365465Y367960D02*
X367960Y367960D01*
X365465Y367960D02*
X358775Y374650D01*
X380660Y355260D02*
X380660Y352085D01*
X380660Y355260D02*
X367960Y367960D01*
X380660Y352085D02*
X396535Y336210D01*
X381000Y199000D02*
X368300Y199000D01*
X358775Y199000D01*
X101600Y145025D02*
X99950Y146675D01*
X72475Y146675D01*
X188988Y295275D02*
X178014Y306249D01*
X188988Y295275D02*
X190500Y295275D01*
X234950Y339725D01*
X234950Y341237D01*
X223976Y352211D01*
X295275Y280912D02*
X304586Y271601D01*
X295275Y280912D02*
X295275Y282575D01*
X293688Y284163D01*
X288925Y288925D01*
X285750Y61450D02*
X274750Y61450D01*
X285750Y61450D02*
X296750Y61450D01*
X52975Y73175D02*
X42725Y73175D01*
X52975Y73175D02*
X55225Y75425D01*
X178014Y306249D02*
X169938Y314325D01*
X95250Y365125D02*
X92075Y361950D01*
X92075Y354825D02*
X92100Y354800D01*
X92075Y354825D02*
X92075Y361950D01*
D34*
X269875Y61450D02*
X274750Y61450D01*
X269875Y61450D02*
X260350Y70975D01*
X260350Y97790D01*
D36*
X206715Y194015D02*
X203200Y197529D01*
X203200Y204863D02*
X223976Y225639D01*
X203200Y204863D02*
X203200Y197529D01*
X304586Y271601D02*
X312662Y263525D01*
X103505Y365125D02*
X95250Y365125D01*
X161925Y314325D02*
X169938Y314325D01*
X259715Y98425D02*
X263525Y98425D01*
X374310Y358435D02*
X385763Y369888D01*
X374310Y358435D02*
X380660Y352085D01*
X72475Y146675D02*
X53350Y146675D01*
X38100Y161925D01*
X38100Y180975D01*
X47675Y180175D02*
X23025Y180175D01*
X22225Y229200D02*
X25400Y232375D01*
X293688Y282499D02*
X295275Y280912D01*
X293688Y282499D02*
X293688Y284163D01*
X23025Y180175D02*
X17145Y186055D01*
X17145Y196850D02*
X17145Y203200D01*
X17145Y196850D02*
X17145Y186055D01*
X17145Y203200D02*
X22225Y208280D01*
X22225Y229200D01*
X25400Y307375D02*
X45050Y307375D01*
X50800Y301625D01*
X67700Y301625D01*
X107950Y306950D02*
X107950Y320675D01*
X106363Y322263D01*
X296750Y61450D02*
X301050Y57150D01*
X412750Y57150D01*
X63975Y66675D02*
X55225Y75425D01*
X72009Y66675D02*
X73025Y67691D01*
D37*
X73025Y67691D03*
D36*
X72009Y66675D02*
X63975Y66675D01*
X47675Y180175D02*
X38900Y180175D01*
X38100Y180975D01*
X107950Y306950D02*
X118500Y306950D01*
X152400Y304800D02*
X161925Y314325D01*
X152400Y304800D02*
X152400Y298450D01*
X50800Y244475D02*
X38100Y231775D01*
X26000Y231775D01*
X25400Y232375D01*
X82550Y244475D02*
X85725Y247650D01*
X82550Y244475D02*
X50800Y244475D01*
X82550Y266700D02*
X85725Y263525D01*
X85725Y247650D01*
X218050Y374650D02*
X218050Y384175D01*
X218050Y374650D02*
X212725Y369325D01*
X212725Y363462D01*
X223976Y352211D01*
X312662Y263525D02*
X339725Y263525D01*
D37*
X361950Y253873D03*
D36*
X365125Y257048D01*
X365125Y272025D02*
X364100Y273050D01*
X365125Y272025D02*
X365125Y257048D01*
X419100Y63500D02*
X412750Y57150D01*
X419100Y63500D02*
X419100Y73025D01*
X260350Y97790D02*
X259715Y98425D01*
D37*
X152400Y298450D03*
D36*
X127000Y298450D02*
X118500Y306950D01*
X127000Y298450D02*
X152400Y298450D01*
D37*
X17145Y196850D03*
D36*
X385763Y369888D02*
X392113Y363538D01*
D37*
X392113Y363538D03*
X381000Y377825D03*
D36*
X371135Y367960D01*
X367960Y367960D01*
X288925Y288925D02*
X257175Y320675D01*
X288925Y288925D02*
X320675Y288925D01*
D37*
X320675Y288925D03*
D36*
X111125Y372745D02*
X103505Y365125D01*
X111125Y372745D02*
X111125Y390525D01*
X106925Y394725D01*
X82550Y394725D01*
X69850Y394725D01*
X66675Y397900D01*
X60325Y397900D01*
D37*
X47625Y431800D03*
D36*
X52950Y397900D02*
X60325Y397900D01*
X52950Y397900D02*
X47625Y403225D01*
X47625Y431800D01*
X218050Y384175D02*
X221225Y381000D01*
X234950Y381000D01*
D37*
X234950Y381000D03*
X419100Y73025D03*
D36*
X368300Y114300D02*
X368300Y199000D01*
X368300Y114300D02*
X400050Y82550D01*
X419100Y79375D02*
X419100Y73025D01*
X419100Y79375D02*
X415925Y82550D01*
X400050Y82550D01*
X396875Y378850D02*
X419100Y378850D01*
X396875Y378850D02*
X394725Y378850D01*
X385763Y369888D01*
X106363Y323288D02*
X105800Y323850D01*
X106363Y323288D02*
X106363Y322263D01*
X349377Y253873D02*
X361950Y253873D01*
X349377Y253873D02*
X339725Y263525D01*
X234950Y236613D02*
X223976Y225639D01*
X234950Y236613D02*
X234950Y238125D01*
X82550Y394725D02*
X82550Y395900D01*
X254651Y327025D02*
X269231Y341604D01*
X254651Y327025D02*
X254000Y327025D01*
X266065Y104775D02*
X259715Y98425D01*
X266065Y104775D02*
X282575Y104775D01*
X287900Y110100D01*
X287900Y117475D01*
X285750Y119625D01*
X285750Y135550D01*
X82550Y266700D02*
X75425Y266700D01*
X76200Y204225D02*
X76200Y197875D01*
X86750Y187325D01*
X136525Y187325D01*
X174299Y197176D02*
X213369Y236246D01*
X174299Y197176D02*
X174299Y174299D01*
X168275Y168275D02*
X155575Y168275D01*
X168275Y168275D02*
X174299Y174299D01*
X155575Y168275D02*
X136525Y187325D01*
X69850Y193675D02*
X53975Y193675D01*
X50800Y196850D02*
X50800Y204225D01*
X50800Y196850D02*
X53975Y193675D01*
X69850Y193675D02*
X82550Y180975D01*
X133350Y180975D01*
X152400Y161925D01*
X181010Y196815D02*
X216905Y232710D01*
X181010Y196815D02*
X181010Y171485D01*
X171450Y161925D01*
X152400Y161925D01*
X111125Y273050D02*
X107975Y276200D01*
X111125Y273050D02*
X111125Y254000D01*
X85725Y228600D02*
X79375Y228600D01*
X76200Y225425D01*
X76200Y221225D01*
X85725Y228600D02*
X111125Y254000D01*
X107975Y276200D02*
X98425Y276200D01*
X82550Y234950D02*
X53975Y234950D01*
X50800Y231775D01*
X50800Y221225D01*
X82550Y234950D02*
X98425Y250825D01*
X98425Y257200D01*
X358775Y96110D02*
X358775Y72517D01*
X384175Y72517D01*
X79550Y124675D02*
X72475Y124675D01*
X219075Y213667D02*
X227511Y222103D01*
X219075Y206375D02*
X218735Y206035D01*
X219075Y206375D02*
X219075Y213667D01*
X220440Y348676D02*
X203200Y365916D01*
X203200Y382025D02*
X201050Y384175D01*
X203200Y382025D02*
X203200Y365916D01*
X142875Y88900D02*
X108975Y88900D01*
X101600Y96275D01*
X92075Y99450D02*
X92075Y112150D01*
X95250Y96275D02*
X101600Y96275D01*
X95250Y96275D02*
X92075Y99450D01*
X92075Y112150D02*
X79550Y124675D01*
X174478Y302714D02*
X172392Y304800D01*
X153416Y99441D02*
X142875Y88900D01*
X349250Y105635D02*
X358775Y96110D01*
X313383Y269875D02*
X308122Y275136D01*
X328050Y273050D02*
X347100Y273050D01*
X328050Y273050D02*
X324875Y269875D01*
X313383Y269875D01*
X107950Y289950D02*
X100575Y289950D01*
X95250Y295275D02*
X95250Y314325D01*
X98425Y336550D02*
X111125Y349250D01*
X111125Y354775D02*
X111100Y354800D01*
X95250Y295275D02*
X100575Y289950D01*
X111125Y349250D02*
X111125Y354775D01*
X117475Y292100D02*
X130175Y292100D01*
X117475Y292100D02*
X114300Y288925D01*
X108975Y288925D01*
X107950Y289950D01*
X225425Y196850D02*
X196850Y168275D01*
X225425Y196850D02*
X225425Y199346D01*
X218735Y206035D01*
X159420Y287655D02*
X174478Y302714D01*
X134620Y287655D02*
X130175Y292100D01*
X134620Y287655D02*
X159420Y287655D01*
X153416Y134366D02*
X153416Y99441D01*
X153416Y134366D02*
X177800Y158750D01*
X111100Y361150D02*
X117475Y367525D01*
X111100Y361150D02*
X111100Y354800D01*
X117475Y367525D02*
X117475Y368300D01*
X117475Y393700D01*
X104775Y406400D01*
X73025Y406400D02*
X64525Y414900D01*
X60325Y414900D01*
X73025Y406400D02*
X104775Y406400D01*
X67700Y431800D02*
X60325Y424425D01*
X60325Y414900D01*
X67700Y431800D02*
X73025Y431800D01*
D37*
X73025Y431800D03*
X228600Y396875D03*
D36*
X222250Y403225D01*
X203200Y403225D01*
X201050Y401075D01*
X201050Y384175D01*
D37*
X400050Y314325D03*
D36*
X387350Y301625D01*
X387350Y260350D02*
X425450Y222250D01*
X387350Y260350D02*
X387350Y301625D01*
X425450Y222250D02*
X438150Y222250D01*
D37*
X438150Y222250D03*
D36*
X333375Y159775D02*
X333375Y155575D01*
X349250Y139700D01*
X349250Y105635D01*
X400558Y72517D02*
X403225Y69850D01*
X400558Y72517D02*
X384175Y72517D01*
D37*
X403225Y69850D03*
X412750Y149225D03*
D36*
X412750Y162950D01*
X412750Y149225D02*
X412750Y135500D01*
X400050Y190500D02*
X406400Y196850D01*
D37*
X406400Y196850D03*
D36*
X410600Y165100D02*
X412750Y162950D01*
X410600Y165100D02*
X403225Y165100D01*
X400050Y168275D01*
X400050Y190500D01*
D37*
X85725Y336550D03*
D36*
X85725Y320675D01*
X92075Y314325D01*
X95250Y314325D01*
X98425Y336550D02*
X85725Y336550D01*
X196850Y168275D02*
X196850Y158750D01*
D37*
X196850Y158750D03*
D36*
X177800Y158750D01*
D37*
X257175Y57150D03*
D36*
X263525Y50800D01*
X434975Y50800D01*
X438150Y53975D01*
X438150Y60325D01*
D37*
X438150Y60325D03*
D36*
X441575Y380700D02*
X450550Y380700D01*
X457200Y387350D02*
X457200Y419100D01*
X450850Y425450D01*
X441325Y425450D01*
D37*
X441325Y425450D03*
D36*
X457200Y387350D02*
X450550Y380700D01*
X133350Y369325D02*
X132325Y368300D01*
X117475Y368300D01*
X106875Y157675D02*
X72475Y157675D01*
D37*
X111252Y170434D03*
X95377Y219075D03*
D36*
X111252Y170434D02*
X111252Y162052D01*
X106875Y157675D01*
X172497Y230728D02*
X195692Y253923D01*
X139383Y212725D02*
X126683Y200025D01*
X114427Y200025D01*
X95377Y219075D01*
X149225Y230728D02*
X172497Y230728D01*
X139383Y220886D02*
X139383Y212725D01*
X139383Y220886D02*
X149225Y230728D01*
X92475Y168675D02*
X72475Y168675D01*
X92475Y168675D02*
X94234Y170434D01*
X95250Y170434D01*
D37*
X95250Y170434D03*
X95250Y200025D03*
D36*
X101600Y193675D02*
X130175Y193675D01*
X101600Y193675D02*
X95250Y200025D01*
X174445Y225605D02*
X199227Y250388D01*
X174445Y225605D02*
X152580Y225605D01*
X144463Y207963D02*
X130175Y193675D01*
X144463Y217488D02*
X152580Y225605D01*
X144463Y217488D02*
X144463Y207963D01*
X23114Y86593D02*
X23114Y63500D01*
X28196Y91675D02*
X72475Y91675D01*
X28196Y91675D02*
X23114Y86593D01*
X23114Y63500D02*
X35814Y50800D01*
X262160Y229174D02*
X273050Y218284D01*
X111125Y50800D02*
X35814Y50800D01*
X125095Y64770D02*
X208479Y64770D01*
X228600Y84891D01*
X125095Y64770D02*
X111125Y50800D01*
X228600Y84891D02*
X228600Y155575D01*
X273050Y200025D02*
X273050Y218284D01*
X273050Y200025D02*
X228600Y155575D01*
X72475Y102675D02*
X22284Y102675D01*
X18034Y98425D01*
X18034Y58166D01*
X31750Y44450D01*
X234950Y152400D02*
X280953Y198403D01*
X280953Y217453D02*
X265695Y232710D01*
X280953Y217453D02*
X280953Y198403D01*
X114300Y44450D02*
X31750Y44450D01*
X211972Y57903D02*
X234950Y80882D01*
X234950Y152400D01*
X211972Y57903D02*
X127753Y57903D01*
X114300Y44450D01*
X27559Y38100D02*
X11684Y53975D01*
X11684Y106934D01*
X40425Y135675D02*
X72475Y135675D01*
X40425Y135675D02*
X11684Y106934D01*
X269231Y236246D02*
X286076Y219401D01*
X244475Y152400D02*
X244475Y79375D01*
X286076Y194001D02*
X286076Y219401D01*
X286076Y194001D02*
X244475Y152400D01*
X117475Y38100D02*
X27559Y38100D01*
X130810Y51435D02*
X216535Y51435D01*
X130810Y51435D02*
X117475Y38100D01*
X216535Y51435D02*
X244475Y79375D01*
X80000Y113675D02*
X72475Y113675D01*
X85725Y92075D02*
X95250Y82550D01*
X85725Y92075D02*
X85725Y107950D01*
X80000Y113675D01*
X264897Y247650D02*
X272766Y239781D01*
X264897Y247650D02*
X260350Y247650D01*
X244475Y231775D01*
X184150Y82550D02*
X95250Y82550D01*
X244475Y200025D02*
X244475Y231775D01*
X195263Y144463D02*
X190500Y139700D01*
X209550Y165100D02*
X244475Y200025D01*
X190500Y88900D02*
X184150Y82550D01*
X190500Y88900D02*
X190500Y139700D01*
X209550Y152400D02*
X209550Y165100D01*
X201613Y144463D02*
X195263Y144463D01*
X201613Y144463D02*
X209550Y152400D01*
X38525Y342900D02*
X38375Y343050D01*
D38*
X18775Y336550D02*
X18775Y364850D01*
X22225Y368300D01*
X25400Y368300D01*
D37*
X25400Y368300D03*
D36*
X384515Y324190D02*
X384515Y322387D01*
X370789Y308661D01*
X315116Y323850D02*
X301051Y309785D01*
X346075Y301625D02*
X363753Y301625D01*
X370789Y308661D01*
X323850Y323850D02*
X315116Y323850D01*
X323850Y323850D02*
X346075Y301625D01*
X353111Y326339D02*
X366837Y340065D01*
X368640Y340065D01*
X315665Y331470D02*
X297515Y313320D01*
X315665Y331470D02*
X323850Y331470D01*
X337820Y317500D01*
X344272Y317500D02*
X353111Y326339D01*
X344272Y317500D02*
X337820Y317500D01*
X276302Y243317D02*
X292100Y227518D01*
X259715Y151765D02*
X259715Y136525D01*
X292100Y184267D02*
X292100Y227518D01*
X292100Y184267D02*
X282575Y174742D01*
D37*
X282575Y174742D03*
X330200Y190500D03*
D36*
X282575Y174625D02*
X259715Y151765D01*
X282575Y174625D02*
X282575Y174742D01*
X330200Y190500D02*
X333375Y187325D01*
X333375Y176775D01*
X260350Y135890D02*
X259715Y136525D01*
X260350Y135890D02*
X260350Y120650D01*
X263525Y117475D01*
X270900Y117475D01*
X121285Y101600D02*
X121285Y98425D01*
X121285Y101600D02*
X109610Y113275D01*
X286908Y323927D02*
X311150Y348168D01*
X101600Y128025D02*
X101600Y113275D01*
X311150Y348168D02*
X311150Y358775D01*
X349250Y396875D01*
X109610Y113275D02*
X101600Y113275D01*
X121285Y98425D02*
X136525Y98425D01*
X142875Y104775D01*
X136525Y152400D02*
X123825Y152400D01*
X136525Y152400D02*
X142875Y146050D01*
X142875Y104775D01*
D37*
X123825Y152400D03*
D36*
X136525Y40894D02*
X139319Y38100D01*
D37*
X136525Y40894D03*
D36*
X412750Y244475D02*
X422275Y234950D01*
X438150Y206375D02*
X438150Y101600D01*
D37*
X454025Y228600D03*
D36*
X412750Y244475D02*
X412750Y365125D01*
X454025Y222250D02*
X438150Y206375D01*
X454025Y222250D02*
X454025Y228600D01*
X447675Y234950D01*
X422275Y234950D01*
X438150Y101600D02*
X457200Y82550D01*
X457200Y47625D02*
X447675Y38100D01*
X457200Y47625D02*
X457200Y82550D01*
X447675Y38100D02*
X139319Y38100D01*
X463550Y374650D02*
X463550Y428625D01*
X463550Y374650D02*
X457200Y368300D01*
X415925Y368300D01*
X412750Y365125D01*
X377825Y396875D02*
X349250Y396875D01*
X403225Y409575D02*
X431800Y438150D01*
X454025Y438150D02*
X463550Y428625D01*
X454025Y438150D02*
X431800Y438150D01*
X390525Y409575D02*
X377825Y396875D01*
X390525Y409575D02*
X403225Y409575D01*
X355940Y355940D02*
X355940Y354844D01*
X341860Y340765D01*
X334471Y333375D01*
X330079Y333375D02*
X323729Y339725D01*
X316849Y339725D02*
X293979Y316856D01*
X316849Y339725D02*
X323729Y339725D01*
X330079Y333375D02*
X334471Y333375D01*
X316814Y346761D02*
X290444Y320391D01*
X338969Y371815D02*
X340065Y371815D01*
X338969Y371815D02*
X324890Y357735D01*
X316814Y349659D01*
X316814Y346761D01*
X342900Y187617D02*
X348517Y182000D01*
X342900Y187617D02*
X342900Y200317D01*
X188621Y316856D02*
X172101Y333375D01*
X136652Y333375D01*
X130302Y339725D01*
X120777Y339725D01*
D37*
X120777Y339725D03*
X342900Y200317D03*
D36*
X358775Y182000D02*
X358775Y162433D01*
X358775Y182000D02*
X348517Y182000D01*
X381000Y182000D02*
X381000Y171958D01*
X384175Y168783D02*
X384175Y162433D01*
X384175Y168783D02*
X381000Y171958D01*
X326374Y228600D02*
X293979Y260994D01*
X326374Y228600D02*
X352425Y228600D01*
X384175Y162433D02*
X384175Y111125D01*
X406400Y88900D01*
X422275Y88900D02*
X425450Y92075D01*
X422275Y88900D02*
X406400Y88900D01*
X425450Y92075D02*
X425450Y203200D01*
X365125Y241300D02*
X352425Y228600D01*
X365125Y241300D02*
X387350Y241300D01*
X425450Y203200D01*
X339725Y288925D02*
X319586Y309064D01*
X314472Y309064D01*
X308122Y302714D01*
X339725Y288925D02*
X371475Y288925D01*
D37*
X241300Y50800D03*
D36*
X247650Y44450D01*
X377825Y260350D02*
X377825Y282575D01*
X371475Y288925D01*
X377825Y260350D02*
X431800Y206375D01*
X431800Y95250D01*
X450850Y50800D02*
X444500Y44450D01*
X450850Y50800D02*
X450850Y76200D01*
X431800Y95250D01*
X444500Y44450D02*
X247650Y44450D01*
X181549Y309785D02*
X169467Y321867D01*
X159942Y321867D01*
X146050Y307975D01*
X130175Y307975D01*
X122800Y315350D01*
X122800Y323850D01*
X301625Y225064D02*
X301625Y211700D01*
X301625Y225064D02*
X279837Y246852D01*
X301625Y172425D02*
X285750Y156550D01*
X301625Y172425D02*
X301625Y194700D01*
X328107Y212725D02*
X286908Y253923D01*
X412750Y118500D02*
X412750Y101600D01*
D37*
X412750Y101600D03*
D36*
X412750Y118500D02*
X399025Y118500D01*
X387350Y212725D02*
X328107Y212725D01*
X387350Y212725D02*
X393700Y206375D01*
X393700Y123825D01*
X399025Y118500D01*
X358775Y222250D02*
X325653Y222250D01*
X290444Y257459D01*
X419100Y200025D02*
X419100Y192650D01*
X412750Y186300D01*
X412750Y179950D01*
X371475Y228600D02*
X365125Y228600D01*
X358775Y222250D01*
D37*
X371475Y228600D03*
D36*
X390525Y228600D01*
X419100Y200025D01*
X260350Y216842D02*
X255089Y222103D01*
X260350Y216842D02*
X260350Y206375D01*
X215900Y161925D01*
X215900Y92075D01*
X200025Y76200D02*
X107950Y76200D01*
X101600Y69850D01*
X200025Y76200D02*
X215900Y92075D01*
D37*
X101600Y69850D03*
X400050Y288925D03*
D36*
X400050Y263525D01*
D37*
X400050Y263525D03*
D36*
X220440Y229174D02*
X190500Y199234D01*
X190500Y187325D01*
X193675Y184150D01*
D37*
X193675Y184150D03*
D36*
X297875Y92075D02*
X312175Y92075D01*
X297875Y92075D02*
X296750Y90950D01*
X285750Y90950D02*
X285750Y94969D01*
X299756Y108975D02*
X304800Y108975D01*
X299756Y108975D02*
X285750Y94969D01*
X274750Y79375D02*
X277925Y76200D01*
X274750Y79375D02*
X274750Y90950D01*
X305825Y69850D02*
X312175Y69850D01*
X305825Y69850D02*
X299475Y76200D01*
X277925Y76200D01*
X339725Y74050D02*
X339725Y133350D01*
X339725Y74050D02*
X335525Y69850D01*
X329175Y69850D01*
X315913Y217848D02*
X283373Y250388D01*
X315913Y157163D02*
X339725Y133350D01*
X315913Y157163D02*
X315913Y217848D01*
X320675Y136525D02*
X329175Y128025D01*
X329175Y92075D01*
D37*
X320675Y136525D03*
X133350Y352552D03*
D36*
X172822Y339725D02*
X192156Y320391D01*
X172822Y339725D02*
X139827Y339725D01*
X133350Y346202D01*
X133350Y352552D01*
X304800Y152400D02*
X304800Y125975D01*
D37*
X304800Y152400D03*
D36*
X158750Y346075D02*
X152400Y352425D01*
D37*
X152400Y352425D03*
D36*
X173543Y346075D02*
X195692Y323927D01*
X173543Y346075D02*
X158750Y346075D01*
X32975Y82425D02*
X32975Y65450D01*
X41275Y57150D01*
X222250Y88900D02*
X222250Y158750D01*
X266700Y203200D01*
X266700Y217563D02*
X258624Y225639D01*
X266700Y217563D02*
X266700Y203200D01*
X107950Y57150D02*
X41275Y57150D01*
X107950Y57150D02*
X120650Y69850D01*
X203200Y69850D02*
X222250Y88900D01*
X203200Y69850D02*
X120650Y69850D01*
X283373Y327462D02*
X304800Y348889D01*
X304800Y361950D01*
X349250Y406400D01*
D37*
X406400Y428625D03*
D36*
X393700Y415925D01*
X374650Y406400D02*
X349250Y406400D01*
X374650Y406400D02*
X384175Y415925D01*
X393700Y415925D01*
X298450Y349611D02*
X279837Y330998D01*
X298450Y365125D02*
X349250Y415925D01*
D37*
X387350Y428625D03*
D36*
X298450Y365125D02*
X298450Y349611D01*
X374650Y415925D02*
X387350Y428625D01*
X374650Y415925D02*
X349250Y415925D01*
X351343Y428625D02*
X368300Y428625D01*
X351343Y428625D02*
X292177Y369458D01*
X292177Y350408D01*
X276302Y334533D01*
D37*
X368300Y428625D03*
D36*
X285750Y351053D02*
X272766Y338069D01*
X330200Y419100D02*
X330200Y428625D01*
X330200Y419100D02*
X285750Y374650D01*
D37*
X330200Y428625D03*
D36*
X285750Y374650D02*
X285750Y351053D01*
X202763Y330998D02*
X158750Y375011D01*
X158750Y393827D02*
X136652Y415925D01*
X158750Y393827D02*
X158750Y375011D01*
D37*
X136652Y415925D03*
X117475Y428625D03*
D36*
X151431Y375258D02*
X199227Y327462D01*
X151431Y385144D02*
X117475Y419100D01*
X117475Y428625D01*
X151431Y385144D02*
X151431Y375258D01*
X188621Y260994D02*
X172101Y244475D01*
X134366Y231727D02*
X108966Y231727D01*
X134366Y231727D02*
X147114Y244475D01*
D37*
X108966Y231727D03*
D36*
X147114Y244475D02*
X172101Y244475D01*
X172822Y238125D02*
X192156Y257459D01*
X149225Y238125D02*
X127139Y216039D01*
D37*
X126861Y216039D03*
D36*
X149225Y238125D02*
X172822Y238125D01*
X127139Y216039D02*
X126861Y216039D01*
X262160Y348676D02*
X273050Y359566D01*
X273050Y425450D02*
X276225Y428625D01*
X273050Y425450D02*
X273050Y359566D01*
D37*
X276225Y428625D03*
D36*
X266700Y360287D02*
X258624Y352211D01*
X266700Y403225D02*
X257175Y412750D01*
X257175Y428625D01*
D37*
X257175Y428625D03*
D36*
X266700Y403225D02*
X266700Y360287D01*
X261439Y362097D02*
X261439Y398961D01*
X261439Y362097D02*
X255089Y355747D01*
X261439Y398961D02*
X238125Y422275D01*
X238125Y428625D01*
D37*
X238125Y428625D03*
D36*
X220192Y363066D02*
X227511Y355747D01*
X219341Y425184D02*
X219341Y428359D01*
X247650Y396875D02*
X247650Y374650D01*
X247650Y396875D02*
X219341Y425184D01*
D37*
X219341Y428359D03*
D36*
X220192Y367477D02*
X220192Y363066D01*
X220192Y367477D02*
X221632Y368918D01*
X241918Y368918D01*
X247650Y374650D01*
X216905Y345140D02*
X190500Y371545D01*
X190500Y409575D01*
X200152Y419227D02*
X200152Y428625D01*
X200152Y419227D02*
X190500Y409575D01*
D37*
X200152Y428625D03*
D36*
X180975Y373999D02*
X213369Y341604D01*
X180975Y373999D02*
X180975Y428625D01*
D37*
X180975Y428625D03*
D36*
X174625Y373278D02*
X209834Y338069D01*
X174625Y413131D02*
X159131Y428625D01*
X174625Y413131D02*
X174625Y373278D01*
D37*
X159131Y428625D03*
X98679Y431800D03*
D36*
X106045Y439166D02*
X132334Y439166D01*
X106045Y439166D02*
X98679Y431800D01*
X168275Y403225D02*
X168275Y372557D01*
X206298Y334533D01*
X168275Y403225D02*
X132334Y439166D01*
X202763Y246852D02*
X171811Y215900D01*
X160909Y215900D01*
X158750Y213741D01*
D37*
X158750Y213741D03*
D36*
X158996Y196014D02*
X150466Y196014D01*
X158996Y196014D02*
X206298Y243317D01*
D37*
X150466Y196014D03*
D36*
X161441Y191388D02*
X209834Y239781D01*
X161441Y191388D02*
X161441Y181459D01*
D37*
X161441Y181459D03*
D36*
X297515Y264530D02*
X327095Y234950D01*
X339725Y234950D01*
X346075Y241300D01*
D37*
X346075Y241300D03*
D36*
X318291Y250825D02*
X301051Y268065D01*
X318291Y250825D02*
X330200Y250825D01*
D37*
X330200Y250825D03*
D36*
X185085Y313320D02*
X171380Y327025D01*
X146050Y327025D01*
X139700Y320675D01*
D37*
X139700Y320675D03*
X123825Y279400D03*
D36*
X167040Y282575D02*
X174478Y275136D01*
X167040Y282575D02*
X127000Y282575D01*
X123825Y279400D01*
X171664Y265251D02*
X178014Y271601D01*
X171664Y265251D02*
X158964Y265251D01*
X147992Y276223D01*
X137665Y276222D01*
X121666Y260223D01*
D37*
X121666Y260223D03*
D36*
X170659Y257175D02*
X181549Y268065D01*
X149225Y257175D02*
X142391Y264009D01*
X140589Y264009D01*
D37*
X140589Y264009D03*
D36*
X149225Y257175D02*
X170659Y257175D01*
X171380Y250825D02*
X185085Y264530D01*
X137590Y250825D02*
X134366Y247602D01*
X137590Y250825D02*
X171380Y250825D01*
D37*
X134366Y247602D03*
D36*
X396875Y395850D02*
X419100Y395850D01*
X421250Y395850D01*
X432100Y406700D01*
X441575Y406700D01*
X279400Y358845D02*
X265695Y345140D01*
X279400Y387350D02*
X307975Y415925D01*
D37*
X307975Y415925D03*
X422275Y412750D03*
D36*
X425450Y412750D02*
X431800Y406400D01*
X425450Y412750D02*
X422275Y412750D01*
X431800Y406400D02*
X441575Y406400D01*
X441575Y406700D01*
X279400Y387350D02*
X279400Y358845D01*
X83525Y415925D02*
X82550Y416900D01*
X107950Y415925D02*
X133350Y390525D01*
X133350Y386325D01*
X107950Y415925D02*
X83525Y415925D01*
D39*
X19050Y457200D03*
X19050Y19050D03*
X457200Y19050D03*
X457200Y457200D03*
M02*
