G04 EAGLE Gerber RS-274X export*
G75*
%MOMM*%
%FSLAX34Y34*%
%LPD*%
%INBottom Copper*%
%IPPOS*%
%AMOC8*
5,1,8,0,0,1.08239X$1,22.5*%
G01*
%ADD10C,1.651000*%
%ADD11C,1.879600*%
%ADD12C,1.397000*%
%ADD13C,0.304800*%
%ADD14C,1.778000*%
%ADD15C,1.778000*%

G36*
X65346Y10172D02*
X65346Y10172D01*
X65447Y10174D01*
X65519Y10192D01*
X65593Y10201D01*
X65687Y10234D01*
X65784Y10259D01*
X65851Y10293D01*
X65921Y10318D01*
X66005Y10373D01*
X66094Y10419D01*
X66151Y10467D01*
X66213Y10507D01*
X66283Y10579D01*
X66360Y10644D01*
X66404Y10704D01*
X66456Y10758D01*
X66507Y10844D01*
X66567Y10925D01*
X66596Y10993D01*
X66634Y11057D01*
X66665Y11153D01*
X66705Y11245D01*
X66718Y11318D01*
X66741Y11389D01*
X66749Y11489D01*
X66767Y11588D01*
X66763Y11662D01*
X66769Y11736D01*
X66754Y11836D01*
X66749Y11936D01*
X66728Y12007D01*
X66717Y12081D01*
X66680Y12174D01*
X66652Y12271D01*
X66616Y12336D01*
X66588Y12405D01*
X66531Y12487D01*
X66482Y12575D01*
X66417Y12651D01*
X66389Y12691D01*
X66363Y12715D01*
X66323Y12761D01*
X63335Y15750D01*
X61594Y19951D01*
X61594Y24499D01*
X63335Y28700D01*
X66550Y31915D01*
X68528Y32735D01*
X68595Y32772D01*
X68666Y32800D01*
X68747Y32856D01*
X68833Y32904D01*
X68889Y32955D01*
X68952Y32999D01*
X69018Y33072D01*
X69091Y33138D01*
X69134Y33201D01*
X69185Y33258D01*
X69233Y33344D01*
X69289Y33425D01*
X69317Y33496D01*
X69354Y33563D01*
X69381Y33658D01*
X69417Y33749D01*
X69428Y33825D01*
X69449Y33898D01*
X69461Y34047D01*
X69468Y34094D01*
X69466Y34113D01*
X69468Y34142D01*
X69468Y42748D01*
X84897Y58177D01*
X84976Y58276D01*
X85060Y58370D01*
X85084Y58412D01*
X85114Y58450D01*
X85168Y58564D01*
X85229Y58675D01*
X85242Y58722D01*
X85263Y58765D01*
X85289Y58889D01*
X85324Y59010D01*
X85329Y59071D01*
X85336Y59106D01*
X85335Y59154D01*
X85343Y59254D01*
X85343Y67746D01*
X85329Y67871D01*
X85322Y67998D01*
X85309Y68044D01*
X85303Y68092D01*
X85261Y68211D01*
X85226Y68332D01*
X85202Y68375D01*
X85186Y68420D01*
X85117Y68526D01*
X85056Y68637D01*
X85016Y68683D01*
X84997Y68713D01*
X84962Y68746D01*
X84897Y68823D01*
X50418Y103302D01*
X50418Y236423D01*
X81722Y267727D01*
X81801Y267826D01*
X81885Y267920D01*
X81909Y267962D01*
X81939Y268000D01*
X81993Y268114D01*
X82054Y268225D01*
X82067Y268272D01*
X82088Y268315D01*
X82114Y268439D01*
X82149Y268560D01*
X82154Y268621D01*
X82161Y268656D01*
X82160Y268704D01*
X82168Y268804D01*
X82168Y327245D01*
X82160Y327321D01*
X82161Y327397D01*
X82140Y327493D01*
X82128Y327591D01*
X82103Y327663D01*
X82086Y327738D01*
X82044Y327826D01*
X82011Y327919D01*
X81969Y327983D01*
X81937Y328052D01*
X81875Y328129D01*
X81822Y328212D01*
X81767Y328265D01*
X81719Y328325D01*
X81642Y328386D01*
X81571Y328454D01*
X81506Y328493D01*
X81446Y328541D01*
X81312Y328609D01*
X81272Y328633D01*
X81254Y328639D01*
X81228Y328652D01*
X80617Y328905D01*
X78080Y331442D01*
X76707Y334756D01*
X76707Y338344D01*
X78080Y341658D01*
X80617Y344195D01*
X83931Y345568D01*
X87519Y345568D01*
X90833Y344195D01*
X92268Y342760D01*
X92347Y342698D01*
X92419Y342628D01*
X92483Y342590D01*
X92541Y342543D01*
X92632Y342501D01*
X92718Y342449D01*
X92789Y342426D01*
X92856Y342395D01*
X92954Y342373D01*
X93050Y342343D01*
X93124Y342337D01*
X93197Y342321D01*
X93297Y342323D01*
X93397Y342315D01*
X93471Y342326D01*
X93545Y342327D01*
X93642Y342352D01*
X93742Y342366D01*
X93811Y342394D01*
X93883Y342412D01*
X93972Y342458D01*
X94066Y342495D01*
X94127Y342538D01*
X94193Y342572D01*
X94269Y342637D01*
X94352Y342694D01*
X94402Y342749D01*
X94458Y342798D01*
X94518Y342878D01*
X94585Y342953D01*
X94621Y343018D01*
X94666Y343078D01*
X94705Y343170D01*
X94754Y343258D01*
X94774Y343330D01*
X94804Y343398D01*
X94821Y343497D01*
X94849Y343593D01*
X94857Y343693D01*
X94865Y343741D01*
X94863Y343777D01*
X94868Y343837D01*
X94868Y360248D01*
X107122Y372502D01*
X109652Y375032D01*
X160223Y375032D01*
X172477Y362778D01*
X172576Y362699D01*
X172670Y362615D01*
X172712Y362591D01*
X172750Y362561D01*
X172864Y362507D01*
X172975Y362446D01*
X173022Y362433D01*
X173065Y362412D01*
X173189Y362386D01*
X173310Y362351D01*
X173371Y362346D01*
X173406Y362339D01*
X173454Y362340D01*
X173554Y362332D01*
X182448Y362332D01*
X204227Y340553D01*
X204326Y340474D01*
X204420Y340390D01*
X204462Y340366D01*
X204500Y340336D01*
X204614Y340282D01*
X204725Y340221D01*
X204772Y340208D01*
X204815Y340187D01*
X204939Y340161D01*
X205060Y340126D01*
X205121Y340121D01*
X205156Y340114D01*
X205204Y340115D01*
X205304Y340107D01*
X220548Y340107D01*
X223078Y337577D01*
X280427Y280228D01*
X280526Y280149D01*
X280620Y280065D01*
X280662Y280041D01*
X280700Y280011D01*
X280814Y279957D01*
X280925Y279896D01*
X280972Y279883D01*
X281015Y279862D01*
X281139Y279836D01*
X281260Y279801D01*
X281321Y279796D01*
X281356Y279789D01*
X281404Y279790D01*
X281504Y279782D01*
X375721Y279782D01*
X375846Y279796D01*
X375973Y279803D01*
X376019Y279816D01*
X376067Y279822D01*
X376186Y279864D01*
X376307Y279899D01*
X376350Y279923D01*
X376395Y279939D01*
X376501Y280008D01*
X376612Y280069D01*
X376658Y280109D01*
X376688Y280128D01*
X376721Y280163D01*
X376798Y280228D01*
X389052Y292482D01*
X390745Y292482D01*
X390821Y292490D01*
X390897Y292489D01*
X390993Y292510D01*
X391091Y292522D01*
X391163Y292547D01*
X391238Y292564D01*
X391326Y292606D01*
X391419Y292639D01*
X391483Y292681D01*
X391552Y292713D01*
X391629Y292775D01*
X391712Y292828D01*
X391765Y292883D01*
X391825Y292931D01*
X391886Y293008D01*
X391954Y293079D01*
X391993Y293144D01*
X392041Y293204D01*
X392109Y293338D01*
X392133Y293378D01*
X392139Y293396D01*
X392152Y293422D01*
X392405Y294033D01*
X394942Y296570D01*
X398256Y297943D01*
X401844Y297943D01*
X405158Y296570D01*
X407695Y294033D01*
X409068Y290719D01*
X409068Y287131D01*
X407695Y283817D01*
X406260Y282382D01*
X406198Y282303D01*
X406128Y282231D01*
X406090Y282167D01*
X406043Y282109D01*
X406001Y282018D01*
X405949Y281932D01*
X405926Y281861D01*
X405895Y281794D01*
X405873Y281696D01*
X405843Y281600D01*
X405837Y281526D01*
X405821Y281453D01*
X405823Y281353D01*
X405815Y281253D01*
X405826Y281179D01*
X405827Y281105D01*
X405852Y281008D01*
X405866Y280908D01*
X405894Y280839D01*
X405912Y280767D01*
X405958Y280678D01*
X405995Y280584D01*
X406038Y280523D01*
X406072Y280457D01*
X406137Y280381D01*
X406194Y280298D01*
X406249Y280248D01*
X406298Y280192D01*
X406378Y280132D01*
X406453Y280065D01*
X406518Y280029D01*
X406578Y279984D01*
X406670Y279945D01*
X406758Y279896D01*
X406830Y279876D01*
X406898Y279846D01*
X406997Y279829D01*
X407093Y279801D01*
X407193Y279793D01*
X407241Y279785D01*
X407277Y279787D01*
X407337Y279782D01*
X416708Y279782D01*
X416784Y279790D01*
X416860Y279789D01*
X416957Y279810D01*
X417054Y279822D01*
X417126Y279847D01*
X417201Y279864D01*
X417290Y279906D01*
X417382Y279939D01*
X417447Y279981D01*
X417515Y280013D01*
X417592Y280075D01*
X417675Y280128D01*
X417728Y280183D01*
X417788Y280231D01*
X417849Y280308D01*
X417917Y280379D01*
X417956Y280444D01*
X418004Y280504D01*
X418072Y280637D01*
X418096Y280678D01*
X418102Y280696D01*
X418115Y280722D01*
X418935Y282700D01*
X422150Y285915D01*
X426351Y287656D01*
X430899Y287656D01*
X435100Y285915D01*
X438315Y282700D01*
X439918Y278832D01*
X439966Y278744D01*
X440006Y278652D01*
X440051Y278592D01*
X440087Y278527D01*
X440155Y278453D01*
X440214Y278372D01*
X440271Y278324D01*
X440321Y278269D01*
X440404Y278212D01*
X440480Y278147D01*
X440547Y278113D01*
X440608Y278071D01*
X440701Y278034D01*
X440791Y277988D01*
X440863Y277970D01*
X440932Y277943D01*
X441031Y277929D01*
X441129Y277904D01*
X441203Y277903D01*
X441277Y277892D01*
X441377Y277901D01*
X441477Y277899D01*
X441550Y277915D01*
X441624Y277921D01*
X441720Y277952D01*
X441818Y277974D01*
X441885Y278005D01*
X441956Y278028D01*
X442042Y278080D01*
X442133Y278123D01*
X442191Y278170D01*
X442254Y278208D01*
X442327Y278278D01*
X442405Y278341D01*
X442451Y278399D01*
X442504Y278451D01*
X442559Y278535D01*
X442621Y278614D01*
X442667Y278704D01*
X442693Y278744D01*
X442705Y278778D01*
X442732Y278832D01*
X444335Y282700D01*
X447550Y285915D01*
X451751Y287656D01*
X456299Y287656D01*
X460500Y285915D01*
X463364Y283052D01*
X463442Y282989D01*
X463515Y282919D01*
X463579Y282881D01*
X463637Y282835D01*
X463728Y282792D01*
X463814Y282741D01*
X463885Y282718D01*
X463952Y282686D01*
X464050Y282665D01*
X464146Y282634D01*
X464220Y282628D01*
X464293Y282613D01*
X464393Y282614D01*
X464493Y282606D01*
X464567Y282617D01*
X464641Y282619D01*
X464738Y282643D01*
X464838Y282658D01*
X464907Y282686D01*
X464979Y282704D01*
X465068Y282750D01*
X465162Y282787D01*
X465223Y282829D01*
X465289Y282863D01*
X465365Y282928D01*
X465448Y282986D01*
X465498Y283041D01*
X465554Y283089D01*
X465614Y283170D01*
X465681Y283244D01*
X465717Y283310D01*
X465762Y283369D01*
X465801Y283462D01*
X465850Y283549D01*
X465870Y283621D01*
X465900Y283689D01*
X465917Y283788D01*
X465945Y283885D01*
X465953Y283985D01*
X465961Y284032D01*
X465959Y284068D01*
X465964Y284129D01*
X465964Y319121D01*
X465953Y319221D01*
X465951Y319322D01*
X465933Y319394D01*
X465924Y319468D01*
X465891Y319562D01*
X465866Y319659D01*
X465832Y319726D01*
X465807Y319796D01*
X465752Y319880D01*
X465706Y319969D01*
X465658Y320026D01*
X465618Y320088D01*
X465546Y320158D01*
X465481Y320235D01*
X465421Y320279D01*
X465367Y320331D01*
X465281Y320382D01*
X465200Y320442D01*
X465132Y320471D01*
X465068Y320509D01*
X464972Y320540D01*
X464880Y320580D01*
X464807Y320593D01*
X464736Y320616D01*
X464636Y320624D01*
X464537Y320642D01*
X464463Y320638D01*
X464389Y320644D01*
X464289Y320629D01*
X464189Y320624D01*
X464118Y320603D01*
X464044Y320592D01*
X463951Y320555D01*
X463854Y320527D01*
X463789Y320491D01*
X463720Y320463D01*
X463638Y320406D01*
X463550Y320357D01*
X463474Y320292D01*
X463434Y320264D01*
X463410Y320238D01*
X463364Y320198D01*
X460500Y317335D01*
X456299Y315594D01*
X451751Y315594D01*
X447550Y317335D01*
X444335Y320550D01*
X443515Y322528D01*
X443478Y322595D01*
X443450Y322666D01*
X443394Y322747D01*
X443346Y322833D01*
X443295Y322889D01*
X443251Y322952D01*
X443178Y323018D01*
X443112Y323091D01*
X443049Y323134D01*
X442992Y323185D01*
X442906Y323233D01*
X442825Y323289D01*
X442754Y323317D01*
X442687Y323354D01*
X442592Y323381D01*
X442501Y323417D01*
X442425Y323428D01*
X442352Y323449D01*
X442203Y323461D01*
X442156Y323468D01*
X442137Y323466D01*
X442108Y323468D01*
X440542Y323468D01*
X440466Y323460D01*
X440390Y323461D01*
X440293Y323440D01*
X440196Y323428D01*
X440124Y323403D01*
X440049Y323386D01*
X439960Y323344D01*
X439868Y323311D01*
X439803Y323269D01*
X439735Y323237D01*
X439658Y323175D01*
X439575Y323122D01*
X439522Y323067D01*
X439462Y323019D01*
X439401Y322942D01*
X439333Y322871D01*
X439294Y322806D01*
X439246Y322746D01*
X439178Y322613D01*
X439154Y322572D01*
X439148Y322554D01*
X439135Y322528D01*
X438315Y320550D01*
X435100Y317335D01*
X430899Y315594D01*
X426351Y315594D01*
X422150Y317335D01*
X418935Y320550D01*
X418115Y322528D01*
X418078Y322595D01*
X418050Y322666D01*
X417994Y322747D01*
X417946Y322833D01*
X417895Y322889D01*
X417851Y322952D01*
X417778Y323018D01*
X417712Y323091D01*
X417649Y323134D01*
X417592Y323185D01*
X417506Y323233D01*
X417425Y323289D01*
X417354Y323317D01*
X417287Y323354D01*
X417192Y323381D01*
X417101Y323417D01*
X417025Y323428D01*
X416952Y323449D01*
X416803Y323461D01*
X416756Y323468D01*
X416737Y323466D01*
X416708Y323468D01*
X414854Y323468D01*
X414729Y323454D01*
X414602Y323447D01*
X414556Y323434D01*
X414508Y323428D01*
X414389Y323386D01*
X414268Y323351D01*
X414225Y323327D01*
X414180Y323311D01*
X414074Y323242D01*
X413963Y323181D01*
X413917Y323141D01*
X413887Y323122D01*
X413853Y323087D01*
X413777Y323022D01*
X409145Y318390D01*
X409097Y318330D01*
X409042Y318277D01*
X408989Y318194D01*
X408928Y318117D01*
X408896Y318048D01*
X408854Y317983D01*
X408821Y317891D01*
X408779Y317802D01*
X408763Y317727D01*
X408738Y317655D01*
X408727Y317557D01*
X408706Y317461D01*
X408707Y317385D01*
X408699Y317309D01*
X408710Y317211D01*
X408712Y317113D01*
X408730Y317038D01*
X408739Y316963D01*
X408785Y316820D01*
X408797Y316775D01*
X408806Y316758D01*
X408815Y316730D01*
X409068Y316119D01*
X409068Y312531D01*
X407695Y309217D01*
X405158Y306680D01*
X401844Y305307D01*
X398256Y305307D01*
X394942Y306680D01*
X392405Y309217D01*
X391032Y312531D01*
X391032Y316119D01*
X392405Y319433D01*
X394942Y321970D01*
X398256Y323343D01*
X401844Y323343D01*
X402455Y323090D01*
X402528Y323069D01*
X402598Y323038D01*
X402695Y323021D01*
X402790Y322994D01*
X402866Y322990D01*
X402941Y322977D01*
X403040Y322982D01*
X403138Y322977D01*
X403213Y322991D01*
X403290Y322995D01*
X403384Y323022D01*
X403481Y323040D01*
X403551Y323070D01*
X403624Y323091D01*
X403710Y323139D01*
X403800Y323178D01*
X403862Y323224D01*
X403929Y323261D01*
X404042Y323358D01*
X404080Y323386D01*
X404093Y323401D01*
X404115Y323420D01*
X406643Y325948D01*
X406659Y325968D01*
X406679Y325985D01*
X406726Y326049D01*
X406747Y326071D01*
X406767Y326105D01*
X406860Y326221D01*
X406871Y326245D01*
X406886Y326266D01*
X406945Y326402D01*
X407008Y326536D01*
X407014Y326562D01*
X407024Y326586D01*
X407051Y326732D01*
X407082Y326877D01*
X407081Y326903D01*
X407086Y326929D01*
X407078Y327077D01*
X407076Y327225D01*
X407069Y327251D01*
X407068Y327277D01*
X407027Y327419D01*
X406991Y327563D01*
X406979Y327587D01*
X406972Y327612D01*
X406899Y327741D01*
X406831Y327873D01*
X406814Y327893D01*
X406801Y327916D01*
X406643Y328102D01*
X406018Y328727D01*
X406018Y388421D01*
X406004Y388546D01*
X405997Y388673D01*
X405984Y388719D01*
X405978Y388767D01*
X405936Y388886D01*
X405901Y389007D01*
X405877Y389050D01*
X405861Y389095D01*
X405792Y389201D01*
X405731Y389312D01*
X405691Y389358D01*
X405672Y389388D01*
X405637Y389421D01*
X405572Y389498D01*
X402397Y392673D01*
X402198Y392872D01*
X402099Y392951D01*
X402005Y393035D01*
X401963Y393059D01*
X401925Y393089D01*
X401811Y393143D01*
X401700Y393204D01*
X401653Y393217D01*
X401610Y393238D01*
X401486Y393264D01*
X401365Y393299D01*
X401304Y393304D01*
X401269Y393311D01*
X401221Y393310D01*
X401121Y393318D01*
X237905Y393318D01*
X237829Y393310D01*
X237753Y393311D01*
X237657Y393290D01*
X237559Y393278D01*
X237487Y393253D01*
X237412Y393236D01*
X237324Y393194D01*
X237231Y393161D01*
X237167Y393119D01*
X237098Y393087D01*
X237021Y393025D01*
X236938Y392972D01*
X236885Y392917D01*
X236825Y392869D01*
X236764Y392792D01*
X236696Y392721D01*
X236657Y392656D01*
X236609Y392596D01*
X236541Y392462D01*
X236517Y392422D01*
X236511Y392404D01*
X236498Y392378D01*
X236245Y391767D01*
X233708Y389230D01*
X230394Y387857D01*
X226806Y387857D01*
X223492Y389230D01*
X220955Y391767D01*
X219582Y395081D01*
X219582Y398145D01*
X219579Y398171D01*
X219581Y398197D01*
X219559Y398344D01*
X219542Y398491D01*
X219534Y398516D01*
X219530Y398542D01*
X219475Y398680D01*
X219425Y398819D01*
X219411Y398841D01*
X219401Y398866D01*
X219316Y398987D01*
X219236Y399112D01*
X219217Y399130D01*
X219202Y399152D01*
X219092Y399251D01*
X218985Y399354D01*
X218963Y399368D01*
X218943Y399385D01*
X218813Y399457D01*
X218686Y399533D01*
X218661Y399541D01*
X218638Y399554D01*
X218495Y399594D01*
X218354Y399639D01*
X218328Y399641D01*
X218303Y399649D01*
X218059Y399668D01*
X128702Y399668D01*
X126172Y402198D01*
X116448Y411922D01*
X116349Y412001D01*
X116255Y412085D01*
X116213Y412109D01*
X116175Y412139D01*
X116061Y412193D01*
X115950Y412254D01*
X115903Y412267D01*
X115860Y412288D01*
X115736Y412314D01*
X115615Y412349D01*
X115554Y412354D01*
X115519Y412361D01*
X115471Y412360D01*
X115371Y412368D01*
X87427Y412368D01*
X77090Y422705D01*
X77030Y422753D01*
X76977Y422808D01*
X76894Y422861D01*
X76817Y422922D01*
X76748Y422954D01*
X76683Y422996D01*
X76591Y423029D01*
X76502Y423071D01*
X76427Y423087D01*
X76355Y423112D01*
X76257Y423123D01*
X76161Y423144D01*
X76085Y423143D01*
X76009Y423151D01*
X75911Y423140D01*
X75813Y423138D01*
X75738Y423120D01*
X75663Y423111D01*
X75520Y423065D01*
X75475Y423053D01*
X75458Y423044D01*
X75430Y423035D01*
X74819Y422782D01*
X71231Y422782D01*
X67917Y424155D01*
X65380Y426692D01*
X64007Y430006D01*
X64007Y433594D01*
X65380Y436908D01*
X67917Y439445D01*
X68528Y439698D01*
X68595Y439735D01*
X68666Y439763D01*
X68747Y439819D01*
X68833Y439867D01*
X68889Y439919D01*
X68952Y439962D01*
X69018Y440035D01*
X69091Y440101D01*
X69134Y440164D01*
X69185Y440221D01*
X69233Y440307D01*
X69289Y440388D01*
X69317Y440459D01*
X69354Y440526D01*
X69381Y440621D01*
X69417Y440712D01*
X69428Y440788D01*
X69449Y440861D01*
X69461Y441010D01*
X69468Y441057D01*
X69466Y441076D01*
X69468Y441105D01*
X69468Y442108D01*
X69460Y442184D01*
X69461Y442260D01*
X69440Y442357D01*
X69428Y442454D01*
X69403Y442526D01*
X69386Y442601D01*
X69344Y442690D01*
X69311Y442782D01*
X69269Y442847D01*
X69237Y442915D01*
X69175Y442992D01*
X69122Y443075D01*
X69067Y443128D01*
X69019Y443188D01*
X68942Y443249D01*
X68871Y443317D01*
X68806Y443356D01*
X68746Y443404D01*
X68613Y443472D01*
X68572Y443496D01*
X68554Y443502D01*
X68528Y443515D01*
X66550Y444335D01*
X63335Y447550D01*
X61594Y451751D01*
X61594Y456299D01*
X63335Y460500D01*
X66223Y463389D01*
X66286Y463467D01*
X66356Y463540D01*
X66394Y463604D01*
X66440Y463662D01*
X66483Y463753D01*
X66534Y463839D01*
X66557Y463910D01*
X66589Y463977D01*
X66610Y464075D01*
X66641Y464171D01*
X66647Y464245D01*
X66662Y464318D01*
X66661Y464418D01*
X66669Y464518D01*
X66658Y464592D01*
X66656Y464666D01*
X66632Y464763D01*
X66617Y464863D01*
X66589Y464932D01*
X66571Y465004D01*
X66525Y465093D01*
X66488Y465187D01*
X66446Y465248D01*
X66412Y465314D01*
X66347Y465390D01*
X66289Y465473D01*
X66234Y465523D01*
X66186Y465579D01*
X66105Y465639D01*
X66031Y465706D01*
X65965Y465742D01*
X65906Y465787D01*
X65813Y465826D01*
X65726Y465875D01*
X65654Y465895D01*
X65586Y465925D01*
X65487Y465942D01*
X65390Y465970D01*
X65290Y465978D01*
X65243Y465986D01*
X65207Y465984D01*
X65146Y465989D01*
X29385Y465989D01*
X29285Y465978D01*
X29185Y465976D01*
X29113Y465958D01*
X29039Y465949D01*
X28944Y465915D01*
X28847Y465891D01*
X28781Y465857D01*
X28711Y465832D01*
X28626Y465777D01*
X28537Y465731D01*
X28481Y465683D01*
X28418Y465643D01*
X28348Y465571D01*
X28272Y465505D01*
X28228Y465446D01*
X28176Y465392D01*
X28124Y465306D01*
X28065Y465225D01*
X28035Y465157D01*
X27997Y465093D01*
X27966Y464997D01*
X27927Y464905D01*
X27914Y464832D01*
X27891Y464761D01*
X27883Y464661D01*
X27865Y464562D01*
X27869Y464488D01*
X27863Y464414D01*
X27878Y464315D01*
X27883Y464214D01*
X27904Y464143D01*
X27915Y464069D01*
X27952Y463976D01*
X27980Y463879D01*
X28016Y463814D01*
X28043Y463745D01*
X28101Y463663D01*
X28150Y463575D01*
X28215Y463499D01*
X28242Y463459D01*
X28269Y463435D01*
X28308Y463389D01*
X28310Y463387D01*
X29973Y459373D01*
X29973Y455027D01*
X28310Y451013D01*
X25237Y447940D01*
X21223Y446277D01*
X16877Y446277D01*
X12863Y447940D01*
X12761Y448042D01*
X12682Y448104D01*
X12610Y448174D01*
X12546Y448212D01*
X12488Y448258D01*
X12397Y448301D01*
X12311Y448353D01*
X12240Y448376D01*
X12173Y448407D01*
X12075Y448429D01*
X11979Y448459D01*
X11905Y448465D01*
X11832Y448481D01*
X11732Y448479D01*
X11632Y448487D01*
X11558Y448476D01*
X11484Y448475D01*
X11386Y448450D01*
X11287Y448435D01*
X11218Y448408D01*
X11146Y448390D01*
X11057Y448344D01*
X10963Y448307D01*
X10902Y448264D01*
X10836Y448230D01*
X10760Y448165D01*
X10677Y448108D01*
X10627Y448053D01*
X10571Y448004D01*
X10511Y447924D01*
X10444Y447849D01*
X10408Y447784D01*
X10363Y447724D01*
X10324Y447632D01*
X10275Y447544D01*
X10255Y447472D01*
X10225Y447404D01*
X10208Y447305D01*
X10180Y447209D01*
X10172Y447108D01*
X10164Y447061D01*
X10166Y447026D01*
X10161Y446965D01*
X10161Y29285D01*
X10172Y29185D01*
X10174Y29085D01*
X10192Y29013D01*
X10201Y28939D01*
X10234Y28845D01*
X10259Y28747D01*
X10293Y28681D01*
X10318Y28611D01*
X10373Y28527D01*
X10419Y28437D01*
X10467Y28381D01*
X10507Y28318D01*
X10579Y28248D01*
X10644Y28172D01*
X10704Y28128D01*
X10758Y28076D01*
X10844Y28024D01*
X10925Y27965D01*
X10993Y27935D01*
X11057Y27897D01*
X11152Y27866D01*
X11245Y27827D01*
X11318Y27814D01*
X11389Y27791D01*
X11489Y27783D01*
X11588Y27765D01*
X11662Y27769D01*
X11736Y27763D01*
X11835Y27778D01*
X11936Y27783D01*
X12007Y27804D01*
X12081Y27815D01*
X12174Y27852D01*
X12271Y27880D01*
X12336Y27916D01*
X12405Y27943D01*
X12487Y28001D01*
X12575Y28050D01*
X12651Y28115D01*
X12691Y28142D01*
X12715Y28169D01*
X12761Y28208D01*
X12863Y28310D01*
X16877Y29973D01*
X21223Y29973D01*
X25237Y28310D01*
X28310Y25237D01*
X29973Y21223D01*
X29973Y16877D01*
X28310Y12863D01*
X28208Y12761D01*
X28146Y12682D01*
X28076Y12610D01*
X28038Y12546D01*
X27992Y12488D01*
X27949Y12397D01*
X27897Y12311D01*
X27874Y12240D01*
X27843Y12173D01*
X27821Y12075D01*
X27791Y11979D01*
X27785Y11905D01*
X27769Y11832D01*
X27771Y11732D01*
X27763Y11632D01*
X27774Y11558D01*
X27775Y11484D01*
X27800Y11386D01*
X27815Y11287D01*
X27842Y11218D01*
X27860Y11146D01*
X27906Y11057D01*
X27943Y10963D01*
X27986Y10902D01*
X28020Y10836D01*
X28085Y10760D01*
X28142Y10677D01*
X28197Y10627D01*
X28246Y10571D01*
X28326Y10511D01*
X28401Y10444D01*
X28466Y10408D01*
X28526Y10363D01*
X28618Y10324D01*
X28706Y10275D01*
X28778Y10255D01*
X28846Y10225D01*
X28945Y10208D01*
X29041Y10180D01*
X29142Y10172D01*
X29189Y10164D01*
X29224Y10166D01*
X29285Y10161D01*
X65246Y10161D01*
X65346Y10172D01*
G37*
G36*
X447065Y10172D02*
X447065Y10172D01*
X447165Y10174D01*
X447237Y10192D01*
X447311Y10201D01*
X447405Y10234D01*
X447503Y10259D01*
X447569Y10293D01*
X447639Y10318D01*
X447723Y10373D01*
X447813Y10419D01*
X447869Y10467D01*
X447932Y10507D01*
X448002Y10579D01*
X448078Y10644D01*
X448122Y10704D01*
X448174Y10758D01*
X448226Y10844D01*
X448285Y10925D01*
X448315Y10993D01*
X448353Y11057D01*
X448384Y11152D01*
X448423Y11245D01*
X448436Y11318D01*
X448459Y11389D01*
X448467Y11489D01*
X448485Y11588D01*
X448481Y11662D01*
X448487Y11736D01*
X448472Y11835D01*
X448467Y11936D01*
X448446Y12007D01*
X448435Y12081D01*
X448398Y12174D01*
X448370Y12271D01*
X448334Y12336D01*
X448307Y12405D01*
X448249Y12487D01*
X448200Y12575D01*
X448135Y12651D01*
X448108Y12691D01*
X448081Y12715D01*
X448042Y12761D01*
X447940Y12863D01*
X446277Y16877D01*
X446277Y21223D01*
X447940Y25237D01*
X451013Y28310D01*
X455027Y29973D01*
X459373Y29973D01*
X463400Y28305D01*
X463442Y28271D01*
X463515Y28201D01*
X463579Y28163D01*
X463637Y28117D01*
X463728Y28074D01*
X463814Y28022D01*
X463885Y27999D01*
X463952Y27968D01*
X464050Y27946D01*
X464146Y27916D01*
X464220Y27910D01*
X464293Y27894D01*
X464393Y27896D01*
X464493Y27888D01*
X464567Y27899D01*
X464641Y27900D01*
X464738Y27925D01*
X464838Y27940D01*
X464907Y27967D01*
X464979Y27985D01*
X465068Y28031D01*
X465162Y28068D01*
X465223Y28111D01*
X465289Y28145D01*
X465365Y28210D01*
X465448Y28267D01*
X465498Y28322D01*
X465554Y28371D01*
X465614Y28452D01*
X465681Y28526D01*
X465717Y28591D01*
X465761Y28651D01*
X465801Y28743D01*
X465850Y28831D01*
X465870Y28903D01*
X465900Y28971D01*
X465917Y29070D01*
X465945Y29166D01*
X465953Y29267D01*
X465961Y29314D01*
X465959Y29349D01*
X465964Y29410D01*
X465964Y119096D01*
X465953Y119196D01*
X465951Y119297D01*
X465933Y119369D01*
X465924Y119443D01*
X465891Y119537D01*
X465866Y119634D01*
X465832Y119701D01*
X465807Y119771D01*
X465752Y119855D01*
X465706Y119944D01*
X465658Y120001D01*
X465618Y120063D01*
X465546Y120133D01*
X465481Y120210D01*
X465421Y120254D01*
X465367Y120306D01*
X465281Y120357D01*
X465200Y120417D01*
X465132Y120446D01*
X465068Y120484D01*
X464972Y120515D01*
X464880Y120555D01*
X464807Y120568D01*
X464736Y120591D01*
X464636Y120599D01*
X464537Y120617D01*
X464463Y120613D01*
X464389Y120619D01*
X464289Y120604D01*
X464189Y120599D01*
X464118Y120578D01*
X464044Y120567D01*
X463951Y120530D01*
X463854Y120502D01*
X463789Y120466D01*
X463720Y120438D01*
X463638Y120381D01*
X463550Y120332D01*
X463474Y120267D01*
X463434Y120239D01*
X463410Y120213D01*
X463364Y120173D01*
X460500Y117310D01*
X458522Y116490D01*
X458455Y116453D01*
X458384Y116425D01*
X458303Y116369D01*
X458217Y116321D01*
X458161Y116270D01*
X458098Y116226D01*
X458032Y116153D01*
X457959Y116087D01*
X457916Y116024D01*
X457865Y115967D01*
X457817Y115881D01*
X457761Y115800D01*
X457733Y115729D01*
X457696Y115662D01*
X457669Y115567D01*
X457633Y115476D01*
X457622Y115400D01*
X457601Y115327D01*
X457589Y115178D01*
X457582Y115131D01*
X457584Y115112D01*
X457582Y115083D01*
X457582Y112827D01*
X442798Y98043D01*
X422055Y98043D01*
X421979Y98035D01*
X421903Y98036D01*
X421807Y98015D01*
X421709Y98003D01*
X421637Y97978D01*
X421562Y97961D01*
X421474Y97919D01*
X421381Y97886D01*
X421317Y97844D01*
X421248Y97812D01*
X421171Y97750D01*
X421088Y97697D01*
X421035Y97642D01*
X420975Y97594D01*
X420914Y97517D01*
X420846Y97446D01*
X420807Y97381D01*
X420759Y97321D01*
X420691Y97187D01*
X420667Y97147D01*
X420661Y97129D01*
X420648Y97103D01*
X420395Y96492D01*
X418960Y95057D01*
X418898Y94978D01*
X418828Y94906D01*
X418790Y94842D01*
X418743Y94784D01*
X418701Y94693D01*
X418649Y94607D01*
X418626Y94536D01*
X418595Y94469D01*
X418573Y94371D01*
X418543Y94275D01*
X418537Y94201D01*
X418521Y94128D01*
X418523Y94028D01*
X418515Y93928D01*
X418526Y93854D01*
X418527Y93780D01*
X418552Y93683D01*
X418566Y93583D01*
X418594Y93514D01*
X418612Y93442D01*
X418658Y93353D01*
X418695Y93259D01*
X418738Y93198D01*
X418772Y93132D01*
X418837Y93056D01*
X418894Y92973D01*
X418949Y92923D01*
X418998Y92867D01*
X419078Y92807D01*
X419153Y92740D01*
X419218Y92704D01*
X419278Y92659D01*
X419370Y92620D01*
X419458Y92571D01*
X419530Y92551D01*
X419598Y92521D01*
X419697Y92504D01*
X419793Y92476D01*
X419893Y92468D01*
X419941Y92460D01*
X419977Y92462D01*
X420037Y92457D01*
X433273Y92457D01*
X435803Y89927D01*
X439177Y86553D01*
X441707Y84023D01*
X441707Y69630D01*
X441715Y69554D01*
X441714Y69478D01*
X441735Y69382D01*
X441747Y69284D01*
X441772Y69212D01*
X441789Y69137D01*
X441831Y69049D01*
X441864Y68956D01*
X441906Y68892D01*
X441938Y68823D01*
X442000Y68746D01*
X442053Y68663D01*
X442108Y68610D01*
X442156Y68550D01*
X442233Y68489D01*
X442304Y68421D01*
X442369Y68382D01*
X442429Y68334D01*
X442563Y68266D01*
X442603Y68242D01*
X442621Y68236D01*
X442647Y68223D01*
X443258Y67970D01*
X445795Y65433D01*
X447168Y62119D01*
X447168Y58531D01*
X445795Y55217D01*
X443258Y52680D01*
X441194Y51825D01*
X441192Y51824D01*
X441190Y51824D01*
X441043Y51741D01*
X440890Y51656D01*
X440888Y51655D01*
X440886Y51654D01*
X440700Y51495D01*
X433273Y44068D01*
X417627Y44068D01*
X400675Y61020D01*
X400673Y61021D01*
X400672Y61023D01*
X400533Y61133D01*
X400402Y61237D01*
X400400Y61237D01*
X400399Y61239D01*
X400181Y61350D01*
X398117Y62205D01*
X395580Y64742D01*
X394207Y68056D01*
X394207Y71644D01*
X395580Y74958D01*
X398117Y77495D01*
X401431Y78868D01*
X405019Y78868D01*
X408333Y77495D01*
X410870Y74958D01*
X412243Y71644D01*
X412243Y68056D01*
X410870Y64742D01*
X410019Y63891D01*
X410002Y63870D01*
X409982Y63853D01*
X409894Y63734D01*
X409802Y63618D01*
X409791Y63594D01*
X409775Y63573D01*
X409716Y63437D01*
X409653Y63303D01*
X409648Y63277D01*
X409637Y63253D01*
X409611Y63107D01*
X409580Y62962D01*
X409580Y62936D01*
X409575Y62910D01*
X409583Y62761D01*
X409586Y62613D01*
X409592Y62588D01*
X409593Y62562D01*
X409634Y62419D01*
X409671Y62275D01*
X409683Y62252D01*
X409690Y62227D01*
X409762Y62097D01*
X409830Y61966D01*
X409847Y61946D01*
X409860Y61923D01*
X410019Y61736D01*
X420127Y51628D01*
X420226Y51549D01*
X420320Y51465D01*
X420362Y51441D01*
X420400Y51411D01*
X420514Y51357D01*
X420625Y51296D01*
X420672Y51283D01*
X420715Y51262D01*
X420839Y51236D01*
X420960Y51201D01*
X421021Y51196D01*
X421056Y51189D01*
X421104Y51190D01*
X421204Y51182D01*
X429696Y51182D01*
X429821Y51196D01*
X429948Y51203D01*
X429994Y51216D01*
X430042Y51222D01*
X430161Y51264D01*
X430282Y51299D01*
X430325Y51323D01*
X430370Y51339D01*
X430476Y51408D01*
X430587Y51469D01*
X430633Y51509D01*
X430663Y51528D01*
X430696Y51563D01*
X430773Y51628D01*
X431356Y52211D01*
X431373Y52232D01*
X431393Y52249D01*
X431481Y52368D01*
X431573Y52484D01*
X431584Y52508D01*
X431600Y52529D01*
X431659Y52665D01*
X431722Y52800D01*
X431727Y52825D01*
X431738Y52849D01*
X431764Y52995D01*
X431795Y53140D01*
X431795Y53166D01*
X431800Y53192D01*
X431792Y53341D01*
X431789Y53489D01*
X431783Y53514D01*
X431782Y53540D01*
X431741Y53682D01*
X431704Y53827D01*
X431692Y53850D01*
X431685Y53875D01*
X431613Y54004D01*
X431545Y54136D01*
X431528Y54156D01*
X431515Y54179D01*
X431356Y54366D01*
X430505Y55217D01*
X429132Y58531D01*
X429132Y62119D01*
X430505Y65433D01*
X433042Y67970D01*
X433653Y68223D01*
X433720Y68260D01*
X433791Y68288D01*
X433872Y68344D01*
X433958Y68392D01*
X434014Y68444D01*
X434077Y68487D01*
X434143Y68560D01*
X434216Y68626D01*
X434259Y68689D01*
X434310Y68746D01*
X434358Y68832D01*
X434414Y68913D01*
X434442Y68984D01*
X434479Y69051D01*
X434506Y69146D01*
X434542Y69237D01*
X434553Y69313D01*
X434574Y69386D01*
X434586Y69535D01*
X434593Y69582D01*
X434591Y69601D01*
X434593Y69630D01*
X434593Y80446D01*
X434579Y80571D01*
X434572Y80698D01*
X434559Y80744D01*
X434553Y80792D01*
X434511Y80911D01*
X434476Y81032D01*
X434452Y81075D01*
X434436Y81120D01*
X434367Y81226D01*
X434306Y81337D01*
X434266Y81383D01*
X434247Y81413D01*
X434212Y81446D01*
X434147Y81523D01*
X430773Y84897D01*
X430674Y84976D01*
X430580Y85060D01*
X430538Y85084D01*
X430500Y85114D01*
X430386Y85168D01*
X430275Y85229D01*
X430228Y85242D01*
X430185Y85263D01*
X430061Y85289D01*
X429940Y85324D01*
X429879Y85329D01*
X429844Y85336D01*
X429796Y85335D01*
X429696Y85343D01*
X408102Y85343D01*
X405572Y87873D01*
X399023Y94422D01*
X396493Y96952D01*
X396493Y150698D01*
X398577Y152782D01*
X403445Y152782D01*
X403521Y152790D01*
X403597Y152789D01*
X403693Y152810D01*
X403791Y152822D01*
X403863Y152847D01*
X403938Y152864D01*
X404026Y152906D01*
X404119Y152939D01*
X404183Y152981D01*
X404252Y153013D01*
X404329Y153075D01*
X404412Y153128D01*
X404465Y153183D01*
X404525Y153231D01*
X404586Y153308D01*
X404654Y153379D01*
X404693Y153444D01*
X404741Y153504D01*
X404809Y153638D01*
X404833Y153678D01*
X404839Y153696D01*
X404852Y153722D01*
X405105Y154333D01*
X407642Y156870D01*
X410956Y158243D01*
X414544Y158243D01*
X417858Y156870D01*
X420395Y154333D01*
X421768Y151019D01*
X421768Y147431D01*
X420395Y144117D01*
X417858Y141580D01*
X414544Y140207D01*
X410956Y140207D01*
X407642Y141580D01*
X406207Y143015D01*
X406128Y143077D01*
X406056Y143147D01*
X405992Y143185D01*
X405934Y143232D01*
X405843Y143274D01*
X405757Y143326D01*
X405686Y143349D01*
X405619Y143380D01*
X405521Y143402D01*
X405425Y143432D01*
X405351Y143438D01*
X405278Y143454D01*
X405178Y143452D01*
X405078Y143460D01*
X405004Y143449D01*
X404930Y143448D01*
X404833Y143423D01*
X404733Y143409D01*
X404664Y143381D01*
X404592Y143363D01*
X404503Y143317D01*
X404409Y143280D01*
X404348Y143237D01*
X404282Y143203D01*
X404206Y143138D01*
X404123Y143081D01*
X404073Y143026D01*
X404017Y142977D01*
X403957Y142897D01*
X403890Y142822D01*
X403854Y142757D01*
X403809Y142697D01*
X403770Y142605D01*
X403721Y142517D01*
X403701Y142445D01*
X403671Y142377D01*
X403654Y142278D01*
X403626Y142182D01*
X403618Y142082D01*
X403610Y142034D01*
X403612Y141998D01*
X403607Y141938D01*
X403607Y108887D01*
X403618Y108787D01*
X403620Y108687D01*
X403638Y108615D01*
X403647Y108541D01*
X403680Y108446D01*
X403705Y108349D01*
X403739Y108283D01*
X403764Y108213D01*
X403819Y108128D01*
X403865Y108039D01*
X403913Y107983D01*
X403953Y107920D01*
X404025Y107850D01*
X404090Y107774D01*
X404150Y107730D01*
X404204Y107678D01*
X404290Y107626D01*
X404371Y107567D01*
X404439Y107537D01*
X404503Y107499D01*
X404599Y107468D01*
X404691Y107429D01*
X404764Y107415D01*
X404835Y107393D01*
X404935Y107385D01*
X405034Y107367D01*
X405108Y107371D01*
X405182Y107365D01*
X405282Y107380D01*
X405382Y107385D01*
X405453Y107405D01*
X405527Y107416D01*
X405620Y107454D01*
X405717Y107481D01*
X405782Y107518D01*
X405851Y107545D01*
X405933Y107602D01*
X406021Y107652D01*
X406097Y107717D01*
X406137Y107744D01*
X406161Y107771D01*
X406207Y107810D01*
X407642Y109245D01*
X410956Y110618D01*
X414544Y110618D01*
X417858Y109245D01*
X420395Y106708D01*
X420648Y106097D01*
X420685Y106030D01*
X420713Y105959D01*
X420769Y105878D01*
X420817Y105792D01*
X420869Y105736D01*
X420912Y105673D01*
X420985Y105607D01*
X421051Y105534D01*
X421114Y105491D01*
X421171Y105440D01*
X421257Y105392D01*
X421338Y105336D01*
X421409Y105308D01*
X421476Y105271D01*
X421571Y105244D01*
X421662Y105208D01*
X421738Y105197D01*
X421811Y105176D01*
X421960Y105164D01*
X422007Y105157D01*
X422026Y105159D01*
X422055Y105157D01*
X439221Y105157D01*
X439346Y105171D01*
X439473Y105178D01*
X439519Y105191D01*
X439567Y105197D01*
X439686Y105239D01*
X439807Y105274D01*
X439850Y105298D01*
X439895Y105314D01*
X440001Y105383D01*
X440112Y105444D01*
X440158Y105484D01*
X440188Y105503D01*
X440221Y105538D01*
X440298Y105603D01*
X449088Y114393D01*
X449181Y114510D01*
X449278Y114625D01*
X449289Y114647D01*
X449304Y114666D01*
X449369Y114802D01*
X449437Y114936D01*
X449443Y114959D01*
X449453Y114981D01*
X449485Y115128D01*
X449521Y115274D01*
X449522Y115298D01*
X449527Y115322D01*
X449524Y115471D01*
X449526Y115622D01*
X449521Y115646D01*
X449521Y115670D01*
X449484Y115816D01*
X449452Y115963D01*
X449442Y115985D01*
X449436Y116008D01*
X449367Y116142D01*
X449302Y116277D01*
X449287Y116296D01*
X449276Y116318D01*
X449179Y116432D01*
X449085Y116550D01*
X449066Y116565D01*
X449050Y116583D01*
X448930Y116673D01*
X448811Y116766D01*
X448785Y116779D01*
X448770Y116790D01*
X448727Y116809D01*
X448594Y116877D01*
X447550Y117310D01*
X444335Y120525D01*
X442594Y124726D01*
X442594Y129274D01*
X444335Y133475D01*
X447550Y136690D01*
X451418Y138293D01*
X451506Y138341D01*
X451598Y138381D01*
X451658Y138426D01*
X451723Y138462D01*
X451797Y138530D01*
X451878Y138589D01*
X451926Y138646D01*
X451981Y138696D01*
X452038Y138779D01*
X452103Y138855D01*
X452137Y138922D01*
X452179Y138983D01*
X452216Y139076D01*
X452262Y139166D01*
X452280Y139238D01*
X452307Y139307D01*
X452321Y139406D01*
X452346Y139504D01*
X452347Y139578D01*
X452358Y139652D01*
X452349Y139752D01*
X452351Y139852D01*
X452335Y139925D01*
X452329Y139999D01*
X452298Y140095D01*
X452276Y140193D01*
X452245Y140260D01*
X452222Y140331D01*
X452170Y140417D01*
X452127Y140508D01*
X452080Y140566D01*
X452042Y140629D01*
X451972Y140702D01*
X451909Y140780D01*
X451851Y140826D01*
X451799Y140879D01*
X451715Y140934D01*
X451636Y140996D01*
X451546Y141042D01*
X451506Y141068D01*
X451472Y141080D01*
X451418Y141107D01*
X447550Y142710D01*
X444335Y145925D01*
X443515Y147903D01*
X443482Y147963D01*
X443478Y147974D01*
X443475Y147978D01*
X443450Y148041D01*
X443394Y148122D01*
X443346Y148208D01*
X443295Y148264D01*
X443251Y148327D01*
X443178Y148393D01*
X443112Y148466D01*
X443049Y148509D01*
X442992Y148560D01*
X442906Y148608D01*
X442825Y148664D01*
X442754Y148692D01*
X442687Y148729D01*
X442592Y148756D01*
X442501Y148792D01*
X442425Y148803D01*
X442352Y148824D01*
X442203Y148836D01*
X442156Y148843D01*
X442137Y148841D01*
X442108Y148843D01*
X439852Y148843D01*
X424423Y164272D01*
X424324Y164351D01*
X424230Y164435D01*
X424188Y164459D01*
X424150Y164489D01*
X424036Y164543D01*
X423925Y164604D01*
X423878Y164617D01*
X423835Y164638D01*
X423711Y164664D01*
X423590Y164699D01*
X423529Y164704D01*
X423494Y164711D01*
X423446Y164710D01*
X423346Y164718D01*
X398577Y164718D01*
X380618Y182677D01*
X380618Y221313D01*
X380607Y221413D01*
X380605Y221513D01*
X380587Y221585D01*
X380578Y221659D01*
X380545Y221754D01*
X380520Y221851D01*
X380486Y221917D01*
X380461Y221987D01*
X380406Y222072D01*
X380360Y222161D01*
X380312Y222217D01*
X380272Y222280D01*
X380200Y222350D01*
X380135Y222426D01*
X380075Y222470D01*
X380021Y222522D01*
X379935Y222574D01*
X379854Y222633D01*
X379786Y222663D01*
X379722Y222701D01*
X379626Y222732D01*
X379534Y222771D01*
X379461Y222785D01*
X379390Y222807D01*
X379290Y222815D01*
X379191Y222833D01*
X379117Y222829D01*
X379043Y222835D01*
X378943Y222820D01*
X378843Y222815D01*
X378772Y222795D01*
X378698Y222784D01*
X378605Y222746D01*
X378508Y222719D01*
X378443Y222682D01*
X378374Y222655D01*
X378292Y222598D01*
X378204Y222548D01*
X378128Y222483D01*
X378088Y222456D01*
X378064Y222429D01*
X378018Y222390D01*
X376583Y220955D01*
X373269Y219582D01*
X369681Y219582D01*
X366367Y220955D01*
X363830Y223492D01*
X362457Y226806D01*
X362457Y230394D01*
X363830Y233708D01*
X366367Y236245D01*
X369681Y237618D01*
X373269Y237618D01*
X376583Y236245D01*
X379120Y233708D01*
X379373Y233097D01*
X379410Y233030D01*
X379438Y232959D01*
X379494Y232878D01*
X379542Y232792D01*
X379594Y232736D01*
X379637Y232673D01*
X379710Y232607D01*
X379776Y232534D01*
X379839Y232491D01*
X379896Y232440D01*
X379982Y232392D01*
X380063Y232336D01*
X380134Y232308D01*
X380201Y232271D01*
X380296Y232244D01*
X380387Y232208D01*
X380463Y232197D01*
X380536Y232176D01*
X380685Y232164D01*
X380732Y232157D01*
X380751Y232159D01*
X380780Y232157D01*
X382473Y232157D01*
X385003Y229627D01*
X385202Y229428D01*
X387732Y226898D01*
X387732Y186254D01*
X387746Y186129D01*
X387753Y186002D01*
X387766Y185956D01*
X387772Y185908D01*
X387814Y185789D01*
X387849Y185668D01*
X387873Y185625D01*
X387889Y185580D01*
X387958Y185474D01*
X388019Y185363D01*
X388059Y185317D01*
X388078Y185287D01*
X388113Y185254D01*
X388178Y185177D01*
X401077Y172278D01*
X401176Y172199D01*
X401270Y172115D01*
X401312Y172091D01*
X401350Y172061D01*
X401464Y172007D01*
X401575Y171946D01*
X401622Y171933D01*
X401665Y171912D01*
X401789Y171886D01*
X401910Y171851D01*
X401971Y171846D01*
X402006Y171839D01*
X402054Y171840D01*
X402154Y171832D01*
X426923Y171832D01*
X441418Y157337D01*
X441536Y157244D01*
X441650Y157147D01*
X441672Y157136D01*
X441691Y157121D01*
X441827Y157056D01*
X441961Y156988D01*
X441984Y156982D01*
X442006Y156972D01*
X442153Y156940D01*
X442299Y156904D01*
X442323Y156903D01*
X442347Y156898D01*
X442496Y156901D01*
X442647Y156899D01*
X442671Y156904D01*
X442695Y156904D01*
X442841Y156941D01*
X442988Y156973D01*
X443010Y156983D01*
X443033Y156989D01*
X443167Y157058D01*
X443302Y157123D01*
X443321Y157138D01*
X443343Y157149D01*
X443457Y157246D01*
X443575Y157340D01*
X443590Y157359D01*
X443608Y157375D01*
X443698Y157495D01*
X443791Y157614D01*
X443804Y157640D01*
X443815Y157655D01*
X443834Y157698D01*
X443902Y157831D01*
X444335Y158875D01*
X447550Y162090D01*
X451751Y163831D01*
X456299Y163831D01*
X460500Y162090D01*
X463364Y159227D01*
X463442Y159164D01*
X463515Y159094D01*
X463579Y159056D01*
X463637Y159010D01*
X463728Y158967D01*
X463814Y158916D01*
X463885Y158893D01*
X463952Y158861D01*
X464050Y158840D01*
X464146Y158809D01*
X464220Y158803D01*
X464293Y158788D01*
X464393Y158789D01*
X464493Y158781D01*
X464567Y158792D01*
X464641Y158794D01*
X464738Y158818D01*
X464838Y158833D01*
X464907Y158861D01*
X464979Y158879D01*
X465068Y158925D01*
X465162Y158962D01*
X465223Y159004D01*
X465289Y159038D01*
X465365Y159103D01*
X465448Y159161D01*
X465498Y159216D01*
X465554Y159264D01*
X465614Y159345D01*
X465681Y159419D01*
X465717Y159485D01*
X465762Y159544D01*
X465801Y159637D01*
X465850Y159724D01*
X465870Y159796D01*
X465900Y159864D01*
X465917Y159963D01*
X465945Y160060D01*
X465953Y160160D01*
X465961Y160207D01*
X465959Y160243D01*
X465964Y160304D01*
X465964Y195296D01*
X465953Y195396D01*
X465951Y195497D01*
X465933Y195569D01*
X465924Y195643D01*
X465891Y195737D01*
X465866Y195834D01*
X465832Y195901D01*
X465807Y195971D01*
X465752Y196055D01*
X465706Y196144D01*
X465658Y196201D01*
X465618Y196263D01*
X465546Y196333D01*
X465481Y196410D01*
X465421Y196454D01*
X465367Y196506D01*
X465281Y196557D01*
X465200Y196617D01*
X465132Y196646D01*
X465068Y196684D01*
X464972Y196715D01*
X464880Y196755D01*
X464807Y196768D01*
X464736Y196791D01*
X464636Y196799D01*
X464537Y196817D01*
X464463Y196813D01*
X464389Y196819D01*
X464289Y196804D01*
X464189Y196799D01*
X464118Y196778D01*
X464044Y196767D01*
X463951Y196730D01*
X463854Y196702D01*
X463789Y196666D01*
X463720Y196638D01*
X463638Y196581D01*
X463550Y196532D01*
X463474Y196467D01*
X463434Y196439D01*
X463410Y196413D01*
X463364Y196373D01*
X460500Y193510D01*
X456299Y191769D01*
X451751Y191769D01*
X447550Y193510D01*
X444335Y196725D01*
X443902Y197769D01*
X443829Y197900D01*
X443760Y198034D01*
X443745Y198052D01*
X443733Y198073D01*
X443632Y198185D01*
X443534Y198299D01*
X443515Y198313D01*
X443499Y198331D01*
X443375Y198417D01*
X443254Y198506D01*
X443232Y198516D01*
X443212Y198530D01*
X443072Y198585D01*
X442934Y198644D01*
X442910Y198649D01*
X442888Y198657D01*
X442739Y198679D01*
X442591Y198706D01*
X442567Y198705D01*
X442543Y198708D01*
X442393Y198696D01*
X442243Y198688D01*
X442220Y198681D01*
X442196Y198679D01*
X442053Y198633D01*
X441908Y198591D01*
X441887Y198580D01*
X441864Y198572D01*
X441736Y198495D01*
X441604Y198421D01*
X441582Y198402D01*
X441565Y198393D01*
X441532Y198360D01*
X441418Y198263D01*
X435803Y192648D01*
X433273Y190118D01*
X413052Y190118D01*
X412927Y190104D01*
X412800Y190097D01*
X412754Y190084D01*
X412706Y190078D01*
X412587Y190036D01*
X412465Y190001D01*
X412423Y189977D01*
X412378Y189961D01*
X412272Y189892D01*
X412161Y189831D01*
X412115Y189791D01*
X412085Y189772D01*
X412051Y189737D01*
X411975Y189672D01*
X411508Y189205D01*
X408194Y187832D01*
X404606Y187832D01*
X401292Y189205D01*
X398755Y191742D01*
X397382Y195056D01*
X397382Y198644D01*
X398755Y201958D01*
X401292Y204495D01*
X404606Y205868D01*
X406582Y205868D01*
X406707Y205882D01*
X406834Y205889D01*
X406880Y205902D01*
X406928Y205908D01*
X407047Y205950D01*
X407168Y205985D01*
X407211Y206009D01*
X407256Y206025D01*
X407362Y206094D01*
X407473Y206155D01*
X407519Y206195D01*
X407549Y206214D01*
X407582Y206249D01*
X407659Y206314D01*
X427152Y225807D01*
X428845Y225807D01*
X428921Y225815D01*
X428997Y225814D01*
X429093Y225835D01*
X429191Y225847D01*
X429263Y225872D01*
X429338Y225889D01*
X429426Y225931D01*
X429519Y225964D01*
X429583Y226006D01*
X429652Y226038D01*
X429729Y226100D01*
X429812Y226153D01*
X429865Y226208D01*
X429925Y226256D01*
X429986Y226333D01*
X430054Y226404D01*
X430093Y226469D01*
X430141Y226529D01*
X430209Y226663D01*
X430233Y226703D01*
X430239Y226721D01*
X430252Y226747D01*
X430505Y227358D01*
X433042Y229895D01*
X436356Y231268D01*
X439944Y231268D01*
X443167Y229932D01*
X443193Y229925D01*
X443216Y229913D01*
X443360Y229878D01*
X443503Y229837D01*
X443529Y229835D01*
X443554Y229829D01*
X443703Y229827D01*
X443851Y229820D01*
X443876Y229824D01*
X443903Y229824D01*
X444048Y229856D01*
X444193Y229882D01*
X444218Y229893D01*
X444243Y229898D01*
X444377Y229962D01*
X444513Y230021D01*
X444534Y230037D01*
X444558Y230048D01*
X444674Y230141D01*
X444793Y230229D01*
X444810Y230249D01*
X444830Y230265D01*
X444922Y230382D01*
X445018Y230495D01*
X445030Y230518D01*
X445046Y230539D01*
X445158Y230757D01*
X446380Y233708D01*
X448917Y236245D01*
X449528Y236498D01*
X449595Y236535D01*
X449666Y236563D01*
X449747Y236619D01*
X449833Y236667D01*
X449889Y236719D01*
X449952Y236762D01*
X450018Y236835D01*
X450091Y236901D01*
X450134Y236964D01*
X450185Y237021D01*
X450233Y237107D01*
X450289Y237188D01*
X450317Y237259D01*
X450354Y237326D01*
X450381Y237421D01*
X450417Y237512D01*
X450428Y237588D01*
X450449Y237661D01*
X450461Y237810D01*
X450468Y237857D01*
X450466Y237876D01*
X450468Y237905D01*
X450468Y238908D01*
X450460Y238984D01*
X450461Y239060D01*
X450440Y239157D01*
X450428Y239254D01*
X450403Y239326D01*
X450386Y239401D01*
X450344Y239490D01*
X450311Y239582D01*
X450269Y239647D01*
X450237Y239715D01*
X450175Y239792D01*
X450122Y239875D01*
X450067Y239928D01*
X450019Y239988D01*
X449942Y240049D01*
X449871Y240117D01*
X449806Y240156D01*
X449746Y240204D01*
X449613Y240272D01*
X449572Y240296D01*
X449554Y240302D01*
X449528Y240315D01*
X447550Y241135D01*
X444335Y244350D01*
X442732Y248218D01*
X442684Y248306D01*
X442643Y248398D01*
X442599Y248458D01*
X442563Y248523D01*
X442496Y248597D01*
X442436Y248678D01*
X442379Y248726D01*
X442329Y248781D01*
X442246Y248838D01*
X442170Y248903D01*
X442103Y248937D01*
X442042Y248979D01*
X441949Y249016D01*
X441859Y249062D01*
X441787Y249080D01*
X441718Y249107D01*
X441619Y249121D01*
X441521Y249146D01*
X441447Y249147D01*
X441373Y249158D01*
X441273Y249149D01*
X441173Y249151D01*
X441100Y249135D01*
X441026Y249129D01*
X440930Y249098D01*
X440832Y249076D01*
X440765Y249045D01*
X440694Y249022D01*
X440608Y248970D01*
X440517Y248927D01*
X440459Y248880D01*
X440396Y248842D01*
X440324Y248772D01*
X440245Y248709D01*
X440199Y248651D01*
X440146Y248599D01*
X440091Y248515D01*
X440029Y248436D01*
X439983Y248346D01*
X439957Y248306D01*
X439945Y248272D01*
X439918Y248218D01*
X438315Y244350D01*
X435100Y241135D01*
X430899Y239394D01*
X426351Y239394D01*
X422150Y241135D01*
X418935Y244350D01*
X418115Y246328D01*
X418078Y246395D01*
X418050Y246466D01*
X417994Y246547D01*
X417946Y246633D01*
X417895Y246689D01*
X417851Y246752D01*
X417778Y246818D01*
X417712Y246891D01*
X417649Y246934D01*
X417592Y246985D01*
X417506Y247033D01*
X417425Y247089D01*
X417354Y247117D01*
X417287Y247154D01*
X417192Y247181D01*
X417101Y247217D01*
X417025Y247228D01*
X416952Y247249D01*
X416803Y247261D01*
X416756Y247268D01*
X416737Y247266D01*
X416708Y247268D01*
X411277Y247268D01*
X408747Y249798D01*
X404115Y254430D01*
X404055Y254478D01*
X404002Y254533D01*
X403919Y254586D01*
X403842Y254647D01*
X403773Y254679D01*
X403708Y254721D01*
X403616Y254754D01*
X403527Y254796D01*
X403452Y254812D01*
X403380Y254837D01*
X403282Y254848D01*
X403186Y254869D01*
X403110Y254868D01*
X403034Y254876D01*
X402936Y254865D01*
X402838Y254863D01*
X402763Y254845D01*
X402688Y254836D01*
X402545Y254790D01*
X402500Y254778D01*
X402483Y254769D01*
X402455Y254760D01*
X401844Y254507D01*
X398256Y254507D01*
X394942Y255880D01*
X392405Y258417D01*
X391032Y261731D01*
X391032Y265319D01*
X392405Y268633D01*
X393840Y270068D01*
X393902Y270147D01*
X393972Y270219D01*
X394010Y270283D01*
X394057Y270341D01*
X394099Y270432D01*
X394151Y270518D01*
X394174Y270589D01*
X394205Y270656D01*
X394227Y270754D01*
X394257Y270850D01*
X394263Y270924D01*
X394279Y270997D01*
X394277Y271097D01*
X394285Y271197D01*
X394274Y271271D01*
X394273Y271345D01*
X394248Y271442D01*
X394234Y271542D01*
X394206Y271611D01*
X394188Y271683D01*
X394142Y271772D01*
X394105Y271866D01*
X394062Y271927D01*
X394028Y271993D01*
X393963Y272069D01*
X393906Y272152D01*
X393851Y272202D01*
X393802Y272258D01*
X393722Y272318D01*
X393647Y272385D01*
X393582Y272421D01*
X393522Y272466D01*
X393430Y272505D01*
X393342Y272554D01*
X393270Y272574D01*
X393202Y272604D01*
X393103Y272621D01*
X393007Y272649D01*
X392907Y272657D01*
X392859Y272665D01*
X392823Y272663D01*
X392763Y272668D01*
X392629Y272668D01*
X392504Y272654D01*
X392377Y272647D01*
X392331Y272634D01*
X392283Y272628D01*
X392164Y272586D01*
X392043Y272551D01*
X392000Y272527D01*
X391955Y272511D01*
X391849Y272442D01*
X391738Y272381D01*
X391692Y272341D01*
X391662Y272322D01*
X391629Y272287D01*
X391552Y272222D01*
X385648Y266318D01*
X269439Y266318D01*
X269339Y266307D01*
X269239Y266305D01*
X269167Y266287D01*
X269093Y266278D01*
X268998Y266245D01*
X268901Y266220D01*
X268835Y266186D01*
X268765Y266161D01*
X268680Y266106D01*
X268591Y266060D01*
X268534Y266012D01*
X268472Y265972D01*
X268402Y265900D01*
X268326Y265835D01*
X268282Y265775D01*
X268230Y265721D01*
X268178Y265635D01*
X268119Y265554D01*
X268089Y265486D01*
X268051Y265422D01*
X268020Y265326D01*
X267981Y265234D01*
X267967Y265161D01*
X267945Y265090D01*
X267937Y264990D01*
X267919Y264891D01*
X267923Y264817D01*
X267917Y264743D01*
X267932Y264643D01*
X267937Y264543D01*
X267957Y264472D01*
X267968Y264398D01*
X268006Y264305D01*
X268033Y264208D01*
X268070Y264143D01*
X268097Y264074D01*
X268154Y263992D01*
X268204Y263904D01*
X268269Y263828D01*
X268296Y263788D01*
X268323Y263764D01*
X268362Y263718D01*
X313119Y218961D01*
X313119Y201469D01*
X313131Y201369D01*
X313132Y201268D01*
X313151Y201196D01*
X313159Y201122D01*
X313193Y201028D01*
X313217Y200930D01*
X313252Y200864D01*
X313277Y200794D01*
X313331Y200710D01*
X313377Y200621D01*
X313425Y200564D01*
X313466Y200502D01*
X313538Y200432D01*
X313603Y200355D01*
X313663Y200311D01*
X313716Y200259D01*
X313802Y200208D01*
X313883Y200148D01*
X313952Y200119D01*
X314015Y200080D01*
X314111Y200050D01*
X314203Y200010D01*
X314277Y199997D01*
X314347Y199974D01*
X314447Y199966D01*
X314546Y199948D01*
X314621Y199952D01*
X314695Y199946D01*
X314794Y199961D01*
X314894Y199966D01*
X314966Y199987D01*
X315039Y199998D01*
X315133Y200035D01*
X315229Y200063D01*
X315294Y200099D01*
X315363Y200127D01*
X315446Y200184D01*
X315533Y200233D01*
X315610Y200298D01*
X315649Y200326D01*
X315673Y200352D01*
X315720Y200392D01*
X316181Y200853D01*
X322377Y207049D01*
X333519Y207049D01*
X333619Y207060D01*
X333719Y207062D01*
X333791Y207080D01*
X333865Y207089D01*
X333960Y207122D01*
X334057Y207147D01*
X334123Y207181D01*
X334193Y207206D01*
X334278Y207261D01*
X334367Y207307D01*
X334423Y207355D01*
X334486Y207395D01*
X334556Y207467D01*
X334632Y207532D01*
X334676Y207592D01*
X334728Y207646D01*
X334780Y207732D01*
X334839Y207813D01*
X334869Y207881D01*
X334907Y207945D01*
X334938Y208041D01*
X334977Y208133D01*
X334991Y208206D01*
X335013Y208277D01*
X335021Y208377D01*
X335039Y208476D01*
X335035Y208550D01*
X335041Y208624D01*
X335026Y208724D01*
X335021Y208824D01*
X335001Y208895D01*
X334990Y208969D01*
X334952Y209062D01*
X334925Y209159D01*
X334888Y209224D01*
X334861Y209293D01*
X334804Y209375D01*
X334754Y209463D01*
X334689Y209539D01*
X334662Y209579D01*
X334635Y209603D01*
X334596Y209649D01*
X332547Y211698D01*
X326643Y217602D01*
X326643Y241520D01*
X326635Y241596D01*
X326636Y241672D01*
X326615Y241768D01*
X326603Y241866D01*
X326578Y241938D01*
X326561Y242013D01*
X326519Y242101D01*
X326486Y242194D01*
X326444Y242258D01*
X326412Y242327D01*
X326350Y242404D01*
X326297Y242487D01*
X326242Y242540D01*
X326194Y242600D01*
X326117Y242661D01*
X326046Y242729D01*
X325981Y242768D01*
X325921Y242816D01*
X325787Y242884D01*
X325747Y242908D01*
X325729Y242914D01*
X325703Y242927D01*
X325092Y243180D01*
X322555Y245717D01*
X321182Y249031D01*
X321182Y252619D01*
X322555Y255933D01*
X325092Y258470D01*
X328406Y259843D01*
X331994Y259843D01*
X335308Y258470D01*
X337845Y255933D01*
X339218Y252619D01*
X339218Y250500D01*
X339235Y250351D01*
X339247Y250201D01*
X339255Y250178D01*
X339258Y250154D01*
X339308Y250013D01*
X339354Y249869D01*
X339367Y249848D01*
X339375Y249826D01*
X339457Y249699D01*
X339534Y249571D01*
X339551Y249553D01*
X339564Y249533D01*
X339672Y249428D01*
X339777Y249321D01*
X339797Y249308D01*
X339815Y249291D01*
X339944Y249213D01*
X340070Y249132D01*
X340093Y249124D01*
X340114Y249112D01*
X340257Y249066D01*
X340399Y249016D01*
X340423Y249013D01*
X340446Y249006D01*
X340595Y248994D01*
X340745Y248977D01*
X340769Y248980D01*
X340793Y248978D01*
X340942Y249000D01*
X341091Y249018D01*
X341119Y249027D01*
X341138Y249029D01*
X341182Y249047D01*
X341324Y249093D01*
X344281Y250318D01*
X347869Y250318D01*
X351183Y248945D01*
X353720Y246408D01*
X355093Y243094D01*
X355093Y239506D01*
X353720Y236192D01*
X351183Y233655D01*
X350572Y233402D01*
X350505Y233365D01*
X350434Y233337D01*
X350353Y233281D01*
X350267Y233233D01*
X350211Y233181D01*
X350148Y233138D01*
X350082Y233065D01*
X350009Y232999D01*
X349966Y232936D01*
X349915Y232879D01*
X349867Y232793D01*
X349811Y232712D01*
X349783Y232641D01*
X349746Y232574D01*
X349719Y232479D01*
X349683Y232388D01*
X349672Y232312D01*
X349651Y232239D01*
X349639Y232090D01*
X349632Y232043D01*
X349634Y232024D01*
X349632Y231995D01*
X349632Y224155D01*
X349635Y224129D01*
X349633Y224103D01*
X349655Y223956D01*
X349672Y223809D01*
X349680Y223784D01*
X349684Y223758D01*
X349739Y223620D01*
X349789Y223481D01*
X349803Y223459D01*
X349813Y223434D01*
X349898Y223313D01*
X349978Y223188D01*
X349997Y223170D01*
X350012Y223148D01*
X350122Y223049D01*
X350229Y222946D01*
X350251Y222932D01*
X350271Y222915D01*
X350401Y222843D01*
X350528Y222767D01*
X350553Y222759D01*
X350576Y222746D01*
X350719Y222706D01*
X350860Y222661D01*
X350886Y222659D01*
X350911Y222651D01*
X351155Y222632D01*
X353898Y222632D01*
X368682Y207848D01*
X368682Y179502D01*
X362778Y173598D01*
X362699Y173499D01*
X362615Y173405D01*
X362591Y173363D01*
X362561Y173325D01*
X362507Y173211D01*
X362446Y173100D01*
X362433Y173053D01*
X362412Y173010D01*
X362386Y172886D01*
X362351Y172765D01*
X362346Y172704D01*
X362339Y172669D01*
X362340Y172621D01*
X362332Y172521D01*
X362332Y68779D01*
X362346Y68654D01*
X362353Y68527D01*
X362366Y68481D01*
X362372Y68433D01*
X362414Y68314D01*
X362449Y68193D01*
X362473Y68150D01*
X362489Y68105D01*
X362558Y67999D01*
X362619Y67888D01*
X362659Y67842D01*
X362678Y67812D01*
X362713Y67779D01*
X362778Y67702D01*
X372502Y57978D01*
X372601Y57899D01*
X372695Y57815D01*
X372737Y57791D01*
X372775Y57761D01*
X372889Y57707D01*
X373000Y57646D01*
X373047Y57633D01*
X373090Y57612D01*
X373214Y57586D01*
X373335Y57551D01*
X373396Y57546D01*
X373431Y57539D01*
X373479Y57540D01*
X373579Y57532D01*
X398348Y57532D01*
X400878Y55002D01*
X422713Y33167D01*
X422773Y33119D01*
X422826Y33064D01*
X422909Y33011D01*
X422986Y32950D01*
X423055Y32917D01*
X423120Y32876D01*
X423212Y32843D01*
X423301Y32801D01*
X423376Y32785D01*
X423448Y32759D01*
X423546Y32748D01*
X423642Y32728D01*
X423718Y32729D01*
X423794Y32720D01*
X423892Y32732D01*
X423991Y32734D01*
X424065Y32752D01*
X424141Y32761D01*
X424283Y32807D01*
X424329Y32819D01*
X424346Y32828D01*
X424373Y32836D01*
X426351Y33656D01*
X430899Y33656D01*
X435100Y31915D01*
X438315Y28700D01*
X440056Y24499D01*
X440056Y19951D01*
X438315Y15750D01*
X435327Y12761D01*
X435264Y12683D01*
X435194Y12610D01*
X435156Y12546D01*
X435110Y12488D01*
X435067Y12397D01*
X435016Y12311D01*
X434993Y12240D01*
X434961Y12173D01*
X434940Y12075D01*
X434909Y11979D01*
X434903Y11905D01*
X434888Y11832D01*
X434889Y11732D01*
X434881Y11632D01*
X434892Y11558D01*
X434894Y11484D01*
X434918Y11387D01*
X434933Y11287D01*
X434961Y11218D01*
X434979Y11146D01*
X435025Y11057D01*
X435062Y10963D01*
X435104Y10902D01*
X435138Y10836D01*
X435203Y10760D01*
X435261Y10677D01*
X435316Y10627D01*
X435364Y10571D01*
X435445Y10511D01*
X435519Y10444D01*
X435585Y10408D01*
X435644Y10363D01*
X435737Y10324D01*
X435824Y10275D01*
X435896Y10255D01*
X435964Y10225D01*
X436063Y10208D01*
X436160Y10180D01*
X436260Y10172D01*
X436307Y10164D01*
X436343Y10166D01*
X436404Y10161D01*
X446965Y10161D01*
X447065Y10172D01*
G37*
G36*
X113182Y264987D02*
X113182Y264987D01*
X113282Y264992D01*
X113353Y265012D01*
X113427Y265023D01*
X113520Y265061D01*
X113617Y265088D01*
X113682Y265125D01*
X113751Y265152D01*
X113833Y265209D01*
X113921Y265259D01*
X113997Y265324D01*
X114037Y265351D01*
X114061Y265378D01*
X114107Y265417D01*
X116558Y267868D01*
X118932Y268851D01*
X119020Y268900D01*
X119112Y268940D01*
X119172Y268985D01*
X119237Y269021D01*
X119311Y269088D01*
X119392Y269148D01*
X119440Y269205D01*
X119495Y269255D01*
X119552Y269337D01*
X119617Y269414D01*
X119651Y269480D01*
X119693Y269541D01*
X119730Y269635D01*
X119776Y269724D01*
X119794Y269797D01*
X119821Y269866D01*
X119836Y269965D01*
X119860Y270063D01*
X119861Y270137D01*
X119872Y270210D01*
X119863Y270311D01*
X119865Y270411D01*
X119849Y270484D01*
X119843Y270558D01*
X119812Y270653D01*
X119791Y270751D01*
X119759Y270819D01*
X119736Y270889D01*
X119684Y270976D01*
X119641Y271066D01*
X119595Y271124D01*
X119556Y271188D01*
X119486Y271260D01*
X119424Y271339D01*
X119365Y271385D01*
X119313Y271438D01*
X119229Y271492D01*
X119150Y271555D01*
X119061Y271600D01*
X119020Y271626D01*
X118986Y271638D01*
X118932Y271666D01*
X118717Y271755D01*
X116180Y274292D01*
X114807Y277606D01*
X114807Y281194D01*
X116180Y284508D01*
X118717Y287045D01*
X122031Y288418D01*
X125619Y288418D01*
X128933Y287045D01*
X129400Y286578D01*
X129499Y286499D01*
X129593Y286415D01*
X129635Y286391D01*
X129673Y286361D01*
X129787Y286307D01*
X129898Y286246D01*
X129944Y286233D01*
X129988Y286212D01*
X130112Y286186D01*
X130233Y286151D01*
X130294Y286146D01*
X130329Y286139D01*
X130377Y286140D01*
X130477Y286132D01*
X184586Y286132D01*
X184686Y286143D01*
X184786Y286145D01*
X184858Y286163D01*
X184932Y286172D01*
X185027Y286205D01*
X185124Y286230D01*
X185190Y286264D01*
X185260Y286289D01*
X185345Y286344D01*
X185434Y286390D01*
X185491Y286438D01*
X185553Y286478D01*
X185623Y286550D01*
X185699Y286615D01*
X185743Y286675D01*
X185795Y286729D01*
X185847Y286815D01*
X185906Y286896D01*
X185936Y286964D01*
X185974Y287028D01*
X186005Y287124D01*
X186044Y287216D01*
X186058Y287289D01*
X186080Y287360D01*
X186088Y287460D01*
X186106Y287559D01*
X186102Y287633D01*
X186108Y287707D01*
X186093Y287807D01*
X186088Y287907D01*
X186068Y287978D01*
X186057Y288052D01*
X186019Y288145D01*
X185992Y288242D01*
X185955Y288307D01*
X185928Y288376D01*
X185871Y288458D01*
X185821Y288546D01*
X185756Y288622D01*
X185729Y288662D01*
X185702Y288686D01*
X185663Y288732D01*
X157723Y316672D01*
X157624Y316751D01*
X157530Y316835D01*
X157488Y316859D01*
X157450Y316889D01*
X157336Y316943D01*
X157225Y317004D01*
X157178Y317017D01*
X157135Y317038D01*
X157011Y317064D01*
X156890Y317099D01*
X156829Y317104D01*
X156794Y317111D01*
X156746Y317110D01*
X156646Y317118D01*
X149005Y317118D01*
X148929Y317110D01*
X148853Y317111D01*
X148757Y317090D01*
X148659Y317078D01*
X148587Y317053D01*
X148512Y317036D01*
X148424Y316994D01*
X148331Y316961D01*
X148267Y316919D01*
X148198Y316887D01*
X148121Y316825D01*
X148038Y316772D01*
X147985Y316717D01*
X147925Y316669D01*
X147864Y316592D01*
X147796Y316521D01*
X147757Y316456D01*
X147709Y316396D01*
X147641Y316262D01*
X147617Y316222D01*
X147611Y316204D01*
X147598Y316178D01*
X147345Y315567D01*
X144808Y313030D01*
X141494Y311657D01*
X137906Y311657D01*
X134592Y313030D01*
X132055Y315567D01*
X130682Y318881D01*
X130682Y322469D01*
X132055Y325783D01*
X134494Y328222D01*
X134510Y328242D01*
X134530Y328259D01*
X134619Y328379D01*
X134711Y328495D01*
X134722Y328519D01*
X134737Y328540D01*
X134796Y328676D01*
X134859Y328810D01*
X134865Y328836D01*
X134875Y328860D01*
X134902Y329006D01*
X134933Y329151D01*
X134932Y329177D01*
X134937Y329203D01*
X134929Y329351D01*
X134927Y329499D01*
X134920Y329525D01*
X134919Y329551D01*
X134878Y329693D01*
X134842Y329837D01*
X134830Y329861D01*
X134823Y329886D01*
X134750Y330015D01*
X134682Y330147D01*
X134665Y330167D01*
X134652Y330190D01*
X134494Y330376D01*
X130415Y334455D01*
X130394Y334472D01*
X130377Y334492D01*
X130258Y334580D01*
X130142Y334672D01*
X130118Y334683D01*
X130097Y334699D01*
X129961Y334758D01*
X129827Y334821D01*
X129801Y334826D01*
X129777Y334837D01*
X129631Y334863D01*
X129486Y334894D01*
X129460Y334894D01*
X129434Y334899D01*
X129285Y334891D01*
X129137Y334888D01*
X129112Y334882D01*
X129086Y334881D01*
X128943Y334840D01*
X128799Y334803D01*
X128776Y334791D01*
X128751Y334784D01*
X128622Y334712D01*
X128490Y334644D01*
X128470Y334627D01*
X128447Y334614D01*
X128260Y334455D01*
X125885Y332080D01*
X122571Y330707D01*
X118983Y330707D01*
X115669Y332080D01*
X113132Y334617D01*
X111759Y337931D01*
X111759Y341519D01*
X113132Y344833D01*
X115669Y347370D01*
X118983Y348743D01*
X122801Y348743D01*
X122842Y348737D01*
X122916Y348743D01*
X122989Y348739D01*
X123089Y348757D01*
X123190Y348766D01*
X123260Y348788D01*
X123332Y348801D01*
X123425Y348842D01*
X123521Y348873D01*
X123584Y348911D01*
X123652Y348940D01*
X123733Y349000D01*
X123820Y349052D01*
X123873Y349104D01*
X123932Y349148D01*
X123998Y349225D01*
X124070Y349295D01*
X124110Y349357D01*
X124157Y349414D01*
X124203Y349504D01*
X124258Y349589D01*
X124283Y349658D01*
X124316Y349724D01*
X124341Y349822D01*
X124375Y349917D01*
X124383Y349990D01*
X124401Y350062D01*
X124402Y350163D01*
X124414Y350263D01*
X124405Y350337D01*
X124406Y350410D01*
X124385Y350509D01*
X124373Y350609D01*
X124342Y350704D01*
X124332Y350750D01*
X124332Y354346D01*
X125705Y357660D01*
X127013Y358968D01*
X127075Y359047D01*
X127145Y359119D01*
X127183Y359183D01*
X127230Y359241D01*
X127272Y359332D01*
X127324Y359418D01*
X127347Y359489D01*
X127378Y359556D01*
X127400Y359654D01*
X127430Y359750D01*
X127436Y359824D01*
X127452Y359897D01*
X127450Y359997D01*
X127458Y360097D01*
X127447Y360171D01*
X127446Y360245D01*
X127421Y360342D01*
X127407Y360442D01*
X127379Y360511D01*
X127361Y360583D01*
X127315Y360672D01*
X127278Y360766D01*
X127235Y360827D01*
X127201Y360893D01*
X127136Y360969D01*
X127079Y361052D01*
X127024Y361102D01*
X126975Y361158D01*
X126895Y361218D01*
X126820Y361285D01*
X126755Y361321D01*
X126695Y361366D01*
X126603Y361405D01*
X126515Y361454D01*
X126443Y361474D01*
X126375Y361504D01*
X126276Y361521D01*
X126180Y361549D01*
X126080Y361557D01*
X126032Y361565D01*
X125996Y361563D01*
X125936Y361568D01*
X122754Y361568D01*
X122629Y361554D01*
X122502Y361547D01*
X122456Y361534D01*
X122408Y361528D01*
X122289Y361486D01*
X122168Y361451D01*
X122125Y361427D01*
X122080Y361411D01*
X121974Y361342D01*
X121863Y361281D01*
X121817Y361241D01*
X121787Y361222D01*
X121754Y361187D01*
X121677Y361122D01*
X108778Y348223D01*
X108699Y348124D01*
X108615Y348030D01*
X108591Y347988D01*
X108561Y347950D01*
X108507Y347836D01*
X108446Y347725D01*
X108433Y347678D01*
X108412Y347635D01*
X108386Y347511D01*
X108351Y347390D01*
X108346Y347329D01*
X108339Y347294D01*
X108340Y347246D01*
X108332Y347146D01*
X108332Y335479D01*
X108346Y335354D01*
X108353Y335227D01*
X108366Y335181D01*
X108372Y335133D01*
X108414Y335014D01*
X108449Y334893D01*
X108473Y334850D01*
X108489Y334805D01*
X108558Y334699D01*
X108619Y334588D01*
X108659Y334542D01*
X108678Y334512D01*
X108713Y334479D01*
X108778Y334402D01*
X111507Y331673D01*
X111507Y266494D01*
X111518Y266394D01*
X111520Y266294D01*
X111538Y266222D01*
X111547Y266148D01*
X111580Y266053D01*
X111605Y265956D01*
X111639Y265890D01*
X111664Y265820D01*
X111719Y265735D01*
X111765Y265646D01*
X111813Y265590D01*
X111853Y265527D01*
X111925Y265457D01*
X111990Y265381D01*
X112050Y265337D01*
X112104Y265285D01*
X112190Y265233D01*
X112271Y265174D01*
X112339Y265144D01*
X112403Y265106D01*
X112499Y265075D01*
X112591Y265036D01*
X112664Y265022D01*
X112735Y265000D01*
X112835Y264992D01*
X112934Y264974D01*
X113008Y264978D01*
X113082Y264972D01*
X113182Y264987D01*
G37*
%LPC*%
G36*
X23227Y357377D02*
X23227Y357377D01*
X19213Y359040D01*
X16140Y362113D01*
X14477Y366127D01*
X14477Y392223D01*
X16140Y396237D01*
X19213Y399310D01*
X23227Y400973D01*
X27573Y400973D01*
X31587Y399310D01*
X34660Y396237D01*
X36323Y392223D01*
X36323Y366127D01*
X34660Y362113D01*
X31587Y359040D01*
X27573Y357377D01*
X23227Y357377D01*
G37*
%LPD*%
D10*
X25400Y410050D03*
X25400Y390050D03*
D11*
X47625Y454025D03*
X73025Y454025D03*
X98425Y454025D03*
X123825Y454025D03*
X149225Y454025D03*
X174625Y454025D03*
X200025Y454025D03*
X225425Y454025D03*
X250825Y454025D03*
X276225Y454025D03*
X301625Y454025D03*
X327025Y454025D03*
X352425Y454025D03*
X377825Y454025D03*
X403225Y454025D03*
X428625Y454025D03*
X47625Y22225D03*
X73025Y22225D03*
X98425Y22225D03*
X123825Y22225D03*
X149225Y22225D03*
X174625Y22225D03*
X200025Y22225D03*
X225425Y22225D03*
X250825Y22225D03*
X276225Y22225D03*
X301625Y22225D03*
X327025Y22225D03*
X352425Y22225D03*
X377825Y22225D03*
X403225Y22225D03*
X428625Y22225D03*
X428625Y352425D03*
X454025Y352425D03*
X428625Y327025D03*
X454025Y327025D03*
X428625Y301625D03*
X454025Y301625D03*
X428625Y276225D03*
X454025Y276225D03*
X428625Y250825D03*
X454025Y250825D03*
X454025Y127000D03*
X454025Y152400D03*
X454025Y177800D03*
X454025Y203200D03*
D12*
X73025Y67691D03*
X361950Y253873D03*
X152400Y298450D03*
X17145Y196850D03*
D13*
X47625Y431800D02*
X47625Y454025D01*
X47625Y431800D02*
X47150Y431800D01*
X25400Y410050D01*
X47625Y57150D02*
X47625Y22225D01*
X58166Y67691D02*
X73025Y67691D01*
X58166Y67691D02*
X47625Y57150D01*
D12*
X392113Y363538D03*
D13*
X392113Y366713D01*
X381000Y377825D01*
D12*
X381000Y377825D03*
D13*
X428625Y301625D02*
X454025Y301625D01*
D12*
X320675Y288925D03*
D13*
X320675Y317500D01*
X381000Y377825D01*
D12*
X47625Y431800D03*
X234950Y381000D03*
X419100Y73025D03*
X73025Y431800D03*
D13*
X73025Y454025D01*
X88900Y415925D02*
X117475Y415925D01*
D12*
X228600Y396875D03*
D13*
X130175Y403225D02*
X117475Y415925D01*
X228600Y396875D02*
X403225Y396875D01*
X409575Y330200D02*
X412750Y327025D01*
X428625Y327025D01*
X409575Y330200D02*
X409575Y390525D01*
X88900Y415925D02*
X73025Y431800D01*
X428625Y327025D02*
X454025Y327025D01*
X454025Y203200D02*
X441325Y203200D01*
X431800Y193675D01*
X409575Y193675D01*
X400050Y314325D02*
X412750Y327025D01*
D12*
X400050Y314325D03*
X438150Y222250D03*
D13*
X428625Y222250D01*
X406400Y200025D01*
X406400Y196850D01*
D12*
X403225Y69850D03*
D13*
X403225Y63500D01*
X419100Y47625D01*
X431800Y47625D01*
X438150Y53975D01*
X438150Y60325D01*
X438150Y82550D01*
X431800Y88900D01*
X409575Y88900D02*
X400050Y98425D01*
X400050Y149225D01*
X409575Y88900D02*
X431800Y88900D01*
X412750Y149225D02*
X400050Y149225D01*
D12*
X412750Y149225D03*
X406400Y196850D03*
D13*
X409575Y193675D01*
X73025Y41275D02*
X73025Y22225D01*
X73025Y41275D02*
X88900Y57150D01*
X88900Y69850D01*
X53975Y104775D01*
X53975Y234950D01*
X85725Y266700D02*
X85725Y336550D01*
X85725Y266700D02*
X53975Y234950D01*
D12*
X85725Y336550D03*
X196850Y158750D03*
D13*
X196850Y114300D01*
X254000Y57150D01*
X257175Y57150D01*
D12*
X257175Y57150D03*
X438150Y60325D03*
X441325Y425450D03*
D13*
X441325Y403225D01*
X406400Y393700D02*
X403225Y396875D01*
X406400Y393700D02*
X409575Y390525D01*
X409575Y396875D02*
X403225Y396875D01*
X409575Y396875D02*
X415925Y396875D01*
X434975Y396875D01*
X441325Y403225D01*
X412750Y393700D02*
X409575Y390525D01*
X412750Y393700D02*
X415925Y396875D01*
X409575Y396875D02*
X409575Y390525D01*
X222250Y403225D02*
X130175Y403225D01*
X222250Y403225D02*
X228600Y396875D01*
X406400Y393700D02*
X412750Y393700D01*
D12*
X111252Y170434D03*
D13*
X108077Y206375D02*
X95377Y219075D01*
X108077Y206375D02*
X108077Y173609D01*
X111252Y170434D01*
D12*
X95377Y219075D03*
X95250Y170434D03*
D13*
X95250Y200025D01*
D12*
X95250Y200025D03*
X25400Y368300D03*
D14*
X25400Y390050D01*
D12*
X282575Y174742D03*
D13*
X279400Y171567D01*
X279400Y127000D01*
X295275Y111125D01*
X333375Y111125D01*
X339725Y117475D01*
D12*
X330200Y190500D03*
D13*
X330200Y161925D02*
X339725Y152400D01*
X330200Y161925D02*
X330200Y190500D01*
X339725Y152400D02*
X339725Y117475D01*
D12*
X123825Y152400D03*
X136525Y40894D03*
D13*
X123825Y53594D02*
X123825Y152400D01*
X123825Y53594D02*
X136525Y40894D01*
X123825Y28194D01*
X123825Y22225D01*
D12*
X454025Y228600D03*
D13*
X454025Y250825D01*
D12*
X120777Y339725D03*
X342900Y200317D03*
D13*
X339725Y200317D01*
X336550Y203492D01*
X323850Y203492D01*
X317208Y196850D01*
X317208Y159042D01*
X333375Y142875D01*
X333375Y123825D01*
X330200Y120650D01*
X298450Y120650D01*
X285750Y133350D01*
X285750Y158750D01*
X295275Y168275D01*
X295275Y190500D01*
X279400Y206375D02*
X279400Y225425D01*
X206375Y298450D01*
X193675Y298450D01*
X158750Y333375D01*
X136525Y333375D01*
X130175Y339725D01*
X120777Y339725D01*
X279400Y206375D02*
X295275Y190500D01*
X98425Y34925D02*
X98425Y22225D01*
X98425Y34925D02*
X114300Y50800D01*
X114300Y82550D01*
X79375Y117475D01*
X127000Y228600D02*
X171450Y228600D01*
X177800Y222250D01*
X79375Y228600D02*
X79375Y117475D01*
X79375Y228600D02*
X95250Y244475D01*
X111125Y244475D01*
X127000Y228600D01*
X177800Y222250D02*
X177800Y177800D01*
X184150Y171450D02*
X184150Y104775D01*
X238125Y50800D02*
X241300Y50800D01*
X238125Y50800D02*
X184150Y104775D01*
D12*
X241300Y50800D03*
D13*
X184150Y171450D02*
X177800Y177800D01*
D12*
X412750Y101600D03*
D13*
X441325Y101600D01*
X454025Y114300D01*
X454025Y127000D01*
D12*
X371475Y228600D03*
D13*
X381000Y228600D02*
X384175Y225425D01*
X381000Y228600D02*
X371475Y228600D01*
X400050Y168275D02*
X425450Y168275D01*
X441325Y152400D01*
X454025Y152400D01*
X384175Y184150D02*
X384175Y225425D01*
X384175Y184150D02*
X400050Y168275D01*
D12*
X101600Y69850D03*
D13*
X66675Y104775D01*
X98425Y263525D02*
X98425Y358775D01*
X111125Y371475D01*
X171450Y358775D02*
X180975Y358775D01*
X203200Y336550D01*
X219075Y336550D02*
X279400Y276225D01*
X66675Y231775D02*
X66675Y104775D01*
X66675Y231775D02*
X98425Y263525D01*
X111125Y371475D02*
X158750Y371475D01*
X171450Y358775D01*
X203200Y336550D02*
X219075Y336550D01*
X279400Y276225D02*
X377825Y276225D01*
X390525Y288925D01*
D12*
X400050Y288925D03*
X400050Y263525D03*
D13*
X412750Y250825D01*
X428625Y250825D01*
X400050Y288925D02*
X390525Y288925D01*
D12*
X193675Y184150D03*
D13*
X193675Y219075D01*
X177800Y234950D01*
X107950Y330200D02*
X104775Y333375D01*
X104775Y349250D01*
X120650Y365125D01*
X155575Y365125D01*
X168275Y352425D01*
X171450Y352425D01*
X200025Y323850D01*
X215900Y323850D02*
X269875Y269875D01*
X177800Y234950D02*
X130175Y234950D01*
X107950Y257175D01*
X107950Y330200D01*
X200025Y323850D02*
X215900Y323850D01*
X269875Y269875D02*
X384175Y269875D01*
X390525Y276225D01*
X428625Y276225D01*
D12*
X320675Y136525D03*
X133350Y352552D03*
D13*
X146177Y339725D01*
X161925Y339725D01*
X303213Y211138D02*
X303213Y166688D01*
X292100Y155575D01*
X292100Y142875D01*
X193675Y307975D02*
X161925Y339725D01*
X193675Y307975D02*
X206375Y307975D01*
X303213Y211138D01*
X292100Y142875D02*
X298450Y136525D01*
X320675Y136525D01*
D12*
X304800Y152400D03*
X152400Y352425D03*
D13*
X309563Y217488D02*
X309563Y157163D01*
X304800Y152400D01*
X196850Y314325D02*
X158750Y352425D01*
X152400Y352425D01*
X196850Y314325D02*
X212725Y314325D01*
X309563Y217488D01*
D12*
X406400Y428625D03*
D13*
X406400Y431800D01*
X428625Y454025D01*
D12*
X387350Y428625D03*
D13*
X387350Y438150D01*
X403225Y454025D01*
D12*
X368300Y428625D03*
D13*
X368300Y444500D01*
X377825Y454025D01*
D12*
X330200Y428625D03*
D13*
X352425Y450850D02*
X352425Y454025D01*
X352425Y450850D02*
X330200Y428625D01*
D12*
X136652Y415925D03*
D13*
X143002Y409575D01*
X310896Y437896D02*
X311150Y437896D01*
X310896Y437896D02*
X282575Y409575D01*
X327025Y453771D02*
X327025Y454025D01*
X327025Y453771D02*
X311150Y437896D01*
X282575Y409575D02*
X143002Y409575D01*
D12*
X117475Y428625D03*
D13*
X142875Y428625D01*
X155575Y415925D01*
X301625Y438150D02*
X301625Y454025D01*
X301625Y438150D02*
X279400Y415925D01*
X155575Y415925D01*
D12*
X108966Y231727D03*
D13*
X108966Y215852D02*
X117475Y207343D01*
X108966Y215852D02*
X108966Y231727D01*
X117475Y207343D02*
X117475Y187325D01*
X123825Y180975D01*
X123825Y171450D01*
X136525Y158750D01*
X149225Y53975D02*
X149225Y22225D01*
X149225Y53975D02*
X136525Y66675D01*
X136525Y158750D01*
D12*
X126861Y216039D03*
D13*
X126861Y190639D01*
X133350Y184150D02*
X133350Y171450D01*
X146050Y158750D01*
X133350Y184150D02*
X126861Y190639D01*
X146050Y69850D02*
X174625Y41275D01*
X146050Y69850D02*
X146050Y158750D01*
X174625Y41275D02*
X174625Y22225D01*
D12*
X276225Y428625D03*
D13*
X276225Y454025D01*
D12*
X257175Y428625D03*
D13*
X257175Y447675D02*
X250825Y454025D01*
X257175Y447675D02*
X257175Y428625D01*
D12*
X238125Y428625D03*
D13*
X238125Y441325D02*
X225425Y454025D01*
X238125Y441325D02*
X238125Y428625D01*
D12*
X219341Y428359D03*
D13*
X200025Y447675D02*
X200025Y454025D01*
X200025Y447675D02*
X219341Y428359D01*
D12*
X200152Y428625D03*
D13*
X199057Y428625D01*
X174625Y453057D01*
X174625Y454025D01*
D12*
X180975Y428625D03*
D13*
X177800Y428625D01*
X152400Y454025D01*
X149225Y454025D01*
D12*
X159131Y428625D03*
D13*
X152781Y428625D01*
X127381Y454025D01*
X123825Y454025D01*
D12*
X98679Y431800D03*
D13*
X98425Y431800D01*
X98425Y454025D01*
D12*
X158750Y213741D03*
D13*
X150241Y213741D01*
X136525Y200025D01*
X136525Y193675D01*
X142875Y187325D01*
X142875Y174625D01*
X155575Y161925D01*
X155575Y85725D02*
X200025Y41275D01*
X155575Y85725D02*
X155575Y161925D01*
X200025Y41275D02*
X200025Y22225D01*
D12*
X150466Y196014D03*
D13*
X150466Y176559D01*
X165100Y161925D01*
X165100Y98425D01*
X225425Y38100D02*
X225425Y22225D01*
X225425Y38100D02*
X165100Y98425D01*
D12*
X161441Y181459D03*
D13*
X174141Y168759D01*
X174141Y102084D01*
X250825Y25400D02*
X250825Y22225D01*
X250825Y25400D02*
X174141Y102084D01*
D12*
X346075Y241300D03*
D13*
X352425Y219075D02*
X365125Y206375D01*
X365125Y180975D01*
X358775Y174625D01*
X396875Y53975D02*
X428625Y22225D01*
X352425Y219075D02*
X346075Y219075D01*
X346075Y241300D01*
X358775Y66675D02*
X371475Y53975D01*
X396875Y53975D01*
X358775Y66675D02*
X358775Y174625D01*
D12*
X330200Y250825D03*
D13*
X330200Y219075D01*
X381000Y44450D02*
X403225Y22225D01*
X355600Y203200D02*
X346075Y212725D01*
X355600Y203200D02*
X355600Y187325D01*
X349250Y180975D01*
X349250Y63500D02*
X368300Y44450D01*
X381000Y44450D01*
X349250Y63500D02*
X349250Y180975D01*
X336550Y212725D02*
X330200Y219075D01*
X336550Y212725D02*
X346075Y212725D01*
D12*
X139700Y320675D03*
D13*
X158750Y320675D01*
X190500Y288925D01*
X203200Y288925D01*
X263525Y228600D01*
X355600Y38100D02*
X361950Y38100D01*
X263525Y130175D02*
X263525Y228600D01*
X263525Y130175D02*
X355600Y38100D01*
X361950Y38100D02*
X377825Y22225D01*
D12*
X123825Y279400D03*
D13*
X130175Y282575D02*
X193675Y282575D01*
X127000Y279400D02*
X123825Y279400D01*
X127000Y279400D02*
X130175Y282575D01*
X193675Y282575D02*
X250825Y225425D01*
X250825Y130175D02*
X339725Y41275D01*
X339725Y34925D01*
X352425Y22225D01*
X250825Y130175D02*
X250825Y225425D01*
D12*
X121666Y260223D03*
D13*
X121666Y261366D01*
X136525Y276225D01*
X236220Y128071D02*
X327025Y37266D01*
X180975Y276225D02*
X136525Y276225D01*
X180975Y276225D02*
X236220Y220980D01*
X236220Y128071D01*
X327025Y37266D02*
X327025Y22225D01*
D12*
X140589Y264009D03*
D13*
X177316Y264009D01*
X224790Y216535D02*
X224790Y122792D01*
X301625Y45957D01*
X224790Y216535D02*
X177316Y264009D01*
X301625Y45957D02*
X301625Y22225D01*
D12*
X134366Y247602D03*
D13*
X137590Y250825D01*
X176966Y250825D01*
X212725Y215066D02*
X212725Y120650D01*
X276225Y57150D02*
X276225Y22225D01*
X212725Y215066D02*
X176966Y250825D01*
X212725Y120650D02*
X276225Y57150D01*
D12*
X307975Y415925D03*
D13*
X419100Y415925D01*
X422275Y412750D01*
D12*
X422275Y412750D03*
D15*
X19050Y457200D03*
X19050Y19050D03*
X457200Y19050D03*
X457200Y457200D03*
M02*
