G04 EAGLE Gerber RS-274X export*
G75*
%MOMM*%
%FSLAX34Y34*%
%LPD*%
%INSoldermask Top*%
%IPPOS*%
%AMOC8*
5,1,8,0,0,1.08239X$1,22.5*%
G01*
%ADD10R,1.603200X0.603200*%
%ADD11R,2.103200X2.003200*%
%ADD12R,2.103200X2.503200*%
%ADD13R,1.703200X0.503200*%
%ADD14R,1.303200X1.203200*%
%ADD15R,0.803200X1.203200*%
%ADD16R,1.173200X0.703200*%
%ADD17R,1.203200X1.303200*%
%ADD18C,1.854200*%
%ADD19R,1.203200X2.003200*%
%ADD20R,1.727200X0.965200*%
%ADD21R,0.603200X2.203200*%
%ADD22R,1.403200X1.403200*%
%ADD23R,1.295400X2.209800*%
%ADD24R,1.453200X0.803200*%
%ADD25R,3.993200X1.403200*%
%ADD26R,1.603200X1.653200*%
%ADD27R,1.053200X1.153200*%
%ADD28R,0.903200X1.503200*%
%ADD29C,2.082800*%
%ADD30R,2.403200X2.003200*%
%ADD31R,1.203200X1.603200*%
%ADD32R,1.403200X0.803200*%
%ADD33C,1.600200*%
%ADD34C,1.981200*%


D10*
X53900Y282875D03*
X53900Y276375D03*
X53900Y269875D03*
X53900Y263375D03*
X53900Y256875D03*
D11*
X25400Y281375D03*
X25400Y258375D03*
D12*
X25400Y307375D03*
X25400Y232375D03*
D13*
G36*
X300322Y298472D02*
X312364Y310514D01*
X315922Y306956D01*
X303880Y294914D01*
X300322Y298472D01*
G37*
G36*
X296786Y302007D02*
X308828Y314049D01*
X312386Y310491D01*
X300344Y298449D01*
X296786Y302007D01*
G37*
G36*
X293251Y305543D02*
X305293Y317585D01*
X308851Y314027D01*
X296809Y301985D01*
X293251Y305543D01*
G37*
G36*
X289715Y309078D02*
X301757Y321120D01*
X305315Y317562D01*
X293273Y305520D01*
X289715Y309078D01*
G37*
G36*
X286179Y312614D02*
X298221Y324656D01*
X301779Y321098D01*
X289737Y309056D01*
X286179Y312614D01*
G37*
G36*
X282644Y316149D02*
X294686Y328191D01*
X298244Y324633D01*
X286202Y312591D01*
X282644Y316149D01*
G37*
G36*
X279108Y319685D02*
X291150Y331727D01*
X294708Y328169D01*
X282666Y316127D01*
X279108Y319685D01*
G37*
G36*
X275573Y323220D02*
X287615Y335262D01*
X291173Y331704D01*
X279131Y319662D01*
X275573Y323220D01*
G37*
G36*
X272037Y326756D02*
X284079Y338798D01*
X287637Y335240D01*
X275595Y323198D01*
X272037Y326756D01*
G37*
G36*
X268502Y330291D02*
X280544Y342333D01*
X284102Y338775D01*
X272060Y326733D01*
X268502Y330291D01*
G37*
G36*
X264966Y333827D02*
X277008Y345869D01*
X280566Y342311D01*
X268524Y330269D01*
X264966Y333827D01*
G37*
G36*
X261431Y337362D02*
X273473Y349404D01*
X277031Y345846D01*
X264989Y333804D01*
X261431Y337362D01*
G37*
G36*
X257895Y340898D02*
X269937Y352940D01*
X273495Y349382D01*
X261453Y337340D01*
X257895Y340898D01*
G37*
G36*
X254360Y344434D02*
X266402Y356476D01*
X269960Y352918D01*
X257918Y340876D01*
X254360Y344434D01*
G37*
G36*
X250824Y347969D02*
X262866Y360011D01*
X266424Y356453D01*
X254382Y344411D01*
X250824Y347969D01*
G37*
G36*
X247289Y351505D02*
X259331Y363547D01*
X262889Y359989D01*
X250847Y347947D01*
X247289Y351505D01*
G37*
G36*
X231753Y347947D02*
X219711Y359989D01*
X223269Y363547D01*
X235311Y351505D01*
X231753Y347947D01*
G37*
G36*
X228218Y344411D02*
X216176Y356453D01*
X219734Y360011D01*
X231776Y347969D01*
X228218Y344411D01*
G37*
G36*
X224682Y340876D02*
X212640Y352918D01*
X216198Y356476D01*
X228240Y344434D01*
X224682Y340876D01*
G37*
G36*
X221147Y337340D02*
X209105Y349382D01*
X212663Y352940D01*
X224705Y340898D01*
X221147Y337340D01*
G37*
G36*
X217611Y333804D02*
X205569Y345846D01*
X209127Y349404D01*
X221169Y337362D01*
X217611Y333804D01*
G37*
G36*
X214076Y330269D02*
X202034Y342311D01*
X205592Y345869D01*
X217634Y333827D01*
X214076Y330269D01*
G37*
G36*
X210540Y326733D02*
X198498Y338775D01*
X202056Y342333D01*
X214098Y330291D01*
X210540Y326733D01*
G37*
G36*
X207005Y323198D02*
X194963Y335240D01*
X198521Y338798D01*
X210563Y326756D01*
X207005Y323198D01*
G37*
G36*
X203469Y319662D02*
X191427Y331704D01*
X194985Y335262D01*
X207027Y323220D01*
X203469Y319662D01*
G37*
G36*
X199934Y316127D02*
X187892Y328169D01*
X191450Y331727D01*
X203492Y319685D01*
X199934Y316127D01*
G37*
G36*
X196398Y312591D02*
X184356Y324633D01*
X187914Y328191D01*
X199956Y316149D01*
X196398Y312591D01*
G37*
G36*
X192863Y309056D02*
X180821Y321098D01*
X184379Y324656D01*
X196421Y312614D01*
X192863Y309056D01*
G37*
G36*
X189327Y305520D02*
X177285Y317562D01*
X180843Y321120D01*
X192885Y309078D01*
X189327Y305520D01*
G37*
G36*
X185791Y301985D02*
X173749Y314027D01*
X177307Y317585D01*
X189349Y305543D01*
X185791Y301985D01*
G37*
G36*
X182256Y298449D02*
X170214Y310491D01*
X173772Y314049D01*
X185814Y302007D01*
X182256Y298449D01*
G37*
G36*
X178720Y294914D02*
X166678Y306956D01*
X170236Y310514D01*
X182278Y298472D01*
X178720Y294914D01*
G37*
G36*
X182278Y279378D02*
X170236Y267336D01*
X166678Y270894D01*
X178720Y282936D01*
X182278Y279378D01*
G37*
G36*
X185814Y275843D02*
X173772Y263801D01*
X170214Y267359D01*
X182256Y279401D01*
X185814Y275843D01*
G37*
G36*
X189349Y272307D02*
X177307Y260265D01*
X173749Y263823D01*
X185791Y275865D01*
X189349Y272307D01*
G37*
G36*
X192885Y268772D02*
X180843Y256730D01*
X177285Y260288D01*
X189327Y272330D01*
X192885Y268772D01*
G37*
G36*
X196421Y265236D02*
X184379Y253194D01*
X180821Y256752D01*
X192863Y268794D01*
X196421Y265236D01*
G37*
G36*
X199956Y261701D02*
X187914Y249659D01*
X184356Y253217D01*
X196398Y265259D01*
X199956Y261701D01*
G37*
G36*
X203492Y258165D02*
X191450Y246123D01*
X187892Y249681D01*
X199934Y261723D01*
X203492Y258165D01*
G37*
G36*
X207027Y254630D02*
X194985Y242588D01*
X191427Y246146D01*
X203469Y258188D01*
X207027Y254630D01*
G37*
G36*
X210563Y251094D02*
X198521Y239052D01*
X194963Y242610D01*
X207005Y254652D01*
X210563Y251094D01*
G37*
G36*
X214098Y247559D02*
X202056Y235517D01*
X198498Y239075D01*
X210540Y251117D01*
X214098Y247559D01*
G37*
G36*
X217634Y244023D02*
X205592Y231981D01*
X202034Y235539D01*
X214076Y247581D01*
X217634Y244023D01*
G37*
G36*
X221169Y240488D02*
X209127Y228446D01*
X205569Y232004D01*
X217611Y244046D01*
X221169Y240488D01*
G37*
G36*
X224705Y236952D02*
X212663Y224910D01*
X209105Y228468D01*
X221147Y240510D01*
X224705Y236952D01*
G37*
G36*
X228240Y233416D02*
X216198Y221374D01*
X212640Y224932D01*
X224682Y236974D01*
X228240Y233416D01*
G37*
G36*
X231776Y229881D02*
X219734Y217839D01*
X216176Y221397D01*
X228218Y233439D01*
X231776Y229881D01*
G37*
G36*
X235311Y226345D02*
X223269Y214303D01*
X219711Y217861D01*
X231753Y229903D01*
X235311Y226345D01*
G37*
G36*
X250847Y229903D02*
X262889Y217861D01*
X259331Y214303D01*
X247289Y226345D01*
X250847Y229903D01*
G37*
G36*
X254382Y233439D02*
X266424Y221397D01*
X262866Y217839D01*
X250824Y229881D01*
X254382Y233439D01*
G37*
G36*
X257918Y236974D02*
X269960Y224932D01*
X266402Y221374D01*
X254360Y233416D01*
X257918Y236974D01*
G37*
G36*
X261453Y240510D02*
X273495Y228468D01*
X269937Y224910D01*
X257895Y236952D01*
X261453Y240510D01*
G37*
G36*
X264989Y244046D02*
X277031Y232004D01*
X273473Y228446D01*
X261431Y240488D01*
X264989Y244046D01*
G37*
G36*
X268524Y247581D02*
X280566Y235539D01*
X277008Y231981D01*
X264966Y244023D01*
X268524Y247581D01*
G37*
G36*
X272060Y251117D02*
X284102Y239075D01*
X280544Y235517D01*
X268502Y247559D01*
X272060Y251117D01*
G37*
G36*
X275595Y254652D02*
X287637Y242610D01*
X284079Y239052D01*
X272037Y251094D01*
X275595Y254652D01*
G37*
G36*
X279131Y258188D02*
X291173Y246146D01*
X287615Y242588D01*
X275573Y254630D01*
X279131Y258188D01*
G37*
G36*
X282666Y261723D02*
X294708Y249681D01*
X291150Y246123D01*
X279108Y258165D01*
X282666Y261723D01*
G37*
G36*
X286202Y265259D02*
X298244Y253217D01*
X294686Y249659D01*
X282644Y261701D01*
X286202Y265259D01*
G37*
G36*
X289737Y268794D02*
X301779Y256752D01*
X298221Y253194D01*
X286179Y265236D01*
X289737Y268794D01*
G37*
G36*
X293273Y272330D02*
X305315Y260288D01*
X301757Y256730D01*
X289715Y268772D01*
X293273Y272330D01*
G37*
G36*
X296809Y275865D02*
X308851Y263823D01*
X305293Y260265D01*
X293251Y272307D01*
X296809Y275865D01*
G37*
G36*
X300344Y279401D02*
X312386Y267359D01*
X308828Y263801D01*
X296786Y275843D01*
X300344Y279401D01*
G37*
G36*
X303880Y282936D02*
X315922Y270894D01*
X312364Y267336D01*
X300322Y279378D01*
X303880Y282936D01*
G37*
D14*
X76200Y204225D03*
X76200Y221225D03*
X50800Y204225D03*
X50800Y221225D03*
D15*
X101600Y381800D03*
X111100Y354800D03*
X92100Y354800D03*
D16*
X38375Y330050D03*
X38375Y343050D03*
X18775Y336550D03*
D17*
X67700Y301625D03*
X84700Y301625D03*
D18*
X25400Y410050D03*
X25400Y390050D03*
D19*
G36*
X373617Y319997D02*
X382125Y311489D01*
X367961Y297325D01*
X359453Y305833D01*
X373617Y319997D01*
G37*
G36*
X355939Y337675D02*
X364447Y329167D01*
X350283Y315003D01*
X341775Y323511D01*
X355939Y337675D01*
G37*
D14*
G36*
X393376Y324543D02*
X384162Y315329D01*
X375654Y323837D01*
X384868Y333051D01*
X393376Y324543D01*
G37*
G36*
X405396Y336563D02*
X396182Y327349D01*
X387674Y335857D01*
X396888Y345071D01*
X405396Y336563D01*
G37*
G36*
X377501Y340418D02*
X368287Y331204D01*
X359779Y339712D01*
X368993Y348926D01*
X377501Y340418D01*
G37*
G36*
X389521Y352438D02*
X380307Y343224D01*
X371799Y351732D01*
X381013Y360946D01*
X389521Y352438D01*
G37*
X101600Y113275D03*
X101600Y96275D03*
X333375Y176775D03*
X333375Y159775D03*
D20*
X121285Y136525D03*
X177165Y136525D03*
X121285Y98425D03*
X177165Y98425D03*
X259715Y98425D03*
X203835Y98425D03*
X259715Y136525D03*
X203835Y136525D03*
D17*
X101600Y128025D03*
X101600Y145025D03*
D21*
G36*
X327719Y339328D02*
X323453Y343594D01*
X339031Y359172D01*
X343297Y354906D01*
X327719Y339328D01*
G37*
G36*
X319234Y347813D02*
X314968Y352079D01*
X330546Y367657D01*
X334812Y363391D01*
X319234Y347813D01*
G37*
G36*
X336204Y330843D02*
X331938Y335109D01*
X347516Y350687D01*
X351782Y346421D01*
X336204Y330843D01*
G37*
D14*
G36*
X364801Y356293D02*
X355587Y347079D01*
X347079Y355587D01*
X356293Y364801D01*
X364801Y356293D01*
G37*
G36*
X376821Y368313D02*
X367607Y359099D01*
X359099Y367607D01*
X368313Y376821D01*
X376821Y368313D01*
G37*
G36*
X348926Y372168D02*
X339712Y362954D01*
X331204Y371462D01*
X340418Y380676D01*
X348926Y372168D01*
G37*
G36*
X360946Y384188D02*
X351732Y374974D01*
X343224Y383482D01*
X352438Y392696D01*
X360946Y384188D01*
G37*
X301625Y194700D03*
X301625Y211700D03*
D22*
X285750Y135550D03*
X285750Y156550D03*
D14*
X412750Y118500D03*
X412750Y135500D03*
X412750Y179950D03*
X412750Y162950D03*
D23*
X358775Y72517D03*
X358775Y162433D03*
X384175Y162433D03*
X384175Y72517D03*
D14*
X381000Y199000D03*
X381000Y182000D03*
X358775Y199000D03*
X358775Y182000D03*
D24*
X72475Y91675D03*
X72475Y102675D03*
X72475Y113675D03*
X72475Y124675D03*
X72475Y135675D03*
X72475Y146675D03*
X72475Y157675D03*
X72475Y168675D03*
D25*
X47675Y180175D03*
D26*
X55225Y75425D03*
D15*
X42725Y73175D03*
D27*
X32975Y82425D03*
D28*
X274750Y61450D03*
X285750Y61450D03*
X296750Y61450D03*
X296750Y90950D03*
X285750Y90950D03*
X274750Y90950D03*
D17*
X312175Y69850D03*
X329175Y69850D03*
X312175Y92075D03*
X329175Y92075D03*
D14*
X304800Y108975D03*
X304800Y125975D03*
D29*
X47625Y454025D03*
X73025Y454025D03*
X98425Y454025D03*
X123825Y454025D03*
X149225Y454025D03*
X174625Y454025D03*
X200025Y454025D03*
X225425Y454025D03*
X250825Y454025D03*
X276225Y454025D03*
X301625Y454025D03*
X327025Y454025D03*
X352425Y454025D03*
X377825Y454025D03*
X403225Y454025D03*
X428625Y454025D03*
X47625Y22225D03*
X73025Y22225D03*
X98425Y22225D03*
X123825Y22225D03*
X149225Y22225D03*
X174625Y22225D03*
X200025Y22225D03*
X225425Y22225D03*
X250825Y22225D03*
X276225Y22225D03*
X301625Y22225D03*
X327025Y22225D03*
X352425Y22225D03*
X377825Y22225D03*
X403225Y22225D03*
X428625Y22225D03*
X428625Y352425D03*
X454025Y352425D03*
X428625Y327025D03*
X454025Y327025D03*
X428625Y301625D03*
X454025Y301625D03*
X428625Y276225D03*
X454025Y276225D03*
X428625Y250825D03*
X454025Y250825D03*
D14*
G36*
X209874Y205682D02*
X219088Y214896D01*
X227596Y206388D01*
X218382Y197174D01*
X209874Y205682D01*
G37*
G36*
X197854Y193662D02*
X207068Y202876D01*
X215576Y194368D01*
X206362Y185154D01*
X197854Y193662D01*
G37*
X347100Y273050D03*
X364100Y273050D03*
X201050Y384175D03*
X218050Y384175D03*
D17*
X107950Y289950D03*
X107950Y306950D03*
D14*
X122800Y323850D03*
X105800Y323850D03*
D17*
X60325Y414900D03*
X60325Y397900D03*
D29*
X454025Y127000D03*
X454025Y152400D03*
X454025Y177800D03*
X454025Y203200D03*
D30*
X66675Y371575D03*
X66675Y320575D03*
D17*
X396875Y395850D03*
X396875Y378850D03*
X419100Y395850D03*
X419100Y378850D03*
D31*
X441575Y380700D03*
X441575Y406700D03*
D14*
X133350Y386325D03*
X133350Y369325D03*
D22*
X82550Y395900D03*
X82550Y416900D03*
D14*
X270900Y117475D03*
X287900Y117475D03*
D32*
X98425Y276200D03*
X98425Y266700D03*
X98425Y257200D03*
X75425Y276200D03*
X75425Y266700D03*
X75425Y257200D03*
D33*
X73025Y67691D03*
X361950Y253873D03*
X152400Y298450D03*
X17145Y196850D03*
X392113Y363538D03*
X381000Y377825D03*
X320675Y288925D03*
X47625Y431800D03*
X234950Y381000D03*
X419100Y73025D03*
X73025Y431800D03*
X228600Y396875D03*
X400050Y314325D03*
X438150Y222250D03*
X403225Y69850D03*
X412750Y149225D03*
X406400Y196850D03*
X85725Y336550D03*
X196850Y158750D03*
X257175Y57150D03*
X438150Y60325D03*
X441325Y425450D03*
X111252Y170434D03*
X95377Y219075D03*
X95250Y170434D03*
X95250Y200025D03*
X25400Y368300D03*
X282575Y174742D03*
X330200Y190500D03*
X123825Y152400D03*
X136525Y40894D03*
X454025Y228600D03*
X120777Y339725D03*
X342900Y200317D03*
X241300Y50800D03*
X412750Y101600D03*
X371475Y228600D03*
X101600Y69850D03*
X400050Y288925D03*
X400050Y263525D03*
X193675Y184150D03*
X320675Y136525D03*
X133350Y352552D03*
X304800Y152400D03*
X152400Y352425D03*
X406400Y428625D03*
X387350Y428625D03*
X368300Y428625D03*
X330200Y428625D03*
X136652Y415925D03*
X117475Y428625D03*
X108966Y231727D03*
X126861Y216039D03*
X276225Y428625D03*
X257175Y428625D03*
X238125Y428625D03*
X219341Y428359D03*
X200152Y428625D03*
X180975Y428625D03*
X159131Y428625D03*
X98679Y431800D03*
X158750Y213741D03*
X150466Y196014D03*
X161441Y181459D03*
X346075Y241300D03*
X330200Y250825D03*
X139700Y320675D03*
X123825Y279400D03*
X121666Y260223D03*
X140589Y264009D03*
X134366Y247602D03*
X307975Y415925D03*
X422275Y412750D03*
D34*
X19050Y457200D03*
X19050Y19050D03*
X457200Y19050D03*
X457200Y457200D03*
M02*
