G04 EAGLE Gerber RS-274X export*
G75*
%MOMM*%
%FSLAX34Y34*%
%LPD*%
%INSoldermask Bottom*%
%IPPOS*%
%AMOC8*
5,1,8,0,0,1.08239X$1,22.5*%
G01*
%ADD10C,1.854200*%
%ADD11C,2.082800*%
%ADD12C,1.600200*%
%ADD13C,1.981200*%


D10*
X25400Y410050D03*
X25400Y390050D03*
D11*
X47625Y454025D03*
X73025Y454025D03*
X98425Y454025D03*
X123825Y454025D03*
X149225Y454025D03*
X174625Y454025D03*
X200025Y454025D03*
X225425Y454025D03*
X250825Y454025D03*
X276225Y454025D03*
X301625Y454025D03*
X327025Y454025D03*
X352425Y454025D03*
X377825Y454025D03*
X403225Y454025D03*
X428625Y454025D03*
X47625Y22225D03*
X73025Y22225D03*
X98425Y22225D03*
X123825Y22225D03*
X149225Y22225D03*
X174625Y22225D03*
X200025Y22225D03*
X225425Y22225D03*
X250825Y22225D03*
X276225Y22225D03*
X301625Y22225D03*
X327025Y22225D03*
X352425Y22225D03*
X377825Y22225D03*
X403225Y22225D03*
X428625Y22225D03*
X428625Y352425D03*
X454025Y352425D03*
X428625Y327025D03*
X454025Y327025D03*
X428625Y301625D03*
X454025Y301625D03*
X428625Y276225D03*
X454025Y276225D03*
X428625Y250825D03*
X454025Y250825D03*
X454025Y127000D03*
X454025Y152400D03*
X454025Y177800D03*
X454025Y203200D03*
D12*
X73025Y67691D03*
X361950Y253873D03*
X152400Y298450D03*
X17145Y196850D03*
X392113Y363538D03*
X381000Y377825D03*
X320675Y288925D03*
X47625Y431800D03*
X234950Y381000D03*
X419100Y73025D03*
X73025Y431800D03*
X228600Y396875D03*
X400050Y314325D03*
X438150Y222250D03*
X403225Y69850D03*
X412750Y149225D03*
X406400Y196850D03*
X85725Y336550D03*
X196850Y158750D03*
X257175Y57150D03*
X438150Y60325D03*
X441325Y425450D03*
X111252Y170434D03*
X95377Y219075D03*
X95250Y170434D03*
X95250Y200025D03*
X25400Y368300D03*
X282575Y174742D03*
X330200Y190500D03*
X123825Y152400D03*
X136525Y40894D03*
X454025Y228600D03*
X120777Y339725D03*
X342900Y200317D03*
X241300Y50800D03*
X412750Y101600D03*
X371475Y228600D03*
X101600Y69850D03*
X400050Y288925D03*
X400050Y263525D03*
X193675Y184150D03*
X320675Y136525D03*
X133350Y352552D03*
X304800Y152400D03*
X152400Y352425D03*
X406400Y428625D03*
X387350Y428625D03*
X368300Y428625D03*
X330200Y428625D03*
X136652Y415925D03*
X117475Y428625D03*
X108966Y231727D03*
X126861Y216039D03*
X276225Y428625D03*
X257175Y428625D03*
X238125Y428625D03*
X219341Y428359D03*
X200152Y428625D03*
X180975Y428625D03*
X159131Y428625D03*
X98679Y431800D03*
X158750Y213741D03*
X150466Y196014D03*
X161441Y181459D03*
X346075Y241300D03*
X330200Y250825D03*
X139700Y320675D03*
X123825Y279400D03*
X121666Y260223D03*
X140589Y264009D03*
X134366Y247602D03*
X307975Y415925D03*
X422275Y412750D03*
D13*
X19050Y457200D03*
X19050Y19050D03*
X457200Y19050D03*
X457200Y457200D03*
M02*
